<svg xmlns="http://www.w3.org/2000/svg" viewBox="0 0 100 100"><path d="M99.27,30.543L66.215,9.135c-0.66-0.427-1.539-0.235-1.963,0.429c-0.424,0.664-0.234,1.549,0.426,1.976
l32.572,21.095h-7.593L52.578,8.622c-1.262-0.817-2.894-0.817-4.156,0L11.344,32.635H3.751L50.498,2.357l6.621,4.288c0.66,0.427,1.539,0.235,1.963-0.429c0.424-0.664,0.234-1.549-0.426-1.976l-6.621-4.288c-0.933-0.604-2.138-0.604-3.071,0L1.73,30.543c-1.006,0.652-1.455,1.865-1.118,3.021c0.337,1.155,1.368,1.931,2.564,1.931h7.165v9.245c0,1.138,0.802,2.091,1.867,2.317v2.517c0,1.305,1.055,2.367,2.352,2.367h0.195v17.519c0,0.79,0.636,1.43,1.421,1.43c0.785,0,1.42-0.64,1.42-1.43V50.511c0-0.79-0.636-1.43-1.42-1.43h-1.127v-1.974H25.11v1.974h-1.127c-0.785,0-1.421,0.64-1.421,1.43v31.591c0,0.79,0.636,1.43,1.421,1.43h1.127v2.146H15.049v-2.146h1.127c0.785,0,1.42-0.64,1.42-1.43v-3.655c0-0.79-0.636-1.43-1.42-1.43c-0.785,0-1.421,0.64-1.421,1.43v2.225h-0.195c-1.297,0-2.352,1.062-2.352,2.367v2.517c-1.065,0.225-1.867,1.178-1.867,2.317v2.887H5.309c-1.571,0-2.848,1.286-2.848,2.867v3.008c0,1.581,1.277,2.867,2.848,2.867h90.382c1.57,0,2.848-1.286,2.848-2.867v-3.008c0-1.581-1.278-2.867-2.848-2.867h-5.032v-2.887c0-1.138-0.802-2.091-1.867-2.317v-2.517c0-1.305-1.055-2.367-2.352-2.367h-0.195V51.94h0.195c1.297,0,2.352-1.062,2.352-2.367v-2.517c1.065-0.225,1.867-1.178,1.867-2.317v-9.245h7.164c1.196,0,2.226-0.776,2.564-1.931C100.725,32.408,100.275,31.194,99.27,30.543zM49.959,11.027c0.329-0.213,0.753-0.213,1.082,0l33.365,21.608H16.595L49.959,11.027z M13.182,35.495h74.636v3.499H13.182V35.495z M58.372,85.556v-2.517c0-1.305-1.055-2.367-2.352-2.367h-0.195V51.94h0.195c1.297,0,2.352-1.062,2.352-2.367v-2.517c1.065-0.225,1.867-1.179,1.867-2.317v-2.887h10.944v2.887c0,1.138,0.802,2.091,1.867,2.317v2.517c0,1.305,1.055,2.367,2.352,2.367h0.195v28.732h-0.195c-1.297,0-2.352,1.062-2.352,2.367v2.517c-1.065,0.226-1.867,1.179-1.867,2.317v2.887H60.238v-2.887C60.238,86.735,59.436,85.782,58.372,85.556z M27.95,85.556v-2.517c0-1.305-1.055-2.367-2.352-2.367h-0.195V51.94h0.195c1.297,0,2.352-1.062,2.352-2.367v-2.517c1.065-0.225,1.867-1.179,1.867-2.317v-2.887h10.945v2.887c0,1.138,0.802,2.091,1.867,2.317v2.517c0,1.305,1.055,2.367,2.352,2.367h0.195v28.732H44.98c-1.297,0-2.352,1.062-2.352,2.367v2.517c-1.065,0.226-1.867,1.179-1.867,2.317v2.887H29.817v-2.887C29.817,86.735,29.015,85.782,27.95,85.556z M54.404,83.532h1.127v2.146H45.47v-2.146h1.127c0.784,0,1.42-0.64,1.42-1.43V50.51c0-0.79-0.636-1.43-1.42-1.43H45.47v-1.974H55.53v1.974h-1.127c-0.784,0-1.42,0.64-1.42,1.43v31.591C52.984,82.891,53.62,83.532,54.404,83.532z M43.603,44.247v-2.394h13.794v2.394h-0.446c-0.001,0-0.002,0-0.003,0c-0.001,0-0.002,0-0.003,0H43.603zM43.603,88.467c0.139,0.045,0.286,0.071,0.44,0.071h12.902c0.158,0,0.31-0.027,0.453-0.075v2.297H43.603V88.467z M13.182,44.247v-2.394h13.794v2.394H13.182z M13.182,88.464c0.141,0.047,0.29,0.073,0.446,0.073H26.53c0.156,0,0.306-0.026,0.446-0.073v2.295H13.182V88.464zM95.698,93.625l-0.004,3.014c0,0-0.001,0-0.003,0L5.302,96.633l0.007-3.015L95.698,93.625z M87.368,88.537c0.158,0,0.309-0.027,0.451-0.074v2.296H74.024v-2.293c0.139,0.046,0.288,0.071,0.442,0.071H87.368z M77.017,49.08H75.89v-1.974h10.061v1.974h-1.127c-0.784,0-1.42,0.64-1.42,1.43v31.591c0,0.79,0.636,1.43,1.42,1.43h1.127v2.146H75.89v-2.146h1.127c0.785,0,1.421-0.64,1.421-1.43V50.51C78.438,49.721,77.802,49.08,77.017,49.08z M87.818,44.247h-0.446c-0.001,0-0.001,0-0.002,0s-0.001,0-0.002,0H74.024v-2.394h13.794V44.247zM51.101,21.419v-4.464c1.529,0.11,2.097,0.814,2.621,0.814c0.655,0,0.961-0.836,0.961-1.253c0-1.077-2.097-1.539-3.583-1.583v-0.594c0-0.264-0.328-0.506-0.655-0.506c-0.371,0-0.633,0.242-0.633,0.506v0.638c-2.075,0.22-4.151,1.319-4.151,4.09c0,2.815,2.185,3.606,4.151,4.31v5.167c-2.228-0.176-2.818-1.715-3.539-1.715c-0.546,0-1.005,0.726-1.005,1.253c0,1.078,1.835,2.551,4.544,2.595v0.682c0,0.264,0.262,0.506,0.633,0.506c0.328,0,0.655-0.242,0.655-0.506v-0.748c2.359-0.33,3.976-1.825,3.976-4.53C55.077,23.09,53.001,22.123,51.101,21.419z M49.943,21.001c-1.158-0.44-2.097-0.902-2.097-2.155c0-1.143,0.874-1.693,2.097-1.847V21.001z M50.97,28.5v-4.64c1.07,0.462,1.922,1.078,1.922,2.463C52.892,27.576,52.15,28.28,50.97,28.5z"/></svg> 