<svg xmlns="http://www.w3.org/2000/svg" viewBox="0 0 100 100"><path d="M89.59,55.357c-2.241-5.184-5.594-10.579-9.965-16.033c-0.494-0.616-1.397-0.719-2.018-0.227c-0.621,0.491-0.723,1.388-0.229,2.005c4.211,5.256,7.432,10.431,9.573,15.382c2.593,5.997,3.606,11.696,3.012,16.938c-0.615,5.423-3.03,10.003-7.178,13.615c-3.386,2.948-7.934,5.281-13.519,6.935c-9.66,2.86-19.136,2.673-19.231,2.671c-0.023-0.001-0.046-0.001-0.069,0c-0.096,0.001-9.573,0.189-19.232-2.671c-5.585-1.654-10.133-3.987-13.519-6.935c-4.148-3.611-6.563-8.192-7.178-13.615c-0.95-8.375,2.151-17.739,9.215-27.833c5.341-7.631,11.841-14.013,15.973-17.733h29.549c1.858,1.671,4.246,3.926,6.777,6.589c0.545,0.573,1.454,0.599,2.03,0.058c0.577-0.541,0.603-1.444,0.059-2.017c-2.005-2.11-3.922-3.969-5.569-5.496c1.108-0.811,1.829-2.116,1.829-3.585c0-2.454-2.01-4.451-4.48-4.451h-0.41c1.616-2.35,3.718-5.587,5.273-8.62c2.144-4.183,2.771-6.979,1.974-8.802C71.784,0.451,70.81-0.25,69.515-0.44c-1.922-0.282-4.458,0.485-7.669,1.455C58.222,2.112,54.113,3.354,50,3.354c-4.114,0-8.222-1.243-11.847-2.338c-3.211-0.971-5.747-1.737-7.669-1.455c-1.295,0.19-2.269,0.89-2.742,1.972c-0.797,1.823-0.169,4.62,1.975,8.802c1.554,3.033,3.657,6.27,5.273,8.62h-0.41c-2.47,0-4.48,1.997-4.48,4.451c0,1.469,0.72,2.773,1.828,3.584C21.979,36.207,5.047,54.904,7.183,73.741c1.248,11.008,9.13,18.956,22.794,22.985c9.887,2.915,19.273,2.786,20.023,2.77c0.086,0.002,0.285,0.005,0.585,0.005c2.322,0,10.683-0.195,19.437-2.775c13.664-4.029,21.546-11.976,22.795-22.985C93.468,68,92.383,61.815,89.59,55.357zM30.377,2.669c0.039-0.089,0.097-0.223,0.526-0.286c1.284-0.188,3.775,0.565,6.413,1.362C40.944,4.842,45.459,6.207,50,6.207s9.055-1.365,12.683-2.462c2.638-0.797,5.13-1.55,6.413-1.362c0.429,0.063,0.487,0.197,0.526,0.286c0.128,0.292,1.004,3.197-7.363,15.224c-0.237,0.34-0.437,0.696-0.601,1.061H38.342c-0.165-0.366-0.364-0.721-0.601-1.061C29.373,5.867,30.25,2.961,30.377,2.669zM34.58,21.808h30.84c0.886,0,1.607,0.716,1.607,1.597c0,0.881-0.721,1.597-1.607,1.597H34.58c-0.886,0-1.608-0.716-1.608-1.597C32.973,22.524,33.694,21.808,34.58,21.808zM30.009,66.044c-0.172-0.769-0.939-1.254-1.714-1.083c-0.774,0.171-1.262,0.934-1.09,1.703c0.963,4.295,3.134,8.218,6.28,11.343c4.553,4.524,10.534,6.786,16.515,6.786c5.981,0,11.961-2.262,16.515-6.786c9.106-9.048,9.106-23.769,0-32.816C62.103,40.808,56.238,38.394,50,38.394c-6.239,0-12.104,2.414-16.515,6.796c-3.224,3.203-5.418,7.23-6.346,11.646c-0.162,0.771,0.336,1.527,1.112,1.688c0.776,0.161,1.537-0.334,1.699-1.105c0.813-3.871,2.738-7.402,5.565-10.211c7.986-7.935,20.981-7.935,28.967,0c7.986,7.935,7.986,20.846,0,28.781c-7.986,7.935-20.981,7.935-28.967,0C32.757,73.248,30.853,69.809,30.009,66.044zM49.363,72.575c-2.469-0.192-3.789-1.309-4.754-2.124c-0.524-0.443-0.938-0.793-1.33-0.793c-0.791,0-1.536,1.091-1.536,1.937c0,1.67,2.975,4.145,7.639,4.219l0.193,0.003v1.352c0,0.32,0.342,0.665,0.895,0.665c0.462,0,0.933-0.336,0.933-0.665v-1.442l0.169-0.024c4.247-0.586,6.684-3.324,6.684-7.513c0-4.882-3.321-6.504-6.724-7.748l-0.129-0.047v-7.94l0.211,0.015c1.654,0.117,2.672,0.624,3.416,0.994c0.438,0.218,0.784,0.39,1.088,0.39c0.959,0,1.46-1.261,1.46-1.937c0-0.92-1.086-1.498-1.997-1.822c-1.074-0.382-2.565-0.635-3.987-0.676l-0.191-0.006v-1.2c0-0.329-0.471-0.665-0.933-0.665c-0.553,0-0.895,0.345-0.895,0.665v1.261l-0.176,0.018c-2.098,0.22-6.978,1.318-6.978,6.764c0,4.667,3.732,5.986,7.024,7.149l0.131,0.046v9.141L49.363,72.575zM51.177,64.116l0.274,0.117c1.783,0.759,3.433,1.814,3.433,4.369c0,2.1-1.234,3.484-3.474,3.896l-0.232,0.043V64.116z M49.535,59.732c-2.047-0.768-3.742-1.587-3.742-3.849c0-1.875,1.309-3.029,3.787-3.336l0.221-0.027v7.313L49.535,59.732z"/></svg>