<svg xmlns="http://www.w3.org/2000/svg" viewBox="0 0 100 100"><path d="M95.459,96.668H85.357V1.667C85.357,0.667,84.684,0,83.674,0H16.326c-1.01,0-1.684,0.667-1.684,1.667v95.001H4.541c-1.01,0-1.684,0.665-1.684,1.666c0,1,0.673,1.666,1.684,1.666h90.919c1.01,0,1.684-0.666,1.684-1.666C97.143,97.333,96.47,96.668,95.459,96.668z M75.255,96.668h-50.51V10.001h50.51V96.668z M81.99,96.668h-3.367V8.333c0-0.999-0.673-1.666-1.684-1.666H23.061c-1.01,0-1.683,0.667-1.683,1.666v88.335H18.01V3.333h63.98V96.668z M58.418,55h3.367v1.667c0,0.999,0.674,1.666,1.684,1.666h6.735c1.01,0,1.684-0.667,1.684-1.666V50c0-0.999-0.673-1.667-1.684-1.667h-6.735c-1.01,0-1.684,0.667-1.684,1.667v1.667h-3.367c-1.01,0-1.683,0.666-1.683,1.666C56.735,54.334,57.408,55,58.418,55zM65.153,51.667h3.367v3.334h-3.367V51.667z"/>
</svg>