<svg xmlns="http://www.w3.org/2000/svg" viewBox="0 0 100 100"><path d="M91.583,51.307c-0.831,0-1.662,0.832-1.662,1.663c0,0.997,0.665,1.661,1.662,1.661
c0.997,0,1.662-0.664,1.662-1.661C93.244,51.972,92.58,51.307,91.583,51.307z M86.597,46.321c-0.831,0-1.662,0.832-1.662,1.663
c0,0.997,0.665,1.661,1.662,1.661c0.997,0,1.662-0.665,1.662-1.661C88.259,46.987,87.594,46.321,86.597,46.321z M81.612,51.307
c-0.831,0-1.662,0.832-1.662,1.663c0,0.997,0.665,1.661,1.662,1.661c0.997,0,1.662-0.664,1.662-1.661
C83.273,51.972,82.609,51.307,81.612,51.307z M71.641,51.307c-0.831,0-1.662,0.832-1.662,1.663c0,0.997,0.664,1.661,1.662,1.661
c0.997,0,1.662-0.664,1.662-1.661C73.302,51.972,72.638,51.307,71.641,51.307z M76.626,46.321c-0.831,0-1.662,0.832-1.662,1.663
c0,0.997,0.665,1.661,1.662,1.661c0.997,0,1.662-0.665,1.662-1.661C78.288,46.987,77.623,46.321,76.626,46.321z M66.655,46.321
c-0.831,0-1.662,0.832-1.662,1.663c0,0.997,0.665,1.661,1.662,1.661c0.997,0,1.662-0.665,1.662-1.661
C68.317,46.987,67.652,46.321,66.655,46.321z M61.669,51.307c-0.831,0-1.662,0.832-1.662,1.663c0,0.997,0.665,1.661,1.662,1.661
c0.997,0,1.661-0.664,1.661-1.661C63.331,51.972,62.666,51.307,61.669,51.307z M56.684,46.321c-0.831,0-1.662,0.832-1.662,1.663
c0,0.997,0.664,1.661,1.662,1.661c0.997,0,1.662-0.665,1.662-1.661C58.346,46.987,57.681,46.321,56.684,46.321z M91.583,41.336
c-0.831,0-1.662,0.832-1.662,1.662c0,0.998,0.665,1.662,1.662,1.662c0.997,0,1.662-0.664,1.662-1.662
C93.244,42.001,92.58,41.336,91.583,41.336z M91.583,31.366c-0.831,0-1.662,0.83-1.662,1.661c0,0.998,0.665,1.661,1.662,1.661
c0.997,0,1.662-0.664,1.662-1.661S92.58,31.366,91.583,31.366z M86.597,36.35c-0.831,0-1.662,0.832-1.662,1.662
c0,0.998,0.665,1.661,1.662,1.661c0.997,0,1.662-0.664,1.662-1.661S87.594,36.35,86.597,36.35z M81.612,41.336
c-0.831,0-1.662,0.832-1.662,1.662c0,0.998,0.665,1.662,1.662,1.662c0.997,0,1.662-0.664,1.662-1.662
C83.273,42.001,82.609,41.336,81.612,41.336z M71.641,41.336c-0.831,0-1.662,0.832-1.662,1.662c0,0.998,0.664,1.662,1.662,1.662
c0.997,0,1.662-0.664,1.662-1.662C73.302,42.001,72.638,41.336,71.641,41.336z M81.612,31.366c-0.831,0-1.662,0.83-1.662,1.661
c0,0.998,0.665,1.661,1.662,1.661c0.997,0,1.662-0.664,1.662-1.661S82.609,31.366,81.612,31.366z M71.641,31.366
c-0.831,0-1.662,0.83-1.662,1.661c0,0.998,0.664,1.661,1.662,1.661c0.997,0,1.662-0.664,1.662-1.661S72.638,31.366,71.641,31.366z
 M76.626,36.35c-0.831,0-1.662,0.832-1.662,1.662c0,0.998,0.665,1.661,1.662,1.661c0.997,0,1.662-0.664,1.662-1.661
S77.623,36.35,76.626,36.35z M66.655,36.35c-0.831,0-1.662,0.832-1.662,1.662c0,0.998,0.665,1.661,1.662,1.661
c0.997,0,1.662-0.664,1.662-1.661S67.652,36.35,66.655,36.35z M61.669,41.336c-0.831,0-1.662,0.832-1.662,1.662
c0,0.998,0.665,1.662,1.662,1.662c0.997,0,1.661-0.664,1.661-1.662C63.331,42.001,62.666,41.336,61.669,41.336z M61.669,31.366
c-0.831,0-1.662,0.83-1.662,1.661c0,0.998,0.665,1.661,1.662,1.661c0.997,0,1.661-0.664,1.661-1.661S62.666,31.366,61.669,31.366z
 M56.684,36.35c-0.831,0-1.662,0.832-1.662,1.662c0,0.998,0.664,1.661,1.662,1.661c0.997,0,1.662-0.664,1.662-1.661
S57.681,36.35,56.684,36.35z M91.583,21.394c-0.831,0-1.662,0.831-1.662,1.662c0,0.997,0.665,1.661,1.662,1.661
c0.997,0,1.662-0.664,1.662-1.661C93.244,22.059,92.58,21.394,91.583,21.394z M86.597,26.381c-0.831-0.001-1.662,0.83-1.662,1.661
c0,0.997,0.665,1.661,1.662,1.661c0.997,0,1.662-0.665,1.662-1.661C88.259,27.044,87.594,26.381,86.597,26.381z M86.597,16.409
c-0.831,0-1.662,0.831-1.662,1.661c0,0.998,0.665,1.662,1.662,1.662c0.997,0,1.662-0.664,1.662-1.662
C88.259,17.073,87.594,16.409,86.597,16.409z M81.612,21.394c-0.831,0-1.662,0.831-1.662,1.662c0,0.997,0.665,1.661,1.662,1.661
c0.997,0,1.662-0.664,1.662-1.661C83.273,22.059,82.609,21.394,81.612,21.394z M71.641,21.394c-0.831,0-1.662,0.831-1.662,1.662
c0,0.997,0.664,1.661,1.662,1.661c0.997,0,1.662-0.664,1.662-1.661C73.302,22.059,72.638,21.394,71.641,21.394z M76.626,26.381
c-0.831-0.001-1.662,0.83-1.662,1.661c0,0.997,0.665,1.661,1.662,1.661c0.997,0,1.662-0.665,1.662-1.661
C78.288,27.044,77.623,26.381,76.626,26.381z M66.655,26.381c-0.831-0.001-1.662,0.83-1.662,1.661
c0,0.997,0.665,1.661,1.662,1.661c0.997,0,1.662-0.665,1.662-1.661C68.317,27.044,67.652,26.381,66.655,26.381z M76.626,16.409
c-0.831,0-1.662,0.831-1.662,1.661c0,0.998,0.665,1.662,1.662,1.662c0.997,0,1.662-0.664,1.662-1.662
C78.288,17.073,77.623,16.409,76.626,16.409z M66.655,16.409c-0.831,0-1.662,0.831-1.662,1.661c0,0.998,0.665,1.662,1.662,1.662
c0.997,0,1.662-0.664,1.662-1.662C68.317,17.073,67.652,16.409,66.655,16.409z M61.669,21.394c-0.831,0-1.662,0.831-1.662,1.662
c0,0.997,0.665,1.661,1.662,1.661c0.997,0,1.661-0.664,1.661-1.661C63.331,22.059,62.666,21.394,61.669,21.394z M56.684,26.381
c-0.831-0.001-1.662,0.83-1.662,1.661c0,0.997,0.664,1.661,1.662,1.661c0.997,0,1.662-0.665,1.662-1.661
C58.346,27.044,57.681,26.381,56.684,26.381z M56.684,16.409c-0.831,0-1.662,0.831-1.662,1.661c0,0.998,0.664,1.662,1.662,1.662
c0.997,0,1.662-0.664,1.662-1.662C58.346,17.073,57.681,16.409,56.684,16.409z M91.583,11.423c-0.831,0-1.662,0.831-1.662,1.661
c0,0.998,0.665,1.662,1.662,1.662c0.997,0,1.662-0.665,1.662-1.662C93.244,12.088,92.58,11.423,91.583,11.423z M86.597,6.438
c-0.831,0-1.662,0.83-1.662,1.661c0,0.998,0.665,1.661,1.662,1.661c0.997,0,1.662-0.663,1.662-1.661S87.594,6.438,86.597,6.438z
 M81.612,11.423c-0.831,0-1.662,0.831-1.662,1.661c0,0.998,0.665,1.662,1.662,1.662c0.997,0,1.662-0.665,1.662-1.662
C83.273,12.088,82.609,11.423,81.612,11.423z M71.641,11.423c-0.831,0-1.662,0.831-1.662,1.661c0,0.998,0.664,1.662,1.662,1.662
c0.997,0,1.662-0.665,1.662-1.662C73.302,12.088,72.638,11.423,71.641,11.423z M76.626,6.438c-0.831,0-1.662,0.83-1.662,1.661
c0,0.998,0.665,1.661,1.662,1.661c0.997,0,1.662-0.663,1.662-1.661S77.623,6.438,76.626,6.438z M66.655,6.438
c-0.831,0-1.662,0.83-1.662,1.661c0,0.998,0.665,1.661,1.662,1.661c0.997,0,1.662-0.663,1.662-1.661S67.652,6.438,66.655,6.438z
 M61.669,11.423c-0.831,0-1.662,0.831-1.662,1.661c0,0.998,0.665,1.662,1.662,1.662c0.997,0,1.661-0.665,1.661-1.662
C63.331,12.088,62.666,11.423,61.669,11.423z M56.684,6.438c-0.831,0-1.662,0.83-1.662,1.661c0,0.998,0.664,1.661,1.662,1.661
c0.997,0,1.662-0.663,1.662-1.661S57.681,6.438,56.684,6.438z M98.23-0.16H1.843c-0.997,0-1.662,0.665-1.662,1.662v96.387
c0,0.997,0.665,1.661,1.662,1.661h48.193c0.997,0,1.662-0.665,1.662-1.661V77.947h39.885c4.653,0,8.309-5.152,8.309-11.633V1.502
C99.892,0.504,99.227-0.16,98.23-0.16z M48.374,96.227H3.505V3.163h44.87v51.519h-4.986c-4.653,0-8.309,5.151-8.309,11.632
c0,6.481,3.656,11.633,8.309,11.633h4.986V96.227z M85.729,74.622h-42.34c-1.579,0-3.04-1.348-3.967-3.382
c-0.634-1.391-1.018-3.104-1.018-4.927c0-0.982,0.111-1.932,0.313-2.816c0.721-3.161,2.595-5.494,4.672-5.494H85.73
c-1.523,2.103-2.456,5.036-2.456,8.31C83.273,69.587,84.207,72.521,85.729,74.622z M91.583,74.622
c-1.579,0-3.04-1.348-3.967-3.382c-0.634-1.391-1.018-3.104-1.018-4.927c0-0.982,0.111-1.932,0.313-2.816
c0.72-3.159,2.592-5.49,4.668-5.494h0.005c1.799,0,3.446,1.752,4.322,4.274c0.419,1.205,0.663,2.585,0.663,4.035
C96.568,70.8,94.242,74.622,91.583,74.622z M96.568,6.438c-0.831,0-1.662,0.83-1.662,1.661c0,0.998,0.665,1.661,1.662,1.661v6.648
c-0.831,0-1.662,0.831-1.662,1.661c0,0.998,0.665,1.662,1.662,1.662v6.648c-0.831-0.001-1.662,0.83-1.662,1.661
c0,0.997,0.665,1.661,1.662,1.661v6.647c-0.831,0-1.662,0.832-1.662,1.662c0,0.998,0.665,1.661,1.662,1.661v6.647
c-0.831,0-1.662,0.832-1.662,1.663c0,0.997,0.665,1.661,1.662,1.661v7.317c-0.454-0.472-0.945-0.878-1.465-1.212
c-0.076-0.049-0.152-0.099-0.23-0.144c-0.048-0.029-0.097-0.055-0.145-0.081c-0.065-0.037-0.13-0.073-0.196-0.107
c-0.062-0.033-0.124-0.063-0.186-0.093c-0.049-0.023-0.098-0.047-0.148-0.069c-0.075-0.034-0.15-0.067-0.226-0.098
c-0.031-0.012-0.061-0.024-0.092-0.036c-0.388-0.152-0.788-0.266-1.198-0.339c-0.041-0.008-0.082-0.016-0.123-0.022
c-0.074-0.012-0.147-0.022-0.221-0.032c-0.066-0.008-0.133-0.014-0.2-0.02c-0.056-0.005-0.112-0.01-0.168-0.014
c-0.129-0.008-0.257-0.013-0.386-0.013H51.699v-0.051c0.997,0,1.661-0.664,1.661-1.661c0-0.997-0.664-1.663-1.661-1.663V44.66
c0.997,0,1.661-0.664,1.661-1.662c0-0.996-0.664-1.662-1.661-1.662v-6.648c0.997,0,1.661-0.664,1.661-1.661
s-0.664-1.661-1.661-1.661v-6.649c0.997,0,1.661-0.664,1.661-1.661c0-0.997-0.664-1.662-1.661-1.662v-6.647
c0.997,0,1.661-0.665,1.661-1.662c0-0.996-0.664-1.661-1.661-1.661V4.775c0.98,0,1.635-0.644,1.657-1.612h6.656
c0.022,0.968,0.678,1.612,1.658,1.612c0.98,0,1.635-0.644,1.657-1.612h6.657c0.022,0.968,0.677,1.612,1.658,1.612
c0.98,0,1.635-0.644,1.658-1.612h6.656c0.022,0.968,0.677,1.612,1.658,1.612c0.98,0,1.635-0.644,1.658-1.612h6.656
c0.022,0.968,0.678,1.612,1.658,1.612c0.98,0,1.635-0.644,1.658-1.612h3.328V6.438z"/>
</svg>