<svg xmlns="http://www.w3.org/2000/svg" viewBox="0 0 100 100"><path d="M98.508-0.5H2.492C1.392-0.5,0.5,0.391,0.5,1.492v96.016c0,1.099,0.892,1.992,1.992,1.992h96.016
c1.101,0,1.992-0.893,1.992-1.992V1.492C100.5,0.391,99.609-0.5,98.508-0.5z M93.699,3.484L74.504,22.679L55.309,3.484H93.699z
 M55.309,47.508l19.195-19.195l19.195,19.195H55.309z M93.699,51.493L74.504,70.686L55.309,51.493H93.699z M52.492,6.302
l19.195,19.194L52.492,44.69V6.302z M4.484,3.484h41.207L26.496,22.679l-9.648-9.648c-0.778-0.778-2.039-0.778-2.818,0
c-0.778,0.778-0.778,2.039,0,2.817l9.648,9.648L4.484,44.691V3.484z M7.301,47.508l19.195-19.195l19.195,19.195H7.301z
 M45.691,51.493L26.496,70.686L7.301,51.493H45.691z M4.484,54.31l19.194,19.194L4.484,92.698V54.31z M7.301,95.517l19.194-19.195
l19.195,19.195H7.301z M48.508,92.699L29.313,73.504L48.508,54.31V92.699z M48.508,44.691L29.313,25.496L48.508,6.302V44.691z
 M52.492,54.31l19.195,19.194L52.492,92.698V54.31z M55.309,95.517l19.195-19.195l19.194,19.195H55.309z M96.516,92.699
L77.321,73.504L96.516,54.31V92.699z M96.516,44.691L77.321,25.496L96.516,6.302V44.691z M11.47,7.653
c-0.778-0.778-2.039-0.778-2.817,0c-0.778,0.778-0.778,2.04,0,2.817l0.797,0.797c0.389,0.389,0.899,0.584,1.408,0.584
c0.51,0,1.02-0.195,1.409-0.584c0.777-0.779,0.777-2.039,0-2.817L11.47,7.653z"/>
</svg>