<svg xmlns="http://www.w3.org/2000/svg" viewBox="0 0 100 100"><path d="M98.047,23.355h-0.005c1.229-1.651,1.958-3.701,1.958-5.919c0-5.44-4.381-9.864-9.766-9.864
c-5.385,0-9.766,4.424-9.766,9.864c0,2.218,0.73,4.268,1.959,5.919h-0.005c-1.079,0-1.953,0.883-1.953,1.972v7.012
c-2.213-1.427-4.517-2.694-6.901-3.796v-3.216c0-1.09-0.874-1.972-1.953-1.972s-1.953,0.883-1.953,1.972v1.585
c-0.658-0.246-1.321-0.481-1.989-0.703c-1.619-0.537-3.259-0.996-4.911-1.382v-4.11c0-1.091-0.875-1.973-1.953-1.973
s-1.953,0.883-1.953,1.973v3.339c-2.281-0.364-4.585-0.586-6.901-0.667v-5.954c0-1.089-0.875-1.973-1.953-1.973
c-1.079,0-1.953,0.884-1.953,1.973v5.954c-2.316,0.081-4.62,0.303-6.901,0.667v-3.339c0-1.09-0.875-1.973-1.953-1.973
c-1.079,0-1.953,0.883-1.953,1.973v4.11c-1.653,0.386-3.291,0.845-4.911,1.382c-0.669,0.223-1.332,0.457-1.99,0.703v-1.585
c0-1.09-0.875-1.972-1.953-1.972c-1.079,0-1.953,0.883-1.953,1.972v3.216c-2.384,1.102-4.689,2.369-6.901,3.796v-7.012
c0-1.09-0.875-1.972-1.953-1.972h-0.005c1.229-1.651,1.959-3.701,1.959-5.919c0-5.44-4.381-9.864-9.766-9.864
C4.381,7.572,0,11.996,0,17.436c0,2.218,0.729,4.268,1.959,5.919H1.953C0.874,23.355,0,24.237,0,25.327v63.129
c0,1.09,0.874,1.972,1.953,1.972h21.686c1.078,0,1.953-0.883,1.953-1.972s-0.875-1.972-1.953-1.972h-4.108v-3.947h60.937v3.947
H76.36c-1.079,0-1.953,0.883-1.953,1.972s0.874,1.972,1.953,1.972h21.687c1.079,0,1.953-0.883,1.953-1.972V25.327
C100,24.237,99.125,23.355,98.047,23.355z M15.625,86.483H3.906V27.299h3.906v8.266c0,1.09,0.875,1.972,1.953,1.972
s1.953-0.883,1.953-1.972v-8.266h3.906V86.483z M9.766,23.355c-3.231,0-5.859-2.656-5.859-5.919c0-3.263,2.628-5.919,5.859-5.919
s5.859,2.655,5.859,5.919C15.625,20.699,12.997,23.355,9.766,23.355z M26.433,78.591h-6.901V37.09
c2.211-1.582,4.517-2.979,6.901-4.186V78.591z M37.24,78.593h-6.901V31.124c2.246-0.914,4.55-1.668,6.901-2.256V78.593z
 M48.047,78.593h-6.901V28.046c2.268-0.385,4.572-0.625,6.901-0.709V78.593z M58.854,78.591h-6.901V27.337
c2.329,0.084,4.632,0.324,6.901,0.709V78.591z M69.661,78.593H62.76V28.868c2.351,0.588,4.655,1.343,6.901,2.256V78.593z
 M80.469,78.591h-6.901V32.904c2.385,1.209,4.691,2.604,6.901,4.186V78.591z M96.094,86.483H84.375V27.299h3.906v8.266
c0,1.09,0.875,1.972,1.953,1.972c1.079,0,1.953-0.883,1.953-1.972v-8.266h3.906V86.483z M90.234,23.355
c-3.231,0-5.859-2.656-5.859-5.919c0-3.263,2.629-5.919,5.859-5.919c3.231,0,5.859,2.655,5.859,5.919
C96.094,20.699,93.465,23.355,90.234,23.355z M29.297,86.483h-0.046c-1.079,0-1.953,0.883-1.953,1.972s0.875,1.972,1.953,1.972
h0.046c1.079,0,1.953-0.883,1.953-1.972S30.376,86.483,29.297,86.483z M70.749,86.483h-0.046c-1.079,0-1.953,0.883-1.953,1.972
s0.875,1.972,1.953,1.972h0.046c1.079,0,1.953-0.883,1.953-1.972S71.828,86.483,70.749,86.483z M9.766,39.26
c-1.079,0-1.953,0.883-1.953,1.973v0.046c0,1.09,0.875,1.972,1.953,1.972s1.953-0.883,1.953-1.972v-0.046
C11.719,40.144,10.844,39.26,9.766,39.26z M90.234,39.26c-1.079,0-1.953,0.883-1.953,1.973v0.046c0,1.09,0.875,1.972,1.953,1.972
c1.079,0,1.953-0.883,1.953-1.972v-0.046C92.187,40.144,91.313,39.26,90.234,39.26z"/>
</svg>