<svg xmlns="http://www.w3.org/2000/svg" viewBox="0 0 512 512">
<path d="M88.681,59.883c2.973-4.637,1.636-10.809-2.995-13.798c-4.64-2.995-10.83-1.663-13.825,2.978
	c-1.348,2.088-12.907,20.813-3.713,35.004c1.63,2.516-0.074,10.986-2.616,16.567c-2.318,5.013-0.134,10.956,4.879,13.274
	c1.359,0.628,2.786,0.926,4.191,0.926c3.777,0,7.393-2.151,9.083-5.805c1.701-3.679,9.758-22.7,1.248-35.836
	C83.759,71.38,85.65,64.665,88.681,59.883z"/>
<path d="M156.468,59.883c2.973-4.637,1.636-10.809-2.995-13.798c-4.64-2.995-10.83-1.663-13.825,2.978
	c-1.348,2.088-12.907,20.813-3.713,35.004c1.63,2.516-0.074,10.986-2.616,16.567c-2.319,5.013-0.134,10.956,4.878,13.274
	c1.359,0.629,2.786,0.926,4.191,0.926c3.777,0,7.393-2.151,9.083-5.805c1.702-3.68,9.759-22.7,1.249-35.836
	C151.546,71.38,153.437,64.665,156.468,59.883z"/>
<path d="M224.255,59.883c2.973-4.637,1.636-10.809-2.995-13.798c-4.641-2.995-10.83-1.663-13.825,2.978
	c-1.348,2.088-12.907,20.813-3.713,35.004c1.63,2.516-0.074,10.986-2.616,16.567c-2.318,5.013-0.134,10.956,4.878,13.274
	c1.359,0.629,2.786,0.926,4.191,0.926c3.777,0,7.393-2.151,9.083-5.805c1.702-3.68,9.759-22.7,1.249-35.836
	C219.333,71.38,221.224,64.665,224.255,59.883z"/>
<path d="M502,447.513h-24.104c0.221-0.262,0.444-0.522,0.656-0.793c4.854-6.224,6.536-14.184,4.614-21.839l-18.383-73.232h3.156
	c5.522,0,10-4.477,10-10s-4.478-10-10-10h-8.177l-13.818-55.045h39.107c9.188,0,16.664-7.475,16.664-16.663v-18.88
	c0-9.188-7.476-16.663-16.664-16.663h-19.745c4.209-5.662,7.252-12.278,8.72-19.525l1.369-6.756
	c0.876-4.333-0.226-8.78-3.024-12.202c-2.799-3.421-6.939-5.384-11.359-5.384h-71.444c-4.352,0-8.45,1.913-11.246,5.248
	c-2.795,3.334-3.963,7.705-3.203,11.986l1.049,5.924c1.369,7.723,4.488,14.746,8.893,20.709h-25.122l1.619-44.104
	c0.156-4.275-1.457-8.495-4.426-11.575c-2.97-3.08-7.127-4.847-11.405-4.847h-35.079c-4.278,0-8.436,1.767-11.404,4.847
	c-2.97,3.08-4.583,7.299-4.427,11.575l1.619,44.103h-13.503c-9.188,0-16.663,7.475-16.663,16.663v18.88
	c0,9.188,7.475,16.663,16.663,16.663h39.108l-13.818,55.045h-9.416c-5.522,0-10,4.477-10,10s4.478,10,10,10h4.395l-18.384,73.233
	c-1.921,7.655-0.239,15.616,4.616,21.839c0.212,0.271,0.434,0.531,0.655,0.793h-37.903c0.867-0.987,1.666-2.045,2.381-3.177
	c3.568-5.643,4.725-12.336,3.257-18.849l-18.279-81.14h23.397c5.522,0,10-4.477,10-10s-4.478-10-10-10H235.04l-15.072-66.905
	c20.39-19.631,33.098-47.189,33.098-77.662v-32.598h17.094c5.522,0,10-4.477,10-10c0-5.523-4.478-10-10-10h-27.094H47.379H20.285
	c-5.523,0-10,4.477-10,10c0,5.523,4.477,10,10,10h17.094v32.598c0,30.473,12.708,58.03,33.098,77.662l-15.072,66.906H27.503
	c-5.523,0-10,4.477-10,10s4.477,10,10,10H50.9l-18.279,81.14c-1.467,6.513-0.311,13.207,3.257,18.849
	c0.716,1.132,1.514,2.19,2.381,3.177H10c-5.523,0-10,4.477-10,10s4.477,10,10,10h492c5.522,0,10-4.477,10-10
	S507.522,447.513,502,447.513z M57.379,179.779v-32.598h175.687v32.598c0,48.437-39.406,87.843-87.843,87.843
	S57.379,228.216,57.379,179.779z M183.802,324.346h-77.159l9.19-40.795c9.346,2.651,19.205,4.071,29.389,4.071
	c10.184,0,20.043-1.42,29.39-4.071L183.802,324.346z M59.67,435.199c-0.653,0.413-2.009,1.044-3.766,0.651
	c-1.755-0.396-2.709-1.549-3.122-2.202c-0.413-0.653-1.046-2.01-0.651-3.765l21.062-93.492c0.003-0.014,0.007-0.028,0.01-0.042
	l14.691-65.214c2.943,1.85,5.973,3.556,9.084,5.112L84.35,332.302c-0.003,0.014-0.007,0.028-0.01,0.042l-22.467,99.732
	C61.477,433.831,60.323,434.786,59.67,435.199z M75.752,447.513c2.751-3.111,4.694-6.878,5.632-11.042l20.753-92.125h86.17
	l20.753,92.125c0.938,4.164,2.881,7.931,5.631,11.042H75.752z M237.662,433.647c-0.413,0.653-1.367,1.807-3.123,2.202
	c-1.756,0.395-3.112-0.238-3.765-0.651c-0.653-0.413-1.807-1.367-2.203-3.123l-22.468-99.737c-0.001-0.007-0.003-0.013-0.004-0.02
	l-12.631-56.071c3.11-1.557,6.141-3.262,9.083-5.112l14.692,65.218c0.002,0.01,0.004,0.02,0.007,0.029l21.063,93.5
	C238.709,431.637,238.075,432.994,237.662,433.647z M454.5,200.529l-0.075,0.372c-2.758,13.614-14.841,23.496-28.731,23.496
	h-0.968c-14.129,0-26.19-10.018-28.805-23.868H454.5z M341.412,183.871l-1.487,40.525h-23.478l-1.487-40.525H341.412z
	 M286.267,256.603v-12.206h0.001h20.54h42.757h75.161h0.968h56.022v12.206h-48.592h-31.836h-34.593h-31.836H286.267z
	 M407.306,331.648h-46.628l13.818-55.045h18.992L407.306,331.648z M309.491,436.513c-2.311,0-3.679-1.312-4.288-2.094
	c-0.61-0.782-1.55-2.429-0.987-4.669l38.444-153.147h11.215v0l-39.109,155.795C314.158,434.821,311.989,436.513,309.491,436.513z
	 M328.887,447.513c2.456-2.899,4.303-6.365,5.277-10.246l21.493-85.619h56.67l21.493,85.619c0.974,3.881,2.821,7.347,5.277,10.246
	H328.887z M462.782,434.419c-0.61,0.782-1.978,2.094-4.288,2.094c-2.498,0-4.667-1.692-5.275-4.115L414.11,276.603h11.216
	l38.442,153.147C464.331,431.991,463.392,433.637,462.782,434.419z"/>
<path d="M121.709,227.013c-26.476-13.37-32.224-39.265-32.474-40.456c-1.097-5.393-6.348-8.894-11.75-7.813
	c-5.417,1.077-8.934,6.342-7.856,11.759c0.293,1.48,7.619,36.463,43.064,54.362c1.446,0.73,2.984,1.076,4.5,1.076
	c3.654,0,7.175-2.01,8.934-5.494C128.617,235.517,126.638,229.502,121.709,227.013z"/>
<path d="M159.03,244.101c-0.13-0.64-0.32-1.27-0.57-1.87c-0.25-0.61-0.56-1.19-0.92-1.73c-0.37-0.55-0.79-1.06-1.25-1.52
	c-0.46-0.46-0.97-0.88-1.52-1.24c-0.54-0.36-1.12-0.67-1.72-0.92c-0.61-0.25-1.24-0.45-1.87-0.57c-1.29-0.26-2.62-0.26-3.91,0
	c-0.64,0.12-1.27,0.32-1.87,0.57c-0.61,0.25-1.19,0.56-1.73,0.92c-0.55,0.36-1.06,0.78-1.52,1.24s-0.88,0.97-1.24,1.52
	c-0.36,0.54-0.67,1.12-0.92,1.73c-0.25,0.6-0.44,1.23-0.57,1.87s-0.2,1.3-0.2,1.95c0,0.65,0.07,1.31,0.2,1.95
	c0.13,0.64,0.32,1.27,0.57,1.87c0.25,0.61,0.56,1.19,0.92,1.73c0.36,0.55,0.78,1.06,1.24,1.52c0.46,0.46,0.97,0.88,1.52,1.24
	c0.54,0.36,1.12,0.67,1.73,0.92c0.6,0.25,1.23,0.44,1.87,0.57s1.3,0.2,1.95,0.2c0.65,0,1.31-0.07,1.96-0.2
	c0.63-0.13,1.26-0.32,1.87-0.57c0.6-0.25,1.18-0.56,1.72-0.92c0.55-0.36,1.06-0.78,1.52-1.24c0.46-0.46,0.88-0.97,1.25-1.52
	c0.36-0.54,0.67-1.12,0.92-1.73c0.25-0.6,0.44-1.23,0.57-1.87c0.13-0.64,0.19-1.3,0.19-1.95
	C159.22,245.401,159.16,244.741,159.03,244.101z"/>
</svg>