<svg xmlns="http://www.w3.org/2000/svg" viewBox="0 0 512 512">
<path d="M512,206.477V166.77h-27.314V91.559h-65.933v75.212h-12.434V91.548h-65.933v75.221H328.1V91.538h-65.935v75.232h-12.577
	V91.526h-65.935v75.244h-12.038V91.517h-65.933v75.254H93.257V91.506H27.324v75.263H0v39.706h27.324v75.233H0v39.706h27.324
	v75.202h43.391c2.535,13.569,14.459,23.876,28.752,23.876c14.29,0,26.212-10.301,28.75-23.865h43.396v-75.212h12.038v75.221
	h65.935v-75.221h12.577v75.234h65.934v-75.234h12.286v75.244h43.408c2.551,13.549,14.466,23.834,28.745,23.834
	c14.275,0,26.188-10.28,28.743-23.824h43.405v-75.255H512v-39.706h-27.314v-75.233H512z M484.686,182.444h11.64v8.359h-11.64
	V182.444z M27.324,305.741H15.673v-8.359h11.651V305.741z M27.324,190.803H15.673v-8.359h11.651V190.803z M77.584,371.847
	c-2.35,2.65-4.227,5.725-5.498,9.097H42.998V107.18h34.586V371.847z M93.257,182.444h12.424v8.359H93.257V182.444z
	 M93.257,206.476h12.424v75.233H93.257V206.476z M93.257,297.382h12.424v8.359H93.257V297.382z M105.681,321.414v41.234
	c-2.003-0.436-4.08-0.671-6.212-0.671s-4.208,0.235-6.211,0.67v-41.233H105.681z M99.468,404.819
	c-7.49,0-13.584-6.094-13.584-13.584s6.094-13.584,13.584-13.584s13.584,6.094,13.584,13.584S106.958,404.819,99.468,404.819z
	 M155.942,380.954h-0.001h-29.085c-1.272-3.375-3.15-6.453-5.501-9.105V107.19h34.587V380.954z M183.652,305.741h-12.038v-8.359
	h12.038V305.741z M183.653,281.709h-12.039v-75.233h12.039V281.709z M183.653,190.803h-12.039v-8.359h12.039V190.803z
	 M233.914,380.963h-34.588V107.2h34.588V380.963z M262.165,305.741h-12.577v-8.359h12.577V305.741z M262.165,281.709h-12.577
	v-75.233h12.577V281.709z M262.165,190.803h-12.577v-8.359h12.577V190.803z M312.427,380.975h-34.588V107.211h34.588V380.975z
	 M340.386,305.741H328.1v-8.359h12.286V305.741z M340.386,281.709H328.1v-75.233h12.286V281.709z M340.386,190.803H328.1v-8.359
	h12.286V190.803z M390.647,371.857c-2.355,2.658-4.236,5.745-5.507,9.128h-29.079V107.222h34.586V371.857z M406.319,182.444
	h12.434v8.359h-12.434V182.444z M406.319,206.476h12.433v75.233h-12.433V206.476z M406.319,297.382h12.434v8.359h-12.434V297.382z
	 M418.753,321.414v41.234c-2.004-0.436-4.081-0.671-6.214-0.671c-2.135,0-4.214,0.236-6.219,0.672v-41.235H418.753z
	 M412.539,404.819c-7.49,0-13.584-6.094-13.584-13.584s6.094-13.584,13.584-13.584c7.49,0,13.584,6.094,13.584,13.584
	S420.028,404.819,412.539,404.819z M469.013,380.995L469.013,380.995h-29.071c-1.272-3.391-3.156-6.483-5.516-9.145V107.232
	h34.587V380.995z M496.327,297.382v8.359h-11.64v-8.359H496.327z"/>
<rect x="52.454" y="123.893" width="15.673" height="240.327"/>
<rect x="130.811" y="123.903" width="15.673" height="240.327"/>
<rect x="208.781" y="146.212" width="15.673" height="218.039"/>
<rect x="287.295" y="123.935" width="15.673" height="240.326"/>
<rect x="365.516" y="123.945" width="15.673" height="240.327"/>
<rect x="443.883" y="123.956" width="15.673" height="183.171"/>
<rect x="443.883" y="325.934" width="15.673" height="15.673"/>
</svg>