<svg xmlns="http://www.w3.org/2000/svg" viewBox="0 0 512 512">
<path d="M486.4,0H25.6C11.468,0.015,0.015,11.468,0,25.6v460.8c0.015,14.132,11.468,25.585,25.6,25.6h460.8
	c14.132-0.015,25.585-11.468,25.6-25.6V25.6C511.985,11.468,500.532,0.015,486.4,0z M298.667,110.933V179.2
	c-0.003,4.711-3.822,8.53-8.533,8.533h-102.4c-4.711-0.003-8.53-3.822-8.533-8.533v-68.267c0.003-4.712,3.822-8.53,8.533-8.533
	h102.4C294.845,102.403,298.664,106.222,298.667,110.933z M290.133,384h-68.267c-4.712-0.003-8.53-3.822-8.533-8.533V332.8
	c0.003-4.711,3.822-8.53,8.533-8.533h68.267c4.711,0.003,8.53,3.822,8.533,8.533v42.667
	C298.664,380.178,294.845,383.997,290.133,384z M298.667,409.6v17.067c-0.003,4.711-3.822,8.53-8.533,8.533h-51.2h-17.067
	c-4.712-0.003-8.53-3.822-8.533-8.533V409.6c0.003-4.711,3.822-8.53,8.533-8.533h68.267
	C294.845,401.07,298.664,404.889,298.667,409.6z M290.133,307.2h-68.267c-4.712-0.003-8.53-3.822-8.533-8.533v-85.333
	c0.003-4.712,3.822-8.53,8.533-8.533h68.267c4.711,0.003,8.53,3.822,8.533,8.533v85.333
	C298.664,303.378,294.845,307.197,290.133,307.2z M204.8,17.067h76.8V76.8c-0.003,4.712-3.822,8.53-8.533,8.533h-59.733
	c-4.712-0.003-8.53-3.822-8.533-8.533V17.067z M110.933,17.067h76.8V76.8c-0.003,4.712-3.822,8.53-8.533,8.533h-68.267V17.067z
	 M110.933,102.4H153.6c4.711,0.003,8.53,3.822,8.533,8.533V179.2c-0.003,4.711-3.822,8.53-8.533,8.533h-42.667V102.4z
	 M110.933,204.8h76.8c4.711,0.003,8.53,3.822,8.533,8.533V256c-0.003,4.712-3.822,8.53-8.533,8.533h-76.8V204.8z M110.933,281.6
	h76.8c4.711,0.003,8.53,3.822,8.533,8.533v59.733c-0.003,4.711-3.822,8.53-8.533,8.533h-76.8V281.6z M110.933,375.467h76.8
	c4.711,0.003,8.53,3.822,8.533,8.533v42.667c-0.003,4.711-3.822,8.53-8.533,8.533h-76.8V375.467z M93.867,494.933H25.6
	c-4.711-0.003-8.53-3.822-8.533-8.533V25.6c0.003-4.711,3.822-8.53,8.533-8.533h68.267V494.933z M170.667,494.933h-59.733
	v-42.667h51.2c4.711,0.003,8.53,3.822,8.533,8.533V494.933z M247.467,494.933h-59.733V460.8c0.003-4.711,3.822-8.53,8.533-8.533
	h42.667c4.711,0.003,8.53,3.822,8.533,8.533V494.933z M307.2,494.933h-42.667V460.8c0.003-4.711,3.822-8.53,8.533-8.533h25.6
	c4.711,0.003,8.53,3.822,8.533,8.533V494.933z M401.067,494.933h-76.8V460.8c0.003-4.711,3.822-8.53,8.533-8.533h68.267V494.933z
	 M401.067,435.2h-76.8c-4.711-0.003-8.53-3.822-8.533-8.533V409.6c0.003-4.711,3.822-8.53,8.533-8.533h76.8V435.2z M401.067,384
	h-76.8c-4.711-0.003-8.53-3.822-8.533-8.533V358.4c0.003-4.711,3.822-8.53,8.533-8.533h76.8V384z M401.067,332.8h-76.8
	c-4.711-0.003-8.53-3.822-8.533-8.533v-51.2c0.003-4.711,3.822-8.53,8.533-8.533h76.8V332.8z M401.067,247.467h-76.8
	c-4.711-0.003-8.53-3.822-8.533-8.533v-25.6c0.003-4.712,3.822-8.53,8.533-8.533h76.8V247.467z M401.067,187.733h-76.8
	c-4.711-0.003-8.53-3.822-8.533-8.533v-68.267c0.003-4.712,3.822-8.53,8.533-8.533h76.8V187.733z M401.067,85.333H307.2
	c-4.711-0.003-8.53-3.822-8.533-8.533V17.067h102.4V85.333z M494.933,486.4c-0.003,4.711-3.822,8.53-8.533,8.533h-68.267V17.067
	H486.4c4.711,0.003,8.53,3.822,8.533,8.533V486.4z"/>
<path d="M36.608,57.259c0.829,0.754,1.782,1.36,2.817,1.792c3.175,1.362,6.859,0.652,9.301-1.792
	c0.752-0.831,1.358-1.783,1.792-2.817c0.911-2.065,0.911-4.418,0-6.483c-0.432-1.035-1.038-1.988-1.792-2.817
	c-0.817-0.77-1.773-1.378-2.817-1.792c-3.182-1.291-6.826-0.589-9.301,1.792c-0.754,0.829-1.36,1.782-1.792,2.817
	c-0.911,2.065-0.911,4.418,0,6.483C35.25,55.475,35.856,56.428,36.608,57.259z"/>
<path d="M68.267,85.333c1.115-0.014,2.216-0.246,3.242-0.683c1.034-0.433,1.986-1.039,2.817-1.791
	c1.603-1.607,2.494-3.789,2.475-6.059c0.02-3.467-2.059-6.601-5.261-7.931s-6.89-0.59-9.331,1.872
	c-0.772,0.816-1.38,1.772-1.792,2.817c-0.437,1.026-0.669,2.127-0.683,3.242c-0.022,2.27,0.87,4.453,2.475,6.058
	C63.813,84.463,65.997,85.355,68.267,85.333z"/>
<path d="M39.425,110.25c3.175,1.362,6.859,0.653,9.302-1.79s3.152-6.127,1.79-9.302c-0.431-1.035-1.038-1.988-1.792-2.817
	c-3.421-3.158-8.695-3.158-12.117,0c-0.754,0.829-1.36,1.782-1.792,2.817c-0.911,2.065-0.911,4.418,0,6.483
	c0.434,1.034,1.04,1.986,1.792,2.817C37.438,109.212,38.391,109.818,39.425,110.25z"/>
<path d="M68.267,136.533c1.115-0.014,2.216-0.246,3.242-0.683c1.034-0.433,1.986-1.039,2.817-1.791
	c1.603-1.607,2.494-3.789,2.475-6.059c-0.033-2.259-0.917-4.422-2.475-6.059c-0.831-0.752-1.783-1.358-2.817-1.791
	c-2.067-0.9-4.416-0.9-6.483,0c-2.143,0.777-3.831,2.465-4.608,4.608c-0.438,1.026-0.67,2.127-0.684,3.242
	c-0.023,2.27,0.869,4.454,2.475,6.059C63.835,135.631,66.004,136.517,68.267,136.533z"/>
<path d="M36.608,159.659c0.829,0.754,1.782,1.36,2.817,1.792c2.624,1.124,5.638,0.847,8.014-0.737s3.79-4.259,3.762-7.114
	c-0.033-2.259-0.917-4.422-2.475-6.059c-3.422-3.159-8.696-3.159-12.117,0c-1.561,1.634-2.445,3.799-2.475,6.059
	C34.11,155.87,35.002,158.054,36.608,159.659z"/>
<path d="M71.508,171.35c-2.067-0.9-4.416-0.9-6.483,0c-2.143,0.777-3.831,2.465-4.608,4.608c-0.911,2.065-0.911,4.418,0,6.483
	c0.434,1.034,1.04,1.986,1.792,2.817c2.441,2.461,6.129,3.2,9.33,1.871s5.281-4.463,5.261-7.929
	c-0.033-2.259-0.917-4.422-2.475-6.059C73.494,172.389,72.542,171.783,71.508,171.35z"/>
<path d="M42.667,213.333c4.713,0,8.533-3.821,8.533-8.533c-0.014-1.115-0.246-2.216-0.683-3.242
	c-0.411-1.045-1.02-2.001-1.791-2.817c-0.831-0.752-1.783-1.358-2.817-1.792c-2.076-0.858-4.407-0.858-6.483,0
	c-2.143,0.777-3.831,2.465-4.608,4.608c-0.438,1.026-0.67,2.127-0.684,3.243C34.133,209.513,37.954,213.333,42.667,213.333z"/>
<path d="M68.267,238.933c4.713,0,8.533-3.82,8.533-8.533c0.02-3.467-2.059-6.601-5.261-7.931s-6.89-0.59-9.331,1.872
	c-1.561,1.634-2.445,3.799-2.475,6.059C59.733,235.113,63.554,238.933,68.267,238.933z"/>
<path d="M36.608,262.059c0.848,0.752,1.796,1.383,2.817,1.875c2.639,1.088,5.647,0.784,8.014-0.811
	c2.367-1.595,3.779-4.269,3.761-7.123c-0.016-2.262-0.902-4.432-2.475-6.059c-3.422-3.159-8.696-3.159-12.117,0
	c-1.594,1.613-2.484,3.791-2.475,6.059C34.11,258.27,35.002,260.454,36.608,262.059z"/>
<path d="M62.208,287.658c3.365,3.3,8.752,3.3,12.117,0c0.752-0.831,1.358-1.783,1.792-2.817c0.476-1.013,0.71-2.122,0.683-3.241
	c-0.033-2.259-0.917-4.422-2.475-6.059c-0.407-0.367-0.836-0.709-1.284-1.025c-0.474-0.324-0.99-0.582-1.533-0.767
	c-0.51-0.259-1.059-0.433-1.625-0.517c-2.783-0.558-5.661,0.308-7.675,2.308c-0.772,0.816-1.38,1.772-1.792,2.817
	c-0.911,2.065-0.911,4.418,0,6.483C60.85,285.875,61.456,286.827,62.208,287.658z"/>
<path d="M36.608,313.258c1.605,1.605,3.789,2.498,6.059,2.475c2.248,0.035,4.41-0.861,5.975-2.475
	c0.805-0.806,1.442-1.763,1.875-2.817c1.307-3.195,0.568-6.862-1.875-9.301c-0.372-0.406-0.805-0.752-1.283-1.025
	c-0.434-0.339-0.925-0.599-1.45-0.767c-0.51-0.259-1.059-0.433-1.625-0.517c-2.783-0.558-5.661,0.308-7.675,2.308
	c-0.754,0.829-1.36,1.782-1.792,2.817c-0.911,2.065-0.911,4.418,0,6.483C35.25,311.475,35.856,312.427,36.608,313.258z"/>
<path d="M71.539,324.869c-3.202-1.329-6.89-0.59-9.331,1.872c-1.561,1.634-2.445,3.799-2.475,6.059
	c-0.023,2.27,0.869,4.454,2.475,6.059c0.829,0.754,1.782,1.36,2.817,1.792c2.065,0.911,4.418,0.911,6.483,0
	c1.034-0.434,1.986-1.04,2.817-1.792c1.603-1.607,2.494-3.789,2.475-6.059C76.82,329.333,74.741,326.199,71.539,324.869z"/>
<path d="M42.667,366.933c1.115-0.014,2.216-0.246,3.242-0.683c1.034-0.433,1.986-1.039,2.817-1.791
	c1.603-1.607,2.494-3.789,2.475-6.059c-0.033-2.259-0.917-4.422-2.475-6.059c-3.422-3.159-8.696-3.159-12.117,0
	c-1.561,1.634-2.445,3.799-2.475,6.059c-0.022,2.27,0.87,4.453,2.475,6.058C38.213,366.063,40.397,366.955,42.667,366.933z"/>
<path d="M62.208,390.058c3.365,3.3,8.752,3.3,12.117,0c0.752-0.831,1.358-1.783,1.792-2.817c0.476-1.013,0.71-2.122,0.683-3.241
	c0.02-3.467-2.059-6.601-5.261-7.931s-6.89-0.59-9.331,1.872c-0.772,0.816-1.38,1.772-1.792,2.817
	c-0.911,2.065-0.911,4.418,0,6.483C60.85,388.275,61.456,389.227,62.208,390.058z"/>
<path d="M48.725,403.541c-3.421-3.158-8.695-3.158-12.117,0c-0.772,0.816-1.38,1.772-1.792,2.817
	c-0.911,2.065-0.911,4.418,0,6.483c0.434,1.034,1.04,1.986,1.792,2.817c3.365,3.3,8.752,3.3,12.117,0
	c0.752-0.831,1.358-1.783,1.792-2.817c0.911-2.065,0.911-4.418,0-6.483C50.106,405.313,49.497,404.357,48.725,403.541z"/>
<path d="M74.325,429.141c-3.421-3.158-8.695-3.158-12.117,0c-0.772,0.816-1.38,1.772-1.792,2.817
	c-0.438,1.026-0.67,2.127-0.683,3.242c-0.031,1.119,0.203,2.23,0.683,3.242c0.434,1.034,1.04,1.986,1.792,2.817
	c0.848,0.752,1.796,1.383,2.817,1.875c3.2,1.248,6.834,0.516,9.3-1.875c0.752-0.831,1.358-1.783,1.792-2.817
	c0.911-2.065,0.911-4.418,0-6.483C75.686,430.924,75.08,429.971,74.325,429.141z"/>
<path d="M47.358,453.717c-0.434-0.339-0.925-0.599-1.45-0.767c-0.51-0.259-1.059-0.433-1.625-0.517
	c-2.781-0.517-5.64,0.343-7.675,2.308c-1.561,1.634-2.445,3.799-2.475,6.059c0,3.049,1.626,5.866,4.267,7.39
	c2.64,1.524,5.893,1.524,8.533,0c2.64-1.524,4.267-4.341,4.267-7.39c-0.033-2.259-0.917-4.422-2.475-6.059
	C48.306,454.354,47.848,454.011,47.358,453.717z"/>
<path d="M440.491,59.051c2.624,1.124,5.638,0.847,8.013-0.737c2.375-1.584,3.79-4.259,3.762-7.114
	c-0.033-2.259-0.917-4.422-2.475-6.059c-2.456-2.417-6.122-3.124-9.3-1.791c-1.035,0.432-1.987,1.038-2.817,1.792
	c-0.772,0.816-1.38,1.772-1.792,2.817c-0.437,1.025-0.669,2.127-0.683,3.241c-0.023,2.27,0.869,4.454,2.475,6.059
	C438.504,58.013,439.457,58.619,440.491,59.051z"/>
<path d="M474.025,69.717c-0.434-0.339-0.925-0.599-1.45-0.767c-0.51-0.259-1.059-0.433-1.625-0.517
	c-2.783-0.558-5.661,0.308-7.675,2.308c-1.561,1.634-2.445,3.799-2.475,6.059c-0.022,2.27,0.87,4.453,2.475,6.058
	c1.605,1.605,3.788,2.497,6.058,2.475c1.115-0.014,2.216-0.246,3.242-0.683c1.034-0.433,1.986-1.039,2.817-1.791
	c1.603-1.607,2.494-3.789,2.475-6.059c-0.033-2.259-0.917-4.422-2.475-6.059C474.973,70.354,474.514,70.011,474.025,69.717z"/>
<path d="M437.675,108.458c0.829,0.754,1.782,1.36,2.817,1.792c3.175,1.362,6.859,0.652,9.3-1.792
	c0.752-0.831,1.358-1.783,1.792-2.817c0.476-1.013,0.71-2.123,0.683-3.242c-0.033-2.259-0.917-4.422-2.475-6.059
	c-2.475-2.379-6.118-3.081-9.3-1.791c-1.045,0.412-2.001,1.02-2.817,1.792c-1.561,1.634-2.445,3.798-2.475,6.058
	c0.014,1.115,0.246,2.216,0.683,3.242C436.317,106.675,436.923,107.628,437.675,108.458z"/>
<path d="M474.025,120.917c-0.434-0.339-0.925-0.599-1.45-0.767c-0.51-0.259-1.059-0.433-1.625-0.517
	c-2.783-0.544-5.654,0.319-7.675,2.308c-1.561,1.634-2.445,3.799-2.475,6.059c-0.018,1.109,0.183,2.211,0.592,3.242
	c0.5,1.018,1.133,1.966,1.883,2.817c0.829,0.754,1.782,1.36,2.817,1.792c3.175,1.362,6.859,0.652,9.301-1.792
	c0.752-0.831,1.358-1.783,1.792-2.817c0.437-1.026,0.669-2.127,0.683-3.242c-0.033-2.259-0.917-4.422-2.475-6.059
	C474.967,121.6,474.533,121.259,474.025,120.917z"/>
<path d="M437.675,159.658c0.829,0.754,1.782,1.36,2.817,1.792c3.175,1.362,6.859,0.652,9.3-1.792
	c0.752-0.831,1.358-1.783,1.792-2.817c0.476-1.013,0.71-2.123,0.683-3.242c-0.033-2.259-0.917-4.422-2.475-6.059
	c-0.425-0.341-0.859-0.683-1.284-1.025c-0.474-0.324-0.99-0.582-1.533-0.767c-0.484-0.245-1-0.419-1.533-0.517
	c-1.664-0.348-3.394-0.167-4.95,0.517c-1.035,0.432-1.987,1.038-2.817,1.792c-1.561,1.634-2.445,3.799-2.475,6.058
	c0.014,1.115,0.246,2.216,0.683,3.242C436.317,157.875,436.923,158.828,437.675,159.658z"/>
<path d="M475.392,173.141c-0.425-0.341-0.858-0.683-1.367-1.025c-0.434-0.339-0.925-0.599-1.45-0.767
	c-0.51-0.259-1.059-0.433-1.625-0.517c-2.783-0.558-5.662,0.308-7.676,2.308c-0.754,0.829-1.36,1.782-1.792,2.817
	c-0.48,1.012-0.714,2.123-0.683,3.242c-0.018,1.109,0.183,2.21,0.592,3.242c0.5,1.018,1.133,1.966,1.883,2.817
	c3.365,3.3,8.752,3.3,12.117,0c0.752-0.831,1.358-1.783,1.792-2.817c0.911-2.065,0.911-4.418,0-6.483
	C476.752,174.924,476.146,173.971,475.392,173.141z"/>
<path d="M440.491,212.734c2.639,1.088,5.647,0.784,8.014-0.811c2.367-1.595,3.779-4.269,3.761-7.123
	c0.027-1.119-0.207-2.229-0.683-3.242c-0.431-1.035-1.037-1.987-1.791-2.817c-2.455-2.417-6.122-3.124-9.3-1.792
	c-2.143,0.777-3.831,2.465-4.608,4.608c-0.438,1.026-0.67,2.127-0.684,3.243c-0.023,2.27,0.869,4.454,2.475,6.059
	C438.523,211.611,439.471,212.242,440.491,212.734z"/>
<path d="M464.601,237.463c2.353,1.585,5.335,1.91,7.974,0.87c1.02-0.494,1.968-1.125,2.817-1.875
	c2.444-2.441,3.154-6.125,1.792-9.3c-0.412-1.045-1.02-2.002-1.792-2.817c-0.419-0.387-0.877-0.731-1.367-1.025
	c-0.434-0.339-0.925-0.599-1.45-0.767c-0.51-0.259-1.059-0.433-1.625-0.517c-2.783-0.558-5.662,0.308-7.676,2.308
	c-0.772,0.816-1.38,1.772-1.792,2.817c-0.48,1.012-0.714,2.123-0.683,3.242C460.827,233.237,462.249,235.878,464.601,237.463z"/>
<path d="M440.491,263.851c1.013,0.476,2.123,0.71,3.242,0.683c2.269,0.019,4.452-0.872,6.059-2.475
	c0.752-0.831,1.358-1.783,1.792-2.817c0.476-1.013,0.71-2.123,0.683-3.242c-0.033-2.259-0.917-4.422-2.475-6.059
	c-2.475-2.379-6.118-3.081-9.3-1.791c-1.045,0.412-2.001,1.02-2.817,1.792c-1.561,1.634-2.445,3.798-2.475,6.058
	c-0.023,2.27,0.869,4.454,2.475,6.059C438.504,262.813,439.457,263.419,440.491,263.851z"/>
<path d="M463.275,287.659c2.441,2.444,6.125,3.154,9.3,1.792c2.143-0.777,3.831-2.465,4.608-4.608
	c0.911-2.065,0.911-4.418,0-6.483c-0.411-1.045-1.019-2.002-1.791-2.818c-0.419-0.388-0.877-0.731-1.367-1.025
	c-0.434-0.339-0.925-0.599-1.45-0.767c-0.51-0.259-1.059-0.433-1.625-0.517c-2.783-0.544-5.655,0.32-7.676,2.308
	c-0.772,0.816-1.38,1.772-1.792,2.817c-0.48,1.012-0.714,2.123-0.683,3.242c-0.018,1.109,0.183,2.21,0.592,3.242
	C461.892,285.86,462.525,286.807,463.275,287.659z"/>
<path d="M437.675,313.258c0.829,0.754,1.782,1.36,2.817,1.792c3.175,1.362,6.859,0.652,9.3-1.792
	c0.752-0.831,1.358-1.783,1.792-2.817c0.476-1.013,0.71-2.123,0.683-3.242c-0.033-2.259-0.917-4.422-2.475-6.059
	c-2.456-2.417-6.122-3.124-9.3-1.791c-1.045,0.412-2.001,1.02-2.817,1.792c-1.561,1.634-2.445,3.798-2.475,6.058
	c0.014,1.115,0.246,2.216,0.683,3.242C436.317,311.475,436.923,312.428,437.675,313.258z"/>
<path d="M475.392,326.741c-0.425-0.341-0.858-0.683-1.367-1.025c-0.434-0.339-0.925-0.599-1.45-0.767
	c-0.51-0.259-1.059-0.433-1.625-0.517c-2.781-0.517-5.641,0.343-7.676,2.308c-0.754,0.829-1.36,1.782-1.792,2.817
	c-0.48,1.012-0.714,2.123-0.683,3.242c-0.018,1.109,0.183,2.211,0.592,3.242c0.5,1.018,1.133,1.966,1.883,2.817
	c3.365,3.3,8.752,3.3,12.117,0c0.752-0.831,1.358-1.783,1.792-2.817c0.911-2.065,0.911-4.418,0-6.483
	C476.752,328.524,476.146,327.571,475.392,326.741z"/>
<path d="M440.491,366.251c2.065,0.911,4.418,0.911,6.483,0c1.034-0.434,1.986-1.04,2.817-1.792
	c1.603-1.607,2.494-3.789,2.475-6.059c0.027-1.119-0.207-2.229-0.683-3.242c-0.431-1.035-1.037-1.987-1.791-2.817
	c-3.4-3.211-8.716-3.211-12.117,0c-0.754,0.829-1.36,1.782-1.792,2.817c-0.438,1.026-0.67,2.127-0.683,3.242
	c-0.023,2.27,0.869,4.454,2.475,6.059C438.504,365.213,439.457,365.819,440.491,366.251z"/>
<path d="M469.333,392.533c1.115-0.014,2.216-0.246,3.242-0.683c1.034-0.434,1.986-1.04,2.817-1.792
	c2.444-2.441,3.154-6.125,1.792-9.3c-0.412-1.045-1.02-2.001-1.792-2.817c-0.419-0.387-0.877-0.731-1.367-1.025
	c-0.434-0.339-0.925-0.599-1.45-0.767c-0.51-0.259-1.059-0.433-1.625-0.517c-2.783-0.558-5.662,0.308-7.676,2.308
	c-0.772,0.816-1.38,1.772-1.792,2.817c-0.48,1.012-0.714,2.123-0.683,3.242c-0.023,2.27,0.869,4.454,2.475,6.059
	C464.901,391.631,467.071,392.517,469.333,392.533z"/>
<path d="M440.491,417.451c2.624,1.124,5.638,0.847,8.013-0.737c2.375-1.584,3.79-4.259,3.762-7.114
	c-0.013-0.546-0.071-1.089-0.175-1.625c-0.077-0.564-0.249-1.11-0.508-1.617c-0.188-0.545-0.445-1.063-0.767-1.542l-1.025-1.275
	c-3.4-3.211-8.716-3.211-12.117,0l-1.025,1.275c-0.325,0.477-0.583,0.995-0.767,1.542c-0.259,0.507-0.433,1.053-0.517,1.617
	c-0.097,0.537-0.153,1.08-0.167,1.625c-0.023,2.27,0.869,4.454,2.475,6.059C438.504,416.413,439.457,417.019,440.491,417.451z"/>
<path d="M477.183,431.958c-0.188-0.545-0.445-1.063-0.767-1.542l-1.025-1.275c-0.419-0.387-0.877-0.731-1.367-1.025
	c-0.434-0.339-0.925-0.599-1.45-0.767c-0.51-0.259-1.059-0.433-1.625-0.517c-2.783-0.558-5.662,0.308-7.676,2.308
	c-0.367,0.404-0.709,0.83-1.025,1.275c-0.325,0.477-0.583,0.995-0.767,1.542c-0.246,0.483-0.42,1-0.517,1.533
	c-0.097,0.565-0.152,1.136-0.166,1.709c-0.018,1.109,0.183,2.211,0.592,3.242c0.481,1.004,1.116,1.927,1.883,2.733
	c1.574,1.661,3.77,2.588,6.058,2.558c1.115-0.014,2.216-0.246,3.242-0.683c1.053-0.433,2.011-1.07,2.817-1.875
	c1.546-1.61,2.43-3.743,2.475-5.975c-0.013-0.573-0.071-1.144-0.175-1.708C477.602,432.957,477.431,432.44,477.183,431.958z"/>
<path d="M449.792,454.741c-2.455-2.417-6.122-3.124-9.3-1.792c-1.035,0.432-1.987,1.038-2.817,1.792
	c-0.772,0.816-1.38,1.772-1.792,2.817c-0.911,2.065-0.911,4.418,0,6.483c0.434,1.034,1.04,1.986,1.792,2.817
	c0.829,0.754,1.782,1.36,2.817,1.792c3.174,1.362,6.859,0.652,9.3-1.791c0.752-0.831,1.358-1.783,1.792-2.817
	c0.911-2.065,0.911-4.418,0-6.483C451.172,456.514,450.564,455.557,449.792,454.741z"/>
</svg>