<svg xmlns="http://www.w3.org/2000/svg" viewBox="0 0 512.212 512.212">
<g transform="translate(-1)">
	<path d="M402.173,324.373c-4.713,0-8.533,3.821-8.533,8.533v145.408c-0.014,9.231-7.494,16.711-16.725,16.725H137.298
		c-9.231-0.014-16.711-7.494-16.725-16.725V332.906c0-4.713-3.82-8.533-8.533-8.533s-8.533,3.821-8.533,8.533v145.408
		c0.023,18.653,15.139,33.769,33.792,33.792h239.616c18.653-0.023,33.768-15.139,33.792-33.792V332.906
		C410.706,328.193,406.886,324.373,402.173,324.373z"/>
	<path d="M112.039,187.839c4.713,0,8.533-3.82,8.533-8.533V33.889c0.014-9.23,7.495-16.707,16.725-16.717h239.616
		c9.23,0.009,16.711,7.487,16.725,16.717v145.417c0,4.713,3.821,8.533,8.533,8.533s8.533-3.82,8.533-8.533V33.889
		c-0.023-18.652-15.14-33.765-33.792-33.783H137.298c-18.652,0.019-33.768,15.132-33.792,33.783v145.417
		C103.506,184.019,107.327,187.839,112.039,187.839z"/>
	<path d="M257.106,68.373c-47.128,0-85.333,38.205-85.333,85.333c0,47.128,38.205,85.333,85.333,85.333
		s85.333-38.205,85.333-85.333C342.388,106.599,304.213,68.424,257.106,68.373z M257.106,221.973
		c-37.703,0-68.267-30.564-68.267-68.267c0-37.703,30.564-68.267,68.267-68.267s68.267,30.564,68.267,68.267
		C325.33,191.391,294.791,221.93,257.106,221.973z"/>
	<path d="M257.106,290.239c-4.713,0-8.533,3.82-8.533,8.533v34.133c0,4.713,3.82,8.533,8.533,8.533s8.533-3.821,8.533-8.533
		v-34.133C265.639,294.06,261.819,290.239,257.106,290.239z"/>
	<path d="M231.506,384.106h-34.133c-4.713,0-8.533,3.821-8.533,8.533c0,4.713,3.82,8.533,8.533,8.533h34.133
		c4.713,0,8.533-3.821,8.533-8.533C240.039,387.927,236.219,384.106,231.506,384.106z"/>
	<path d="M316.839,384.106h-34.133c-4.713,0-8.533,3.821-8.533,8.533c0,4.713,3.82,8.533,8.533,8.533h34.133
		c4.713,0,8.533-3.821,8.533-8.533C325.373,387.927,321.552,384.106,316.839,384.106z"/>
	<path d="M291.239,153.706c0,18.851-15.282,34.133-34.133,34.133c-18.851,0-34.133-15.282-34.133-34.133
		s15.282-34.133,34.133-34.133c4.713,0,8.533-3.82,8.533-8.533s-3.82-8.533-8.533-8.533c-28.277,0-51.2,22.923-51.2,51.2
		s22.923,51.2,51.2,51.2s51.2-22.923,51.2-51.2c0-4.713-3.82-8.533-8.533-8.533S291.239,148.993,291.239,153.706z"/>
	<path d="M487.506,341.439c-3.804,0.02-7.554,0.895-10.974,2.56l-51.26-51.268c-1.601-1.597-3.771-2.494-6.033-2.492h-42.667
		v-25.6h86.903c4.156,11.755,16.176,18.806,28.465,16.698c12.289-2.108,21.271-12.763,21.271-25.231s-8.982-23.123-21.271-25.231
		s-24.309,4.943-28.465,16.698h-86.903v-25.6h42.667c2.263,0,4.433-0.9,6.033-2.5l51.268-51.26
		c3.416,1.666,7.164,2.541,10.965,2.56c14.138,0,25.6-11.462,25.6-25.6s-11.461-25.6-25.6-25.6s-25.6,11.461-25.6,25.6
		c0.016,3.801,0.891,7.55,2.56,10.965l-48.76,48.768h-39.134V57.45c-0.014-12.813-10.398-23.197-23.211-23.211H160.85
		c-12.813,0.014-23.197,10.398-23.211,23.211v147.456H98.506l-48.759-48.768c1.669-3.415,2.544-7.164,2.56-10.965
		c0-14.138-11.462-25.6-25.6-25.6s-25.6,11.461-25.6,25.6s11.461,25.6,25.6,25.6c3.801-0.019,7.549-0.894,10.965-2.56
		l51.268,51.268c1.601,1.597,3.771,2.494,6.033,2.492h42.667v25.6H50.736c-4.156-11.755-16.176-18.806-28.465-16.698
		C9.982,232.983,1,243.638,1,256.106s8.982,23.123,21.271,25.231c12.289,2.108,24.309-4.943,28.465-16.698h86.903v25.6H94.973
		c-2.262-0.002-4.432,0.894-6.033,2.492l-51.26,51.268c-3.42-1.665-7.17-2.54-10.974-2.56c-14.138,0-25.6,11.461-25.6,25.6
		s11.461,25.6,25.6,25.6s25.6-11.461,25.6-25.6c-0.019-3.804-0.894-7.554-2.56-10.974l48.759-48.759h39.134v147.456
		c0.014,12.813,10.398,23.197,23.211,23.211h192.512c12.813-0.014,23.197-10.398,23.211-23.211V307.306h39.134l48.76,48.759
		c-1.665,3.42-2.54,7.17-2.56,10.974c0,14.138,11.461,25.6,25.6,25.6s25.6-11.461,25.6-25.6S501.645,341.439,487.506,341.439z
		 M487.506,247.573c4.713,0,8.533,3.82,8.533,8.533s-3.82,8.533-8.533,8.533s-8.533-3.82-8.533-8.533
		S482.793,247.573,487.506,247.573z M479.732,141.866c1.318-3.136,4.373-5.19,7.774-5.227c3.852-0.001,7.227,2.58,8.236,6.297
		c1.01,3.717-0.597,7.65-3.92,9.598c-3.323,1.948-7.539,1.428-10.29-1.269v-0.119l-0.094-0.068
		C479.085,148.622,478.414,145.003,479.732,141.866z M32.799,151.146h-0.12l-0.06,0.094c-2.455,2.36-6.078,3.035-9.218,1.716
		c-3.14-1.319-5.195-4.378-5.229-7.783c-0.001-3.852,2.58-7.227,6.297-8.236c3.717-1.009,7.65,0.597,9.598,3.92
		C36.016,144.179,35.496,148.396,32.799,151.146z M26.706,264.639c-4.713,0-8.533-3.82-8.533-8.533s3.82-8.533,8.533-8.533
		s8.533,3.82,8.533,8.533S31.419,264.639,26.706,264.639z M34.487,370.35c-1.32,3.137-4.378,5.19-7.781,5.223
		c-3.849-0.003-7.22-2.584-8.228-6.299c-1.008-3.715,0.596-7.645,3.916-9.594c3.32-1.949,7.533-1.433,10.286,1.258v0.128
		l0.102,0.068C35.137,363.591,35.807,367.213,34.487,370.35z M359.506,454.762c-0.005,3.391-2.753,6.139-6.144,6.144H160.85
		c-3.391-0.005-6.139-2.753-6.144-6.144V57.45c0.005-3.391,2.753-6.139,6.144-6.144h192.512c3.391,0.005,6.139,2.753,6.144,6.144
		V454.762z M489.741,375.267c-3.715,1.008-7.645-0.596-9.594-3.916c-1.949-3.32-1.433-7.533,1.258-10.286h0.128l0.068-0.102
		c2.457-2.355,6.078-3.026,9.215-1.706c3.137,1.32,5.19,4.378,5.223,7.781C496.036,370.889,493.456,374.259,489.741,375.267z"/>
</g>
</svg>