<svg xmlns="http://www.w3.org/2000/svg" viewBox="0 0 100 100"><path d="M25.185,69.463c-1.227,0-2.222,0.979-2.222,2.187c0,2.611-2.16,4.735-4.815,4.735
c-1.227,0-2.222,0.979-2.222,2.186c0,1.207,0.995,2.187,2.222,2.187c5.105,0,9.259-4.086,9.259-9.108
C27.407,70.442,26.413,69.463,25.185,69.463z M57.037,69.463c-1.227,0-2.222,0.979-2.222,2.187c0,2.611-2.16,4.735-4.815,4.735
c-1.227,0-2.222,0.979-2.222,2.186c0,1.207,0.995,2.187,2.222,2.187c5.105,0,9.259-4.086,9.259-9.108
C59.259,70.442,58.265,69.463,57.037,69.463z M88.889,69.463c-1.227,0-2.222,0.979-2.222,2.187c0,2.611-2.16,4.735-4.815,4.735
c-1.227,0-2.222,0.979-2.222,2.186c0,1.207,0.995,2.187,2.222,2.187c5.106,0,9.259-4.086,9.259-9.108
C91.111,70.442,90.116,69.463,88.889,69.463z M25.185,46.44c-1.227,0-2.222,0.978-2.222,2.186c0,2.612-2.16,4.736-4.815,4.736
c-1.227,0-2.222,0.978-2.222,2.186c0,1.207,0.995,2.185,2.222,2.185c5.105,0,9.259-4.085,9.259-9.107
C27.407,47.418,26.413,46.44,25.185,46.44z M57.037,46.44c-1.227,0-2.222,0.978-2.222,2.186c0,2.612-2.16,4.736-4.815,4.736
c-1.227,0-2.222,0.978-2.222,2.186c0,1.207,0.995,2.185,2.222,2.185c5.105,0,9.259-4.085,9.259-9.107
C59.259,47.418,58.264,46.44,57.037,46.44z M88.889,46.44c-1.227,0-2.222,0.978-2.222,2.186c0,2.612-2.16,4.736-4.815,4.736
c-1.227,0-2.222,0.978-2.222,2.186c0,1.207,0.995,2.185,2.222,2.185c5.106,0,9.259-4.085,9.259-9.107
C91.111,47.418,90.116,46.44,88.889,46.44z M18.148,35.803c5.105,0,9.259-4.086,9.259-9.109c0-1.207-0.995-2.186-2.222-2.186
s-2.222,0.979-2.222,2.186c0,2.612-2.16,4.736-4.815,4.736c-1.227,0-2.222,0.978-2.222,2.186
C15.926,34.824,16.921,35.803,18.148,35.803z M57.037,24.508c-1.227,0-2.222,0.979-2.222,2.186c0,2.612-2.16,4.736-4.815,4.736
c-1.227,0-2.222,0.978-2.222,2.186c0,1.208,0.995,2.187,2.222,2.187c5.105,0,9.259-4.086,9.259-9.109
C59.259,25.487,58.265,24.508,57.037,24.508z M97.778,9.5H2.222C0.995,9.5,0,10.478,0,11.685V71.65
C0,81.492,8.141,89.5,18.148,89.5c6.859,0,12.841-3.763,15.926-9.301C37.159,85.737,43.141,89.5,50,89.5
s12.841-3.763,15.926-9.301c3.085,5.537,9.067,9.301,15.926,9.301C91.859,89.5,100,81.492,100,71.65V11.685
C100,10.478,99.005,9.5,97.778,9.5z M31.852,71.65c0,7.431-6.148,13.479-13.704,13.479c-7.556,0-13.704-6.048-13.704-13.479
V60.309c3.33,3.774,8.237,6.167,13.704,6.167c5.467,0,10.374-2.394,13.704-6.167V71.65z M31.852,48.626
c0,7.433-6.148,13.479-13.704,13.479c-7.556,0-13.704-6.047-13.704-13.479V38.378c3.33,3.774,8.237,6.167,13.704,6.167
c5.467,0,10.374-2.394,13.704-6.167V48.626z M31.852,26.694c0,7.433-6.148,13.479-13.704,13.479
c-7.556,0-13.703-6.047-13.703-13.479V13.871h27.407V26.694z M63.704,71.65c0,7.431-6.147,13.479-13.704,13.479
S36.296,79.081,36.296,71.65V60.309c3.33,3.774,8.237,6.167,13.704,6.167c5.467,0,10.374-2.394,13.704-6.167V71.65z
 M63.704,48.626c0,7.433-6.147,13.479-13.704,13.479s-13.704-6.047-13.704-13.479V38.378c3.33,3.774,8.237,6.167,13.704,6.167
c5.467,0,10.374-2.394,13.704-6.167V48.626z M50,40.173c-7.556,0-13.704-6.047-13.704-13.479V13.871h27.407v12.823h0
C63.704,34.126,57.556,40.173,50,40.173z M95.555,71.65c0,7.431-6.147,13.479-13.704,13.479S68.148,79.081,68.148,71.65V60.309
c3.33,3.774,8.237,6.167,13.704,6.167c5.467,0,10.374-2.394,13.704-6.167V71.65z M95.555,48.626
c0,7.433-6.147,13.479-13.704,13.479s-13.704-6.047-13.704-13.479V38.378c3.33,3.774,8.237,6.167,13.704,6.167
c5.467,0,10.374-2.394,13.704-6.167V48.626z M95.556,26.694L95.556,26.694c0,7.433-6.148,13.479-13.704,13.479
s-13.704-6.047-13.704-13.479V13.871h27.408V26.694z M81.852,35.803c5.105,0,9.259-4.086,9.259-9.109
c0-1.207-0.995-2.186-2.222-2.186s-2.222,0.979-2.222,2.186c0,2.612-2.16,4.736-4.815,4.736c-1.227,0-2.222,0.978-2.222,2.186
C79.63,34.824,80.624,35.803,81.852,35.803z"/>
</svg>