<svg xmlns="http://www.w3.org/2000/svg" viewBox="0 0 100 100"><path d="M91.429,33.333V31.25c0-7.419-4.437-14.322-12.493-19.439c-7.267-4.617-16.74-7.29-26.864-7.611V0h-4.143v4.2c-10.125,0.321-19.597,2.995-26.864,7.611C13.008,16.928,8.571,23.832,8.571,31.25v2.083h39.357v20.834H8.571V68.75h6.214V100h4.143V82.113L32.215,68.75h15.713V100h4.143V68.75h15.713l13.287,13.363V100h4.143V68.75h6.214V54.167H52.071V33.333H91.429zM18.928,76.221V68.75h7.428L18.928,76.221zM81.071,76.221l-7.428-7.471h7.428V76.221zM87.286,64.584H12.714v-6.251h74.572V64.584zM50,8.334c2.66,0,5.373,2.264,7.445,6.21c2.067,3.94,3.305,9.071,3.554,14.623H39.001c0.249-5.552,1.487-10.683,3.554-14.623C44.627,10.597,47.34,8.334,50,8.334zM87.131,29.167H65.148c-0.345-8.451-2.775-15.709-6.403-20.195c6.769,1.006,12.967,3.179,17.978,6.362C82.733,19.151,86.36,24.001,87.131,29.167z M23.276,15.334c5.011-3.183,11.209-5.356,17.978-6.362c-3.628,4.486-6.058,11.744-6.403,20.195H12.869C13.64,24.001,17.267,19.151,23.276,15.334z"/>
</svg>