<svg xmlns="http://www.w3.org/2000/svg" viewBox="0 0 100 100"><path d="M92.715,88.101h-5.13V37.057C87.585,16.624,70.725,0,50,0c-7.893,0-15.447,2.385-21.846,6.899
c-0.708,0.499-0.876,1.477-0.375,2.183c0.501,0.706,1.481,0.872,2.189,0.373C35.834,5.318,42.76,3.133,50,3.133
c18.993,0,34.444,15.218,34.444,33.924V88.1H15.555V37.057c0-8.623,3.288-16.842,9.258-23.142
c0.596-0.628,0.568-1.619-0.063-2.213c-0.631-0.594-1.624-0.566-2.22,0.063c-6.523,6.884-10.116,15.866-10.116,25.292v51.044
h-5.13c-0.867,0-1.57,0.701-1.57,1.565v8.769c0,0.864,0.703,1.565,1.57,1.565h65.33c0.867,0,1.57-0.701,1.57-1.565
c0-0.865-0.703-1.566-1.57-1.566H8.855v-5.638h82.29v5.638H80.99c-0.867,0-1.57,0.701-1.57,1.566c0,0.864,0.703,1.565,1.57,1.565
h11.726c0.867,0,1.571-0.701,1.571-1.565v-8.769C94.286,88.802,93.583,88.101,92.715,88.101z M50,6.263
c-17.261,0-31.304,13.813-31.304,30.794c0,0.865,0.703,1.566,1.571,1.566h59.467c0.867,0,1.57-0.701,1.57-1.566
C81.304,20.077,67.261,6.263,50,6.263z M21.882,35.49C22.71,20.963,35.006,9.395,50,9.395S77.289,20.963,78.118,35.49H21.882z
M79.733,42.172H54.188c-0.867,0-1.571,0.701-1.571,1.566v39.666c0,0.864,0.703,1.565,1.571,1.565h25.545
c0.867,0,1.57-0.701,1.57-1.565V43.738C81.304,42.872,80.6,42.172,79.733,42.172z M78.163,81.837H55.758V45.303h22.405V81.837z
M20.267,42.172c-0.867,0-1.571,0.701-1.571,1.566v39.666c0,0.864,0.703,1.565,1.571,1.565h25.546
c0.867,0,1.571-0.701,1.571-1.565V43.738c0-0.865-0.703-1.566-1.571-1.566H20.267z M44.242,81.837H21.837V45.303h22.405V81.837z
M59.987,17.578L48.68,28.851c-0.613,0.611-0.613,1.603,0,2.214c0.307,0.305,0.709,0.459,1.11,0.459
c0.402,0,0.804-0.153,1.11-0.459l11.307-11.273c0.613-0.612,0.613-1.604,0-2.215C61.595,16.966,60.601,16.966,59.987,17.578z
M51.32,17.578c-0.613-0.612-1.608-0.612-2.221,0L37.792,28.851c-0.613,0.611-0.613,1.603,0,2.214
c0.307,0.305,0.709,0.459,1.11,0.459s0.804-0.153,1.11-0.459l11.307-11.273C51.933,19.181,51.933,18.19,51.32,17.578z
M66.059,65.722c0.605,0.602,1.616,0.602,2.221,0l6.701-6.682c0.613-0.612,0.613-1.603,0-2.215c-0.614-0.611-1.608-0.611-2.221,0
l-6.701,6.682C65.446,64.119,65.446,65.11,66.059,65.722z M59.631,66.18c0.402,0,0.804-0.152,1.111-0.457l6.701-6.682
c0.613-0.612,0.613-1.603,0-2.215c-0.613-0.611-1.608-0.611-2.221,0l-6.7,6.682C57.554,64.471,58.258,66.18,59.631,66.18z
M31.72,65.722c0.605,0.602,1.616,0.602,2.221,0l6.701-6.682c0.613-0.612,0.613-1.603,0-2.215c-0.613-0.611-1.608-0.611-2.221,0
l-6.701,6.682C31.106,64.119,31.106,65.11,31.72,65.722z M25.292,66.18c0.402,0,0.804-0.152,1.11-0.457l6.701-6.682
c0.613-0.612,0.613-1.603,0-2.215c-0.613-0.611-1.608-0.611-2.221,0l-6.701,6.682C23.214,64.471,23.918,66.18,25.292,66.18z"/>
</svg>