<?xml version="1.0" encoding="UTF-8"?>
<!DOCTYPE svg PUBLIC "-//W3C//DTD SVG 1.1//EN" "http://www.w3.org/Graphics/SVG/1.1/DTD/svg11.dtd">
<!-- Creator: CorelDRAW X7 -->
<svg xmlns="http://www.w3.org/2000/svg" xml:space="preserve" width="100px" height="100px" version="1.1" shape-rendering="geometricPrecision" text-rendering="geometricPrecision" image-rendering="optimizeQuality" fill-rule="evenodd" clip-rule="evenodd"
viewBox="0 0 1000 1000"
 xmlns:xlink="http://www.w3.org/1999/xlink">
 <g id="РЎР_x00bb_РѕР_x2116__x0020_1">
  <metadata id="CorelCorpID_0Corel-Layer"/>
  <path fill="#FF9F00" fill-rule="nonzero" d="M978 826l-163 0 0 -370c0,-7 -6,-14 -13,-18 -6,-4 -13,-4 -19,0l-73 41 0 -327c0,-12 -15,-20 -26,-20l-347 0c-11,0 -15,8 -15,20l0 186 -120 122c-4,4 -6,10 -6,15l0 351 -174 0c-11,0 -21,9 -21,21 0,11 10,21 21,21l189 0c12,0 27,-11 27,-23l0 -361 84 -86 0 447c0,12 4,23 15,23l137 0c11,0 26,-11 26,-23l0 -368c0,-5 -2,-11 -6,-15l-130 -129 0 -159 304 0 0 328 -73 41c-7,4 -11,11 -11,18l0 284c0,12 4,23 16,23l84 0c11,0 26,-11 26,-23l0 -318 63 -35 0 353c0,12 4,23 16,23l189 0c11,0 21,-10 21,-21 0,-12 -10,-21 -21,-21zm-520 -340l0 0 0 340 -94 0 0 -433 94 93zm210 340l0 0 -42 0 0 -252 42 -24 0 276z"/>
 </g>
</svg>
