<svg xmlns="http://www.w3.org/2000/svg"><symbol id="bricks" viewBox="0 0 100 100"><path d="M46.853 33.088H21.842V58.61H-.042v31.903H100V7.566H46.853v25.522zm-18.759 6.38H68.736V58.61H28.094V39.468zm18.759 44.663H6.21V64.99h40.643v19.141zm46.894 0H53.105V64.99h40.643v19.141zm0-25.521H74.989V39.468h18.758V58.61zM53.105 13.946h40.642v19.142H53.105V13.946z"/></symbol><symbol id="credit-bag" viewBox="0 0 100 100"><path d="M89.59 55.357c-2.241-5.184-5.594-10.579-9.965-16.033a1.442 1.442 0 0 0-2.018-.227 1.42 1.42 0 0 0-.229 2.005c4.211 5.256 7.432 10.431 9.573 15.382 2.593 5.997 3.606 11.696 3.012 16.938-.615 5.423-3.03 10.003-7.178 13.615-3.386 2.948-7.934 5.281-13.519 6.935-9.66 2.86-19.136 2.673-19.231 2.671a.794.794 0 0 0-.069 0c-.096.001-9.573.189-19.232-2.671-5.585-1.654-10.133-3.987-13.519-6.935-4.148-3.611-6.563-8.192-7.178-13.615-.95-8.375 2.151-17.739 9.215-27.833 5.341-7.631 11.841-14.013 15.973-17.733h29.549a121.988 121.988 0 0 1 6.777 6.589 1.443 1.443 0 0 0 2.03.058 1.42 1.42 0 0 0 .059-2.017 124.347 124.347 0 0 0-5.569-5.496 4.439 4.439 0 0 0 1.829-3.585c0-2.454-2.01-4.451-4.48-4.451h-.41c1.616-2.35 3.718-5.587 5.273-8.62 2.144-4.183 2.771-6.979 1.974-8.802C71.784.451 70.81-.25 69.515-.44c-1.922-.282-4.458.485-7.669 1.455C58.222 2.112 54.113 3.354 50 3.354c-4.114 0-8.222-1.243-11.847-2.338-3.211-.971-5.747-1.737-7.669-1.455-1.295.19-2.269.89-2.742 1.972-.797 1.823-.169 4.62 1.975 8.802 1.554 3.033 3.657 6.27 5.273 8.62h-.41c-2.47 0-4.48 1.997-4.48 4.451 0 1.469.72 2.773 1.828 3.584-9.949 9.217-26.881 27.914-24.745 46.751 1.248 11.008 9.13 18.956 22.794 22.985 9.887 2.915 19.273 2.786 20.023 2.77.086.002.285.005.585.005 2.322 0 10.683-.195 19.437-2.775 13.664-4.029 21.546-11.976 22.795-22.985.651-5.741-.434-11.926-3.227-18.384zM30.377 2.669c.039-.089.097-.223.526-.286 1.284-.188 3.775.565 6.413 1.362C40.944 4.842 45.459 6.207 50 6.207s9.055-1.365 12.683-2.462c2.638-.797 5.13-1.55 6.413-1.362.429.063.487.197.526.286.128.292 1.004 3.197-7.363 15.224a6.55 6.55 0 0 0-.601 1.061H38.342a6.582 6.582 0 0 0-.601-1.061C29.373 5.867 30.25 2.961 30.377 2.669zm4.203 19.139h30.84c.886 0 1.607.716 1.607 1.597s-.721 1.597-1.607 1.597H34.58a1.604 1.604 0 0 1-1.608-1.597 1.605 1.605 0 0 1 1.608-1.597zm-4.571 44.236a1.436 1.436 0 0 0-1.714-1.083 1.428 1.428 0 0 0-1.09 1.703 23.09 23.09 0 0 0 6.28 11.343c4.553 4.524 10.534 6.786 16.515 6.786s11.961-2.262 16.515-6.786c9.106-9.048 9.106-23.769 0-32.816-4.412-4.383-10.277-6.797-16.515-6.797-6.239 0-12.104 2.414-16.515 6.796a23.068 23.068 0 0 0-6.346 11.646 1.427 1.427 0 0 0 1.112 1.688 1.436 1.436 0 0 0 1.699-1.105 20.227 20.227 0 0 1 5.565-10.211c7.986-7.935 20.981-7.935 28.967 0 7.986 7.935 7.986 20.846 0 28.781-7.986 7.935-20.981 7.935-28.967 0a20.252 20.252 0 0 1-5.506-9.945zm19.354 6.531c-2.469-.192-3.789-1.309-4.754-2.124-.524-.443-.938-.793-1.33-.793-.791 0-1.536 1.091-1.536 1.937 0 1.67 2.975 4.145 7.639 4.219l.193.003v1.352c0 .32.342.665.895.665.462 0 .933-.336.933-.665v-1.442l.169-.024c4.247-.586 6.684-3.324 6.684-7.513 0-4.882-3.321-6.504-6.724-7.748l-.129-.047v-7.94l.211.015c1.654.117 2.672.624 3.416.994.438.218.784.39 1.088.39.959 0 1.46-1.261 1.46-1.937 0-.92-1.086-1.498-1.997-1.822-1.074-.382-2.565-.635-3.987-.676l-.191-.006v-1.2c0-.329-.471-.665-.933-.665-.553 0-.895.345-.895.665v1.261l-.176.018c-2.098.22-6.978 1.318-6.978 6.764 0 4.667 3.732 5.986 7.024 7.149l.131.046v9.141l-.213-.017zm1.814-8.459l.274.117c1.783.759 3.433 1.814 3.433 4.369 0 2.1-1.234 3.484-3.474 3.896l-.232.043v-8.425zm-1.642-4.384c-2.047-.768-3.742-1.587-3.742-3.849 0-1.875 1.309-3.029 3.787-3.336l.221-.027v7.313l-.266-.101z"/></symbol><symbol id="credit-house" viewBox="0 0 100 100"><path d="M99.27 30.543L66.215 9.135a1.415 1.415 0 0 0-1.963.429 1.436 1.436 0 0 0 .426 1.976L97.25 32.635h-7.593L52.578 8.622a3.83 3.83 0 0 0-4.156 0L11.344 32.635H3.751L50.498 2.357l6.621 4.288c.66.427 1.539.235 1.963-.429a1.436 1.436 0 0 0-.426-1.976L52.035-.048a2.829 2.829 0 0 0-3.071 0L1.73 30.543a2.68 2.68 0 0 0-1.118 3.021 2.656 2.656 0 0 0 2.564 1.931h7.165v9.245c0 1.138.802 2.091 1.867 2.317v2.517a2.362 2.362 0 0 0 2.352 2.367h.195V69.46c0 .79.636 1.43 1.421 1.43s1.42-.64 1.42-1.43V50.511c0-.79-.636-1.43-1.42-1.43h-1.127v-1.974H25.11v1.974h-1.127c-.785 0-1.421.64-1.421 1.43v31.591c0 .79.636 1.43 1.421 1.43h1.127v2.146H15.049v-2.146h1.127c.785 0 1.42-.64 1.42-1.43v-3.655c0-.79-.636-1.43-1.42-1.43-.785 0-1.421.64-1.421 1.43v2.225h-.195a2.362 2.362 0 0 0-2.352 2.367v2.517a2.367 2.367 0 0 0-1.867 2.317v2.887H5.309c-1.571 0-2.848 1.286-2.848 2.867v3.008c0 1.581 1.277 2.867 2.848 2.867h90.382c1.57 0 2.848-1.286 2.848-2.867v-3.008c0-1.581-1.278-2.867-2.848-2.867h-5.032v-2.887a2.368 2.368 0 0 0-1.867-2.317v-2.517a2.362 2.362 0 0 0-2.352-2.367h-.195V51.94h.195a2.362 2.362 0 0 0 2.352-2.367v-2.517a2.367 2.367 0 0 0 1.867-2.317v-9.245h7.164a2.657 2.657 0 0 0 2.564-1.931 2.678 2.678 0 0 0-1.117-3.02zM49.959 11.027a.996.996 0 0 1 1.082 0l33.365 21.608H16.595l33.364-21.608zM13.182 35.495h74.636v3.499H13.182v-3.499zm45.19 50.061v-2.517a2.362 2.362 0 0 0-2.352-2.367h-.195V51.94h.195a2.362 2.362 0 0 0 2.352-2.367v-2.517a2.368 2.368 0 0 0 1.867-2.317v-2.887h10.944v2.887c0 1.138.802 2.091 1.867 2.317v2.517a2.362 2.362 0 0 0 2.352 2.367h.195v28.732h-.195a2.362 2.362 0 0 0-2.352 2.367v2.517a2.368 2.368 0 0 0-1.867 2.317v2.887H60.238v-2.887a2.369 2.369 0 0 0-1.866-2.317zm-30.422 0v-2.517a2.362 2.362 0 0 0-2.352-2.367h-.195V51.94h.195a2.362 2.362 0 0 0 2.352-2.367v-2.517a2.368 2.368 0 0 0 1.867-2.317v-2.887h10.945v2.887c0 1.138.802 2.091 1.867 2.317v2.517a2.362 2.362 0 0 0 2.352 2.367h.195v28.732h-.196a2.362 2.362 0 0 0-2.352 2.367v2.517a2.368 2.368 0 0 0-1.867 2.317v2.887H29.817v-2.887a2.368 2.368 0 0 0-1.867-2.317zm26.454-2.024h1.127v2.146H45.47v-2.146h1.127c.784 0 1.42-.64 1.42-1.43V50.51c0-.79-.636-1.43-1.42-1.43H45.47v-1.974h10.06v1.974h-1.127c-.784 0-1.42.64-1.42 1.43v31.591c.001.79.637 1.431 1.421 1.431zM43.603 44.247v-2.394h13.794v2.394H43.603zm0 44.22c.139.045.286.071.44.071h12.902c.158 0 .31-.027.453-.075v2.297H43.603v-2.293zm-30.421-44.22v-2.394h13.794v2.394H13.182zm0 44.217c.141.047.29.073.446.073H26.53a1.4 1.4 0 0 0 .446-.073v2.295H13.182v-2.295zm82.516 5.161l-.004 3.014h-.003l-90.389-.006.007-3.015 90.389.007zm-8.33-5.088c.158 0 .309-.027.451-.074v2.296H74.024v-2.293c.139.046.288.071.442.071h12.902zM77.017 49.08H75.89v-1.974h10.061v1.974h-1.127c-.784 0-1.42.64-1.42 1.43v31.591c0 .79.636 1.43 1.42 1.43h1.127v2.146H75.89v-2.146h1.127c.785 0 1.421-.64 1.421-1.43V50.51c0-.789-.636-1.43-1.421-1.43zm10.801-4.833H74.024v-2.394h13.794v2.394zM51.101 21.419v-4.464c1.529.11 2.097.814 2.621.814.655 0 .961-.836.961-1.253 0-1.077-2.097-1.539-3.583-1.583v-.594c0-.264-.328-.506-.655-.506-.371 0-.633.242-.633.506v.638c-2.075.22-4.151 1.319-4.151 4.09 0 2.815 2.185 3.606 4.151 4.31v5.167c-2.228-.176-2.818-1.715-3.539-1.715-.546 0-1.005.726-1.005 1.253 0 1.078 1.835 2.551 4.544 2.595v.682c0 .264.262.506.633.506.328 0 .655-.242.655-.506v-.748c2.359-.33 3.976-1.825 3.976-4.53.001-2.991-2.075-3.958-3.975-4.662zm-1.158-.418c-1.158-.44-2.097-.902-2.097-2.155 0-1.143.874-1.693 2.097-1.847v4.002zM50.97 28.5v-4.64c1.07.462 1.922 1.078 1.922 2.463 0 1.253-.742 1.957-1.922 2.177z"/></symbol><symbol id="doors" viewBox="0 0 100 100"><path d="M95.459 96.668H85.357V1.667c0-1-.673-1.667-1.683-1.667H16.326c-1.01 0-1.684.667-1.684 1.667v95.001H4.541c-1.01 0-1.684.665-1.684 1.666 0 1 .673 1.666 1.684 1.666H95.46c1.01 0 1.684-.666 1.684-1.666-.001-1.001-.674-1.666-1.685-1.666zm-20.204 0h-50.51V10.001h50.51v86.667zm6.735 0h-3.367V8.333c0-.999-.673-1.666-1.684-1.666H23.061c-1.01 0-1.683.667-1.683 1.666v88.335H18.01V3.333h63.98v93.335zM58.418 55h3.367v1.667c0 .999.674 1.666 1.684 1.666h6.735c1.01 0 1.684-.667 1.684-1.666V50c0-.999-.673-1.667-1.684-1.667h-6.735c-1.01 0-1.684.667-1.684 1.667v1.667h-3.367c-1.01 0-1.683.666-1.683 1.666 0 1.001.673 1.667 1.683 1.667zm6.735-3.333h3.367v3.334h-3.367v-3.334z"/></symbol><symbol id="facade" viewBox="0 0 100 100"><path d="M91.583 51.307c-.831 0-1.662.832-1.662 1.663 0 .997.665 1.661 1.662 1.661.997 0 1.662-.664 1.662-1.661-.001-.998-.665-1.663-1.662-1.663zm-4.986-4.986c-.831 0-1.662.832-1.662 1.663 0 .997.665 1.661 1.662 1.661.997 0 1.662-.665 1.662-1.661 0-.997-.665-1.663-1.662-1.663zm-4.985 4.986c-.831 0-1.662.832-1.662 1.663 0 .997.665 1.661 1.662 1.661.997 0 1.662-.664 1.662-1.661-.001-.998-.665-1.663-1.662-1.663zm-9.971 0c-.831 0-1.662.832-1.662 1.663 0 .997.664 1.661 1.662 1.661.997 0 1.662-.664 1.662-1.661-.001-.998-.665-1.663-1.662-1.663zm4.985-4.986c-.831 0-1.662.832-1.662 1.663 0 .997.665 1.661 1.662 1.661.997 0 1.662-.665 1.662-1.661 0-.997-.665-1.663-1.662-1.663zm-9.971 0c-.831 0-1.662.832-1.662 1.663 0 .997.665 1.661 1.662 1.661.997 0 1.662-.665 1.662-1.661 0-.997-.665-1.663-1.662-1.663zm-4.986 4.986c-.831 0-1.662.832-1.662 1.663 0 .997.665 1.661 1.662 1.661.997 0 1.661-.664 1.661-1.661.001-.998-.664-1.663-1.661-1.663zm-4.985-4.986c-.831 0-1.662.832-1.662 1.663 0 .997.664 1.661 1.662 1.661.997 0 1.662-.665 1.662-1.661 0-.997-.665-1.663-1.662-1.663zm34.899-4.985c-.831 0-1.662.832-1.662 1.662 0 .998.665 1.662 1.662 1.662.997 0 1.662-.664 1.662-1.662-.001-.997-.665-1.662-1.662-1.662zm0-9.97c-.831 0-1.662.83-1.662 1.661 0 .998.665 1.661 1.662 1.661.997 0 1.662-.664 1.662-1.661s-.665-1.661-1.662-1.661zm-4.986 4.984c-.831 0-1.662.832-1.662 1.662 0 .998.665 1.661 1.662 1.661.997 0 1.662-.664 1.662-1.661s-.665-1.662-1.662-1.662zm-4.985 4.986c-.831 0-1.662.832-1.662 1.662 0 .998.665 1.662 1.662 1.662.997 0 1.662-.664 1.662-1.662-.001-.997-.665-1.662-1.662-1.662zm-9.971 0c-.831 0-1.662.832-1.662 1.662 0 .998.664 1.662 1.662 1.662.997 0 1.662-.664 1.662-1.662-.001-.997-.665-1.662-1.662-1.662zm9.971-9.97c-.831 0-1.662.83-1.662 1.661 0 .998.665 1.661 1.662 1.661.997 0 1.662-.664 1.662-1.661s-.665-1.661-1.662-1.661zm-9.971 0c-.831 0-1.662.83-1.662 1.661 0 .998.664 1.661 1.662 1.661.997 0 1.662-.664 1.662-1.661s-.665-1.661-1.662-1.661zm4.985 4.984c-.831 0-1.662.832-1.662 1.662 0 .998.665 1.661 1.662 1.661.997 0 1.662-.664 1.662-1.661s-.665-1.662-1.662-1.662zm-9.971 0c-.831 0-1.662.832-1.662 1.662 0 .998.665 1.661 1.662 1.661.997 0 1.662-.664 1.662-1.661s-.665-1.662-1.662-1.662zm-4.986 4.986c-.831 0-1.662.832-1.662 1.662 0 .998.665 1.662 1.662 1.662.997 0 1.661-.664 1.661-1.662.001-.997-.664-1.662-1.661-1.662zm0-9.97c-.831 0-1.662.83-1.662 1.661 0 .998.665 1.661 1.662 1.661.997 0 1.661-.664 1.661-1.661s-.664-1.661-1.661-1.661zm-4.985 4.984c-.831 0-1.662.832-1.662 1.662 0 .998.664 1.661 1.662 1.661.997 0 1.662-.664 1.662-1.661s-.665-1.662-1.662-1.662zm34.899-14.956c-.831 0-1.662.831-1.662 1.662 0 .997.665 1.661 1.662 1.661.997 0 1.662-.664 1.662-1.661-.001-.997-.665-1.662-1.662-1.662zm-4.986 4.987c-.831-.001-1.662.83-1.662 1.661 0 .997.665 1.661 1.662 1.661.997 0 1.662-.665 1.662-1.661 0-.998-.665-1.661-1.662-1.661zm0-9.972c-.831 0-1.662.831-1.662 1.661 0 .998.665 1.662 1.662 1.662.997 0 1.662-.664 1.662-1.662 0-.997-.665-1.661-1.662-1.661zm-4.985 4.985c-.831 0-1.662.831-1.662 1.662 0 .997.665 1.661 1.662 1.661.997 0 1.662-.664 1.662-1.661-.001-.997-.665-1.662-1.662-1.662zm-9.971 0c-.831 0-1.662.831-1.662 1.662 0 .997.664 1.661 1.662 1.661.997 0 1.662-.664 1.662-1.661-.001-.997-.665-1.662-1.662-1.662zm4.985 4.987c-.831-.001-1.662.83-1.662 1.661 0 .997.665 1.661 1.662 1.661.997 0 1.662-.665 1.662-1.661 0-.998-.665-1.661-1.662-1.661zm-9.971 0c-.831-.001-1.662.83-1.662 1.661 0 .997.665 1.661 1.662 1.661.997 0 1.662-.665 1.662-1.661 0-.998-.665-1.661-1.662-1.661zm9.971-9.972c-.831 0-1.662.831-1.662 1.661 0 .998.665 1.662 1.662 1.662.997 0 1.662-.664 1.662-1.662 0-.997-.665-1.661-1.662-1.661zm-9.971 0c-.831 0-1.662.831-1.662 1.661 0 .998.665 1.662 1.662 1.662.997 0 1.662-.664 1.662-1.662 0-.997-.665-1.661-1.662-1.661zm-4.986 4.985c-.831 0-1.662.831-1.662 1.662 0 .997.665 1.661 1.662 1.661.997 0 1.661-.664 1.661-1.661.001-.997-.664-1.662-1.661-1.662zm-4.985 4.987c-.831-.001-1.662.83-1.662 1.661 0 .997.664 1.661 1.662 1.661.997 0 1.662-.665 1.662-1.661 0-.998-.665-1.661-1.662-1.661zm0-9.972c-.831 0-1.662.831-1.662 1.661 0 .998.664 1.662 1.662 1.662.997 0 1.662-.664 1.662-1.662 0-.997-.665-1.661-1.662-1.661zm34.899-4.986c-.831 0-1.662.831-1.662 1.661 0 .998.665 1.662 1.662 1.662.997 0 1.662-.665 1.662-1.662-.001-.996-.665-1.661-1.662-1.661zm-4.986-4.985c-.831 0-1.662.83-1.662 1.661 0 .998.665 1.661 1.662 1.661.997 0 1.662-.663 1.662-1.661s-.665-1.661-1.662-1.661zm-4.985 4.985c-.831 0-1.662.831-1.662 1.661 0 .998.665 1.662 1.662 1.662.997 0 1.662-.665 1.662-1.662-.001-.996-.665-1.661-1.662-1.661zm-9.971 0c-.831 0-1.662.831-1.662 1.661 0 .998.664 1.662 1.662 1.662.997 0 1.662-.665 1.662-1.662-.001-.996-.665-1.661-1.662-1.661zm4.985-4.985c-.831 0-1.662.83-1.662 1.661 0 .998.665 1.661 1.662 1.661.997 0 1.662-.663 1.662-1.661s-.665-1.661-1.662-1.661zm-9.971 0c-.831 0-1.662.83-1.662 1.661 0 .998.665 1.661 1.662 1.661.997 0 1.662-.663 1.662-1.661s-.665-1.661-1.662-1.661zm-4.986 4.985c-.831 0-1.662.831-1.662 1.661 0 .998.665 1.662 1.662 1.662.997 0 1.661-.665 1.661-1.662.001-.996-.664-1.661-1.661-1.661zm-4.985-4.985c-.831 0-1.662.83-1.662 1.661 0 .998.664 1.661 1.662 1.661.997 0 1.662-.663 1.662-1.661s-.665-1.661-1.662-1.661zM98.23-.16H1.843C.846-.16.181.505.181 1.502v96.387c0 .997.665 1.661 1.662 1.661h48.193c.997 0 1.662-.665 1.662-1.661V77.947h39.885c4.653 0 8.309-5.152 8.309-11.633V1.502c0-.998-.665-1.662-1.662-1.662zM48.374 96.227H3.505V3.163h44.87v51.519h-4.986c-4.653 0-8.309 5.151-8.309 11.632s3.656 11.633 8.309 11.633h4.986v18.28zm37.355-21.605h-42.34c-1.579 0-3.04-1.348-3.967-3.382-.634-1.391-1.018-3.104-1.018-4.927 0-.982.111-1.932.313-2.816.721-3.161 2.595-5.494 4.672-5.494H85.73c-1.523 2.103-2.456 5.036-2.456 8.31-.001 3.274.933 6.208 2.455 8.309zm5.854 0c-1.579 0-3.04-1.348-3.967-3.382-.634-1.391-1.018-3.104-1.018-4.927 0-.982.111-1.932.313-2.816.72-3.159 2.592-5.49 4.668-5.494h.005c1.799 0 3.446 1.752 4.322 4.274.419 1.205.663 2.585.663 4.035-.001 4.488-2.327 8.31-4.986 8.31zm4.985-68.184c-.831 0-1.662.83-1.662 1.661 0 .998.665 1.661 1.662 1.661v6.648c-.831 0-1.662.831-1.662 1.661 0 .998.665 1.662 1.662 1.662v6.648c-.831-.001-1.662.83-1.662 1.661 0 .997.665 1.661 1.662 1.661v6.647c-.831 0-1.662.832-1.662 1.662 0 .998.665 1.661 1.662 1.661v6.647c-.831 0-1.662.832-1.662 1.663 0 .997.665 1.661 1.662 1.661v7.317a8.146 8.146 0 0 0-1.465-1.212c-.076-.049-.152-.099-.23-.144-.048-.029-.097-.055-.145-.081a5.341 5.341 0 0 0-.382-.2c-.049-.023-.098-.047-.148-.069a6.421 6.421 0 0 0-.226-.098l-.092-.036a6.316 6.316 0 0 0-1.542-.393c-.066-.008-.133-.014-.2-.02l-.168-.014a6.22 6.22 0 0 0-.386-.013H51.699v-.051c.997 0 1.661-.664 1.661-1.661s-.664-1.663-1.661-1.663V44.66c.997 0 1.661-.664 1.661-1.662 0-.996-.664-1.662-1.661-1.662v-6.648c.997 0 1.661-.664 1.661-1.661s-.664-1.661-1.661-1.661v-6.649c.997 0 1.661-.664 1.661-1.661s-.664-1.662-1.661-1.662v-6.647c.997 0 1.661-.665 1.661-1.662 0-.996-.664-1.661-1.661-1.661V4.775c.98 0 1.635-.644 1.657-1.612h6.656c.022.968.678 1.612 1.658 1.612.98 0 1.635-.644 1.657-1.612h6.657c.022.968.677 1.612 1.658 1.612.98 0 1.635-.644 1.658-1.612h6.656c.022.968.677 1.612 1.658 1.612.98 0 1.635-.644 1.658-1.612h6.656c.022.968.678 1.612 1.658 1.612.98 0 1.635-.644 1.658-1.612h3.328v3.275z"/></symbol><symbol id="foundation" viewBox="0 0 100 100"><path d="M98.508-.5H2.492C1.392-.5.5.391.5 1.492v96.016c0 1.099.892 1.992 1.992 1.992h96.016a1.992 1.992 0 0 0 1.992-1.992V1.492A1.99 1.99 0 0 0 98.508-.5zm-4.809 3.984L74.504 22.679 55.309 3.484h38.39zm-38.39 44.024l19.195-19.195 19.195 19.195h-38.39zm38.39 3.985L74.504 70.686 55.309 51.493h38.39zM52.492 6.302l19.195 19.194L52.492 44.69V6.302zM4.484 3.484h41.207L26.496 22.679l-9.648-9.648a1.993 1.993 0 0 0-2.818 2.817l9.648 9.648L4.484 44.691V3.484zm2.817 44.024l19.195-19.195 19.195 19.195H7.301zm38.39 3.985L26.496 70.686 7.301 51.493h38.39zM4.484 54.31l19.194 19.194L4.484 92.698V54.31zm2.817 41.207l19.194-19.195L45.69 95.517H7.301zm41.207-2.818L29.313 73.504 48.508 54.31v38.389zm0-48.008L29.313 25.496 48.508 6.302v38.389zm3.984 9.619l19.195 19.194-19.195 19.194V54.31zm2.817 41.207l19.195-19.195 19.194 19.195H55.309zm41.207-2.818L77.321 73.504 96.516 54.31v38.389zm0-48.008L77.321 25.496 96.516 6.302v38.389zM11.47 7.653a1.992 1.992 0 1 0-2.817 2.817l.797.797a1.986 1.986 0 0 0 2.817 0 1.994 1.994 0 0 0 0-2.817l-.797-.797z"/></symbol><symbol id="gates" viewBox="0 0 100 100"><path d="M98.047 23.355h-.005A9.883 9.883 0 0 0 100 17.436c0-5.44-4.381-9.864-9.766-9.864s-9.766 4.424-9.766 9.864c0 2.218.73 4.268 1.959 5.919h-.005a1.962 1.962 0 0 0-1.953 1.972v7.012a56.384 56.384 0 0 0-6.901-3.796v-3.216c0-1.09-.874-1.972-1.953-1.972s-1.953.883-1.953 1.972v1.585a57.147 57.147 0 0 0-1.989-.703 56.259 56.259 0 0 0-4.911-1.382v-4.11c0-1.091-.875-1.973-1.953-1.973s-1.953.883-1.953 1.973v3.339a56.263 56.263 0 0 0-6.901-.667v-5.954a1.964 1.964 0 0 0-1.953-1.973 1.963 1.963 0 0 0-1.953 1.973v5.954c-2.316.081-4.62.303-6.901.667v-3.339c0-1.09-.875-1.973-1.953-1.973a1.963 1.963 0 0 0-1.953 1.973v4.11a56.259 56.259 0 0 0-6.901 2.085v-1.585c0-1.09-.875-1.972-1.953-1.972a1.962 1.962 0 0 0-1.953 1.972v3.216a56.31 56.31 0 0 0-6.901 3.796v-7.012c0-1.09-.875-1.972-1.953-1.972h-.005a9.884 9.884 0 0 0 1.959-5.919c0-5.44-4.381-9.864-9.766-9.864C4.381 7.572 0 11.996 0 17.436c0 2.218.729 4.268 1.959 5.919h-.006A1.962 1.962 0 0 0 0 25.327v63.129c0 1.09.874 1.972 1.953 1.972h21.686c1.078 0 1.953-.883 1.953-1.972s-.875-1.972-1.953-1.972h-4.108v-3.947h60.937v3.947H76.36c-1.079 0-1.953.883-1.953 1.972s.874 1.972 1.953 1.972h21.687A1.962 1.962 0 0 0 100 88.456V25.327c0-1.09-.875-1.972-1.953-1.972zM15.625 86.483H3.906V27.299h3.906v8.266c0 1.09.875 1.972 1.953 1.972s1.953-.883 1.953-1.972v-8.266h3.906v59.184zM9.766 23.355c-3.231 0-5.859-2.656-5.859-5.919 0-3.263 2.628-5.919 5.859-5.919s5.859 2.655 5.859 5.919c0 3.263-2.628 5.919-5.859 5.919zm16.667 55.236h-6.901V37.09a52.996 52.996 0 0 1 6.901-4.186v45.687zm10.807.002h-6.901V31.124a51.368 51.368 0 0 1 6.901-2.256v49.725zm10.807 0h-6.901V28.046a52.54 52.54 0 0 1 6.901-.709v51.256zm10.807-.002h-6.901V27.337c2.329.084 4.632.324 6.901.709v50.545zm10.807.002H62.76V28.868a51.511 51.511 0 0 1 6.901 2.256v47.469zm10.808-.002h-6.901V32.904a53.083 53.083 0 0 1 6.901 4.186v41.501zm15.625 7.892H84.375V27.299h3.906v8.266c0 1.09.875 1.972 1.953 1.972a1.962 1.962 0 0 0 1.953-1.972v-8.266h3.906v59.184zm-5.86-63.128c-3.231 0-5.859-2.656-5.859-5.919 0-3.263 2.629-5.919 5.859-5.919 3.231 0 5.859 2.655 5.859 5.919.001 3.263-2.628 5.919-5.859 5.919zM29.297 86.483h-.046c-1.079 0-1.953.883-1.953 1.972s.875 1.972 1.953 1.972h.046c1.079 0 1.953-.883 1.953-1.972s-.874-1.972-1.953-1.972zm41.452 0h-.046c-1.079 0-1.953.883-1.953 1.972s.875 1.972 1.953 1.972h.046c1.079 0 1.953-.883 1.953-1.972s-.874-1.972-1.953-1.972zM9.766 39.26a1.963 1.963 0 0 0-1.953 1.973v.046c0 1.09.875 1.972 1.953 1.972s1.953-.883 1.953-1.972v-.046a1.964 1.964 0 0 0-1.953-1.973zm80.468 0a1.963 1.963 0 0 0-1.953 1.973v.046c0 1.09.875 1.972 1.953 1.972a1.962 1.962 0 0 0 1.953-1.972v-.046a1.963 1.963 0 0 0-1.953-1.973z"/></symbol><symbol id="roof" viewBox="0 0 100 100"><path d="M25.185 69.463c-1.227 0-2.222.979-2.222 2.187 0 2.611-2.16 4.735-4.815 4.735-1.227 0-2.222.979-2.222 2.186 0 1.207.995 2.187 2.222 2.187 5.105 0 9.259-4.086 9.259-9.108 0-1.208-.994-2.187-2.222-2.187zm31.852 0c-1.227 0-2.222.979-2.222 2.187 0 2.611-2.16 4.735-4.815 4.735-1.227 0-2.222.979-2.222 2.186 0 1.207.995 2.187 2.222 2.187 5.105 0 9.259-4.086 9.259-9.108 0-1.208-.994-2.187-2.222-2.187zm31.852 0c-1.227 0-2.222.979-2.222 2.187 0 2.611-2.16 4.735-4.815 4.735-1.227 0-2.222.979-2.222 2.186 0 1.207.995 2.187 2.222 2.187 5.106 0 9.259-4.086 9.259-9.108 0-1.208-.995-2.187-2.222-2.187zM25.185 46.44c-1.227 0-2.222.978-2.222 2.186 0 2.612-2.16 4.736-4.815 4.736-1.227 0-2.222.978-2.222 2.186 0 1.207.995 2.185 2.222 2.185 5.105 0 9.259-4.085 9.259-9.107 0-1.208-.994-2.186-2.222-2.186zm31.852 0c-1.227 0-2.222.978-2.222 2.186 0 2.612-2.16 4.736-4.815 4.736-1.227 0-2.222.978-2.222 2.186 0 1.207.995 2.185 2.222 2.185 5.105 0 9.259-4.085 9.259-9.107 0-1.208-.995-2.186-2.222-2.186zm31.852 0c-1.227 0-2.222.978-2.222 2.186 0 2.612-2.16 4.736-4.815 4.736-1.227 0-2.222.978-2.222 2.186 0 1.207.995 2.185 2.222 2.185 5.106 0 9.259-4.085 9.259-9.107 0-1.208-.995-2.186-2.222-2.186zM18.148 35.803c5.105 0 9.259-4.086 9.259-9.109 0-1.207-.995-2.186-2.222-2.186s-2.222.979-2.222 2.186c0 2.612-2.16 4.736-4.815 4.736-1.227 0-2.222.978-2.222 2.186s.995 2.187 2.222 2.187zm38.889-11.295c-1.227 0-2.222.979-2.222 2.186 0 2.612-2.16 4.736-4.815 4.736-1.227 0-2.222.978-2.222 2.186s.995 2.187 2.222 2.187c5.105 0 9.259-4.086 9.259-9.109 0-1.207-.994-2.186-2.222-2.186zM97.778 9.5H2.222C.995 9.5 0 10.478 0 11.685V71.65C0 81.492 8.141 89.5 18.148 89.5c6.859 0 12.841-3.763 15.926-9.301C37.159 85.737 43.141 89.5 50 89.5s12.841-3.763 15.926-9.301c3.085 5.537 9.067 9.301 15.926 9.301C91.859 89.5 100 81.492 100 71.65V11.685c0-1.207-.995-2.185-2.222-2.185zM31.852 71.65c0 7.431-6.148 13.479-13.704 13.479-7.556 0-13.704-6.048-13.704-13.479V60.309a18.235 18.235 0 0 0 13.704 6.167 18.238 18.238 0 0 0 13.704-6.167V71.65zm0-23.024c0 7.433-6.148 13.479-13.704 13.479-7.556 0-13.704-6.047-13.704-13.479V38.378a18.235 18.235 0 0 0 13.704 6.167 18.238 18.238 0 0 0 13.704-6.167v10.248zm0-21.932c0 7.433-6.148 13.479-13.704 13.479-7.556 0-13.703-6.047-13.703-13.479V13.871h27.407v12.823zM63.704 71.65c0 7.431-6.147 13.479-13.704 13.479S36.296 79.081 36.296 71.65V60.309A18.235 18.235 0 0 0 50 66.476a18.238 18.238 0 0 0 13.704-6.167V71.65zm0-23.024c0 7.433-6.147 13.479-13.704 13.479s-13.704-6.047-13.704-13.479V38.378A18.235 18.235 0 0 0 50 44.545a18.238 18.238 0 0 0 13.704-6.167v10.248zM50 40.173c-7.556 0-13.704-6.047-13.704-13.479V13.871h27.407v12.823c.001 7.432-6.147 13.479-13.703 13.479zM95.555 71.65c0 7.431-6.147 13.479-13.704 13.479S68.148 79.081 68.148 71.65V60.309a18.235 18.235 0 0 0 13.704 6.167 18.238 18.238 0 0 0 13.704-6.167V71.65zm0-23.024c0 7.433-6.147 13.479-13.704 13.479s-13.704-6.047-13.704-13.479V38.378a18.235 18.235 0 0 0 13.704 6.167 18.238 18.238 0 0 0 13.704-6.167v10.248zm.001-21.932c0 7.433-6.148 13.479-13.704 13.479s-13.704-6.047-13.704-13.479V13.871h27.408v12.823zm-13.704 9.109c5.105 0 9.259-4.086 9.259-9.109 0-1.207-.995-2.186-2.222-2.186s-2.222.979-2.222 2.186c0 2.612-2.16 4.736-4.815 4.736-1.227 0-2.222.978-2.222 2.186s.994 2.187 2.222 2.187z"/></symbol><symbol id="terrace" viewBox="0 0 100 100"><path d="M91.429 33.333V31.25c0-7.419-4.437-14.322-12.493-19.439-7.267-4.617-16.74-7.29-26.864-7.611V0h-4.143v4.2c-10.125.321-19.597 2.995-26.864 7.611C13.008 16.928 8.571 23.832 8.571 31.25v2.083h39.357v20.834H8.571V68.75h6.214V100h4.143V82.113L32.215 68.75h15.713V100h4.143V68.75h15.713l13.287 13.363V100h4.143V68.75h6.214V54.167H52.071V33.333h39.358zM18.928 76.221V68.75h7.428l-7.428 7.471zm62.143 0l-7.428-7.471h7.428v7.471zm6.215-11.637H12.714v-6.251h74.572v6.251zM50 8.334c2.66 0 5.373 2.264 7.445 6.21 2.067 3.94 3.305 9.071 3.554 14.623H39.001c.249-5.552 1.487-10.683 3.554-14.623 2.072-3.947 4.785-6.21 7.445-6.21zm37.131 20.833H65.148c-.345-8.451-2.775-15.709-6.403-20.195 6.769 1.006 12.967 3.179 17.978 6.362 6.01 3.817 9.637 8.667 10.408 13.833zM23.276 15.334c5.011-3.183 11.209-5.356 17.978-6.362-3.628 4.486-6.058 11.744-6.403 20.195H12.869c.771-5.166 4.398-10.016 10.407-13.833z"/></symbol><symbol id="windows" viewBox="0 0 100 100"><path d="M92.715 88.101h-5.13V37.057C87.585 16.624 70.725 0 50 0c-7.893 0-15.447 2.385-21.846 6.899a1.563 1.563 0 0 0-.375 2.183 1.574 1.574 0 0 0 2.189.373C35.834 5.318 42.76 3.133 50 3.133c18.993 0 34.444 15.218 34.444 33.924V88.1H15.555V37.057c0-8.623 3.288-16.842 9.258-23.142a1.561 1.561 0 0 0-.063-2.213 1.573 1.573 0 0 0-2.22.063c-6.523 6.884-10.116 15.866-10.116 25.292v51.044h-5.13c-.867 0-1.57.701-1.57 1.565v8.769c0 .864.703 1.565 1.57 1.565h65.33c.867 0 1.57-.701 1.57-1.565 0-.865-.703-1.566-1.57-1.566H8.855v-5.638h82.29v5.638H80.99c-.867 0-1.57.701-1.57 1.566 0 .864.703 1.565 1.57 1.565h11.726c.867 0 1.571-.701 1.571-1.565v-8.769a1.57 1.57 0 0 0-1.572-1.565zM50 6.263c-17.261 0-31.304 13.813-31.304 30.794 0 .865.703 1.566 1.571 1.566h59.467c.867 0 1.57-.701 1.57-1.566 0-16.98-14.043-30.794-31.304-30.794zM21.882 35.49C22.71 20.963 35.006 9.395 50 9.395S77.289 20.963 78.118 35.49H21.882zm57.851 6.682H54.188c-.867 0-1.571.701-1.571 1.566v39.666c0 .864.703 1.565 1.571 1.565h25.545c.867 0 1.57-.701 1.57-1.565V43.738a1.567 1.567 0 0 0-1.57-1.566zm-1.57 39.665H55.758V45.303h22.405v36.534zM20.267 42.172c-.867 0-1.571.701-1.571 1.566v39.666c0 .864.703 1.565 1.571 1.565h25.546c.867 0 1.571-.701 1.571-1.565V43.738c0-.865-.703-1.566-1.571-1.566H20.267zm23.975 39.665H21.837V45.303h22.405v36.534zm15.745-64.259L48.68 28.851a1.563 1.563 0 0 0 0 2.214 1.573 1.573 0 0 0 2.22 0l11.307-11.273a1.564 1.564 0 0 0 0-2.215 1.573 1.573 0 0 0-2.22.001zm-8.667 0a1.573 1.573 0 0 0-2.221 0L37.792 28.851a1.563 1.563 0 0 0 0 2.214 1.573 1.573 0 0 0 2.22 0l11.307-11.273a1.562 1.562 0 0 0 .001-2.214zm14.739 48.144a1.591 1.591 0 0 0 2.221 0l6.701-6.682a1.564 1.564 0 0 0 0-2.215 1.575 1.575 0 0 0-2.221 0l-6.701 6.682a1.564 1.564 0 0 0 0 2.215zm-6.428.458c.402 0 .804-.152 1.111-.457l6.701-6.682a1.564 1.564 0 0 0 0-2.215 1.575 1.575 0 0 0-2.221 0l-6.7 6.682c-.968.963-.264 2.672 1.109 2.672zm-27.911-.458a1.591 1.591 0 0 0 2.221 0l6.701-6.682a1.564 1.564 0 0 0 0-2.215 1.575 1.575 0 0 0-2.221 0l-6.701 6.682a1.562 1.562 0 0 0 0 2.215zm-6.428.458c.402 0 .804-.152 1.11-.457l6.701-6.682a1.564 1.564 0 0 0 0-2.215 1.575 1.575 0 0 0-2.221 0l-6.701 6.682c-.967.963-.263 2.672 1.111 2.672z"/></symbol></svg>