<svg xmlns="http://www.w3.org/2000/svg"><symbol id="credit-bag" viewBox="0 0 100 100"><path d="M89.59 55.357c-2.241-5.184-5.594-10.579-9.965-16.033a1.442 1.442 0 0 0-2.018-.227 1.42 1.42 0 0 0-.229 2.005c4.211 5.256 7.432 10.431 9.573 15.382 2.593 5.997 3.606 11.696 3.012 16.938-.615 5.423-3.03 10.003-7.178 13.615-3.386 2.948-7.934 5.281-13.519 6.935-9.66 2.86-19.136 2.673-19.231 2.671a.794.794 0 0 0-.069 0c-.096.001-9.573.189-19.232-2.671-5.585-1.654-10.133-3.987-13.519-6.935-4.148-3.611-6.563-8.192-7.178-13.615-.95-8.375 2.151-17.739 9.215-27.833 5.341-7.631 11.841-14.013 15.973-17.733h29.549a121.988 121.988 0 0 1 6.777 6.589 1.443 1.443 0 0 0 2.03.058 1.42 1.42 0 0 0 .059-2.017 124.347 124.347 0 0 0-5.569-5.496 4.439 4.439 0 0 0 1.829-3.585c0-2.454-2.01-4.451-4.48-4.451h-.41c1.616-2.35 3.718-5.587 5.273-8.62 2.144-4.183 2.771-6.979 1.974-8.802C71.784.451 70.81-.25 69.515-.44c-1.922-.282-4.458.485-7.669 1.455C58.222 2.112 54.113 3.354 50 3.354c-4.114 0-8.222-1.243-11.847-2.338-3.211-.971-5.747-1.737-7.669-1.455-1.295.19-2.269.89-2.742 1.972-.797 1.823-.169 4.62 1.975 8.802 1.554 3.033 3.657 6.27 5.273 8.62h-.41c-2.47 0-4.48 1.997-4.48 4.451 0 1.469.72 2.773 1.828 3.584-9.949 9.217-26.881 27.914-24.745 46.751 1.248 11.008 9.13 18.956 22.794 22.985 9.887 2.915 19.273 2.786 20.023 2.77.086.002.285.005.585.005 2.322 0 10.683-.195 19.437-2.775 13.664-4.029 21.546-11.976 22.795-22.985.651-5.741-.434-11.926-3.227-18.384zM30.377 2.669c.039-.089.097-.223.526-.286 1.284-.188 3.775.565 6.413 1.362C40.944 4.842 45.459 6.207 50 6.207s9.055-1.365 12.683-2.462c2.638-.797 5.13-1.55 6.413-1.362.429.063.487.197.526.286.128.292 1.004 3.197-7.363 15.224a6.55 6.55 0 0 0-.601 1.061H38.342a6.582 6.582 0 0 0-.601-1.061C29.373 5.867 30.25 2.961 30.377 2.669zm4.203 19.139h30.84c.886 0 1.607.716 1.607 1.597s-.721 1.597-1.607 1.597H34.58a1.604 1.604 0 0 1-1.608-1.597 1.605 1.605 0 0 1 1.608-1.597zm-4.571 44.236a1.436 1.436 0 0 0-1.714-1.083 1.428 1.428 0 0 0-1.09 1.703 23.09 23.09 0 0 0 6.28 11.343c4.553 4.524 10.534 6.786 16.515 6.786s11.961-2.262 16.515-6.786c9.106-9.048 9.106-23.769 0-32.816-4.412-4.383-10.277-6.797-16.515-6.797-6.239 0-12.104 2.414-16.515 6.796a23.068 23.068 0 0 0-6.346 11.646 1.427 1.427 0 0 0 1.112 1.688 1.436 1.436 0 0 0 1.699-1.105 20.227 20.227 0 0 1 5.565-10.211c7.986-7.935 20.981-7.935 28.967 0 7.986 7.935 7.986 20.846 0 28.781-7.986 7.935-20.981 7.935-28.967 0a20.252 20.252 0 0 1-5.506-9.945zm19.354 6.531c-2.469-.192-3.789-1.309-4.754-2.124-.524-.443-.938-.793-1.33-.793-.791 0-1.536 1.091-1.536 1.937 0 1.67 2.975 4.145 7.639 4.219l.193.003v1.352c0 .32.342.665.895.665.462 0 .933-.336.933-.665v-1.442l.169-.024c4.247-.586 6.684-3.324 6.684-7.513 0-4.882-3.321-6.504-6.724-7.748l-.129-.047v-7.94l.211.015c1.654.117 2.672.624 3.416.994.438.218.784.39 1.088.39.959 0 1.46-1.261 1.46-1.937 0-.92-1.086-1.498-1.997-1.822-1.074-.382-2.565-.635-3.987-.676l-.191-.006v-1.2c0-.329-.471-.665-.933-.665-.553 0-.895.345-.895.665v1.261l-.176.018c-2.098.22-6.978 1.318-6.978 6.764 0 4.667 3.732 5.986 7.024 7.149l.131.046v9.141l-.213-.017zm1.814-8.459l.274.117c1.783.759 3.433 1.814 3.433 4.369 0 2.1-1.234 3.484-3.474 3.896l-.232.043v-8.425zm-1.642-4.384c-2.047-.768-3.742-1.587-3.742-3.849 0-1.875 1.309-3.029 3.787-3.336l.221-.027v7.313l-.266-.101z"/></symbol><symbol id="credit-house" viewBox="0 0 100 100"><path d="M99.27 30.543L66.215 9.135a1.415 1.415 0 0 0-1.963.429 1.436 1.436 0 0 0 .426 1.976L97.25 32.635h-7.593L52.578 8.622a3.83 3.83 0 0 0-4.156 0L11.344 32.635H3.751L50.498 2.357l6.621 4.288c.66.427 1.539.235 1.963-.429a1.436 1.436 0 0 0-.426-1.976L52.035-.048a2.829 2.829 0 0 0-3.071 0L1.73 30.543a2.68 2.68 0 0 0-1.118 3.021 2.656 2.656 0 0 0 2.564 1.931h7.165v9.245c0 1.138.802 2.091 1.867 2.317v2.517a2.362 2.362 0 0 0 2.352 2.367h.195V69.46c0 .79.636 1.43 1.421 1.43s1.42-.64 1.42-1.43V50.511c0-.79-.636-1.43-1.42-1.43h-1.127v-1.974H25.11v1.974h-1.127c-.785 0-1.421.64-1.421 1.43v31.591c0 .79.636 1.43 1.421 1.43h1.127v2.146H15.049v-2.146h1.127c.785 0 1.42-.64 1.42-1.43v-3.655c0-.79-.636-1.43-1.42-1.43-.785 0-1.421.64-1.421 1.43v2.225h-.195a2.362 2.362 0 0 0-2.352 2.367v2.517a2.367 2.367 0 0 0-1.867 2.317v2.887H5.309c-1.571 0-2.848 1.286-2.848 2.867v3.008c0 1.581 1.277 2.867 2.848 2.867h90.382c1.57 0 2.848-1.286 2.848-2.867v-3.008c0-1.581-1.278-2.867-2.848-2.867h-5.032v-2.887a2.368 2.368 0 0 0-1.867-2.317v-2.517a2.362 2.362 0 0 0-2.352-2.367h-.195V51.94h.195a2.362 2.362 0 0 0 2.352-2.367v-2.517a2.367 2.367 0 0 0 1.867-2.317v-9.245h7.164a2.657 2.657 0 0 0 2.564-1.931 2.678 2.678 0 0 0-1.117-3.02zM49.959 11.027a.996.996 0 0 1 1.082 0l33.365 21.608H16.595l33.364-21.608zM13.182 35.495h74.636v3.499H13.182v-3.499zm45.19 50.061v-2.517a2.362 2.362 0 0 0-2.352-2.367h-.195V51.94h.195a2.362 2.362 0 0 0 2.352-2.367v-2.517a2.368 2.368 0 0 0 1.867-2.317v-2.887h10.944v2.887c0 1.138.802 2.091 1.867 2.317v2.517a2.362 2.362 0 0 0 2.352 2.367h.195v28.732h-.195a2.362 2.362 0 0 0-2.352 2.367v2.517a2.368 2.368 0 0 0-1.867 2.317v2.887H60.238v-2.887a2.369 2.369 0 0 0-1.866-2.317zm-30.422 0v-2.517a2.362 2.362 0 0 0-2.352-2.367h-.195V51.94h.195a2.362 2.362 0 0 0 2.352-2.367v-2.517a2.368 2.368 0 0 0 1.867-2.317v-2.887h10.945v2.887c0 1.138.802 2.091 1.867 2.317v2.517a2.362 2.362 0 0 0 2.352 2.367h.195v28.732h-.196a2.362 2.362 0 0 0-2.352 2.367v2.517a2.368 2.368 0 0 0-1.867 2.317v2.887H29.817v-2.887a2.368 2.368 0 0 0-1.867-2.317zm26.454-2.024h1.127v2.146H45.47v-2.146h1.127c.784 0 1.42-.64 1.42-1.43V50.51c0-.79-.636-1.43-1.42-1.43H45.47v-1.974h10.06v1.974h-1.127c-.784 0-1.42.64-1.42 1.43v31.591c.001.79.637 1.431 1.421 1.431zM43.603 44.247v-2.394h13.794v2.394H43.603zm0 44.22c.139.045.286.071.44.071h12.902c.158 0 .31-.027.453-.075v2.297H43.603v-2.293zm-30.421-44.22v-2.394h13.794v2.394H13.182zm0 44.217c.141.047.29.073.446.073H26.53a1.4 1.4 0 0 0 .446-.073v2.295H13.182v-2.295zm82.516 5.161l-.004 3.014h-.003l-90.389-.006.007-3.015 90.389.007zm-8.33-5.088c.158 0 .309-.027.451-.074v2.296H74.024v-2.293c.139.046.288.071.442.071h12.902zM77.017 49.08H75.89v-1.974h10.061v1.974h-1.127c-.784 0-1.42.64-1.42 1.43v31.591c0 .79.636 1.43 1.42 1.43h1.127v2.146H75.89v-2.146h1.127c.785 0 1.421-.64 1.421-1.43V50.51c0-.789-.636-1.43-1.421-1.43zm10.801-4.833H74.024v-2.394h13.794v2.394zM51.101 21.419v-4.464c1.529.11 2.097.814 2.621.814.655 0 .961-.836.961-1.253 0-1.077-2.097-1.539-3.583-1.583v-.594c0-.264-.328-.506-.655-.506-.371 0-.633.242-.633.506v.638c-2.075.22-4.151 1.319-4.151 4.09 0 2.815 2.185 3.606 4.151 4.31v5.167c-2.228-.176-2.818-1.715-3.539-1.715-.546 0-1.005.726-1.005 1.253 0 1.078 1.835 2.551 4.544 2.595v.682c0 .264.262.506.633.506.328 0 .655-.242.655-.506v-.748c2.359-.33 3.976-1.825 3.976-4.53.001-2.991-2.075-3.958-3.975-4.662zm-1.158-.418c-1.158-.44-2.097-.902-2.097-2.155 0-1.143.874-1.693 2.097-1.847v4.002zM50.97 28.5v-4.64c1.07.462 1.922 1.078 1.922 2.463 0 1.253-.742 1.957-1.922 2.177z"/></symbol></svg>