<svg xmlns="http://www.w3.org/2000/svg"><symbol id="bricks" viewBox="0 0 100 100"><path d="M46.853 33.088H21.842V58.61H-.042v31.903H100V7.566H46.853v25.522zm-18.759 6.38H68.736V58.61H28.094V39.468zm18.759 44.663H6.21V64.99h40.643v19.141zm46.894 0H53.105V64.99h40.643v19.141zm0-25.521H74.989V39.468h18.758V58.61zM53.105 13.946h40.642v19.142H53.105V13.946z"/></symbol><symbol id="credit-bag" viewBox="0 0 100 100"><path d="M89.59 55.357c-2.241-5.184-5.594-10.579-9.965-16.033a1.442 1.442 0 0 0-2.018-.227 1.42 1.42 0 0 0-.229 2.005c4.211 5.256 7.432 10.431 9.573 15.382 2.593 5.997 3.606 11.696 3.012 16.938-.615 5.423-3.03 10.003-7.178 13.615-3.386 2.948-7.934 5.281-13.519 6.935-9.66 2.86-19.136 2.673-19.231 2.671a.794.794 0 0 0-.069 0c-.096.001-9.573.189-19.232-2.671-5.585-1.654-10.133-3.987-13.519-6.935-4.148-3.611-6.563-8.192-7.178-13.615-.95-8.375 2.151-17.739 9.215-27.833 5.341-7.631 11.841-14.013 15.973-17.733h29.549a121.988 121.988 0 0 1 6.777 6.589 1.443 1.443 0 0 0 2.03.058 1.42 1.42 0 0 0 .059-2.017 124.347 124.347 0 0 0-5.569-5.496 4.439 4.439 0 0 0 1.829-3.585c0-2.454-2.01-4.451-4.48-4.451h-.41c1.616-2.35 3.718-5.587 5.273-8.62 2.144-4.183 2.771-6.979 1.974-8.802C71.784.451 70.81-.25 69.515-.44c-1.922-.282-4.458.485-7.669 1.455C58.222 2.112 54.113 3.354 50 3.354c-4.114 0-8.222-1.243-11.847-2.338-3.211-.971-5.747-1.737-7.669-1.455-1.295.19-2.269.89-2.742 1.972-.797 1.823-.169 4.62 1.975 8.802 1.554 3.033 3.657 6.27 5.273 8.62h-.41c-2.47 0-4.48 1.997-4.48 4.451 0 1.469.72 2.773 1.828 3.584-9.949 9.217-26.881 27.914-24.745 46.751 1.248 11.008 9.13 18.956 22.794 22.985 9.887 2.915 19.273 2.786 20.023 2.77.086.002.285.005.585.005 2.322 0 10.683-.195 19.437-2.775 13.664-4.029 21.546-11.976 22.795-22.985.651-5.741-.434-11.926-3.227-18.384zM30.377 2.669c.039-.089.097-.223.526-.286 1.284-.188 3.775.565 6.413 1.362C40.944 4.842 45.459 6.207 50 6.207s9.055-1.365 12.683-2.462c2.638-.797 5.13-1.55 6.413-1.362.429.063.487.197.526.286.128.292 1.004 3.197-7.363 15.224a6.55 6.55 0 0 0-.601 1.061H38.342a6.582 6.582 0 0 0-.601-1.061C29.373 5.867 30.25 2.961 30.377 2.669zm4.203 19.139h30.84c.886 0 1.607.716 1.607 1.597s-.721 1.597-1.607 1.597H34.58a1.604 1.604 0 0 1-1.608-1.597 1.605 1.605 0 0 1 1.608-1.597zm-4.571 44.236a1.436 1.436 0 0 0-1.714-1.083 1.428 1.428 0 0 0-1.09 1.703 23.09 23.09 0 0 0 6.28 11.343c4.553 4.524 10.534 6.786 16.515 6.786s11.961-2.262 16.515-6.786c9.106-9.048 9.106-23.769 0-32.816-4.412-4.383-10.277-6.797-16.515-6.797-6.239 0-12.104 2.414-16.515 6.796a23.068 23.068 0 0 0-6.346 11.646 1.427 1.427 0 0 0 1.112 1.688 1.436 1.436 0 0 0 1.699-1.105 20.227 20.227 0 0 1 5.565-10.211c7.986-7.935 20.981-7.935 28.967 0 7.986 7.935 7.986 20.846 0 28.781-7.986 7.935-20.981 7.935-28.967 0a20.252 20.252 0 0 1-5.506-9.945zm19.354 6.531c-2.469-.192-3.789-1.309-4.754-2.124-.524-.443-.938-.793-1.33-.793-.791 0-1.536 1.091-1.536 1.937 0 1.67 2.975 4.145 7.639 4.219l.193.003v1.352c0 .32.342.665.895.665.462 0 .933-.336.933-.665v-1.442l.169-.024c4.247-.586 6.684-3.324 6.684-7.513 0-4.882-3.321-6.504-6.724-7.748l-.129-.047v-7.94l.211.015c1.654.117 2.672.624 3.416.994.438.218.784.39 1.088.39.959 0 1.46-1.261 1.46-1.937 0-.92-1.086-1.498-1.997-1.822-1.074-.382-2.565-.635-3.987-.676l-.191-.006v-1.2c0-.329-.471-.665-.933-.665-.553 0-.895.345-.895.665v1.261l-.176.018c-2.098.22-6.978 1.318-6.978 6.764 0 4.667 3.732 5.986 7.024 7.149l.131.046v9.141l-.213-.017zm1.814-8.459l.274.117c1.783.759 3.433 1.814 3.433 4.369 0 2.1-1.234 3.484-3.474 3.896l-.232.043v-8.425zm-1.642-4.384c-2.047-.768-3.742-1.587-3.742-3.849 0-1.875 1.309-3.029 3.787-3.336l.221-.027v7.313l-.266-.101z"/></symbol><symbol id="credit-house" viewBox="0 0 100 100"><path d="M99.27 30.543L66.215 9.135a1.415 1.415 0 0 0-1.963.429 1.436 1.436 0 0 0 .426 1.976L97.25 32.635h-7.593L52.578 8.622a3.83 3.83 0 0 0-4.156 0L11.344 32.635H3.751L50.498 2.357l6.621 4.288c.66.427 1.539.235 1.963-.429a1.436 1.436 0 0 0-.426-1.976L52.035-.048a2.829 2.829 0 0 0-3.071 0L1.73 30.543a2.68 2.68 0 0 0-1.118 3.021 2.656 2.656 0 0 0 2.564 1.931h7.165v9.245c0 1.138.802 2.091 1.867 2.317v2.517a2.362 2.362 0 0 0 2.352 2.367h.195V69.46c0 .79.636 1.43 1.421 1.43s1.42-.64 1.42-1.43V50.511c0-.79-.636-1.43-1.42-1.43h-1.127v-1.974H25.11v1.974h-1.127c-.785 0-1.421.64-1.421 1.43v31.591c0 .79.636 1.43 1.421 1.43h1.127v2.146H15.049v-2.146h1.127c.785 0 1.42-.64 1.42-1.43v-3.655c0-.79-.636-1.43-1.42-1.43-.785 0-1.421.64-1.421 1.43v2.225h-.195a2.362 2.362 0 0 0-2.352 2.367v2.517a2.367 2.367 0 0 0-1.867 2.317v2.887H5.309c-1.571 0-2.848 1.286-2.848 2.867v3.008c0 1.581 1.277 2.867 2.848 2.867h90.382c1.57 0 2.848-1.286 2.848-2.867v-3.008c0-1.581-1.278-2.867-2.848-2.867h-5.032v-2.887a2.368 2.368 0 0 0-1.867-2.317v-2.517a2.362 2.362 0 0 0-2.352-2.367h-.195V51.94h.195a2.362 2.362 0 0 0 2.352-2.367v-2.517a2.367 2.367 0 0 0 1.867-2.317v-9.245h7.164a2.657 2.657 0 0 0 2.564-1.931 2.678 2.678 0 0 0-1.117-3.02zM49.959 11.027a.996.996 0 0 1 1.082 0l33.365 21.608H16.595l33.364-21.608zM13.182 35.495h74.636v3.499H13.182v-3.499zm45.19 50.061v-2.517a2.362 2.362 0 0 0-2.352-2.367h-.195V51.94h.195a2.362 2.362 0 0 0 2.352-2.367v-2.517a2.368 2.368 0 0 0 1.867-2.317v-2.887h10.944v2.887c0 1.138.802 2.091 1.867 2.317v2.517a2.362 2.362 0 0 0 2.352 2.367h.195v28.732h-.195a2.362 2.362 0 0 0-2.352 2.367v2.517a2.368 2.368 0 0 0-1.867 2.317v2.887H60.238v-2.887a2.369 2.369 0 0 0-1.866-2.317zm-30.422 0v-2.517a2.362 2.362 0 0 0-2.352-2.367h-.195V51.94h.195a2.362 2.362 0 0 0 2.352-2.367v-2.517a2.368 2.368 0 0 0 1.867-2.317v-2.887h10.945v2.887c0 1.138.802 2.091 1.867 2.317v2.517a2.362 2.362 0 0 0 2.352 2.367h.195v28.732h-.196a2.362 2.362 0 0 0-2.352 2.367v2.517a2.368 2.368 0 0 0-1.867 2.317v2.887H29.817v-2.887a2.368 2.368 0 0 0-1.867-2.317zm26.454-2.024h1.127v2.146H45.47v-2.146h1.127c.784 0 1.42-.64 1.42-1.43V50.51c0-.79-.636-1.43-1.42-1.43H45.47v-1.974h10.06v1.974h-1.127c-.784 0-1.42.64-1.42 1.43v31.591c.001.79.637 1.431 1.421 1.431zM43.603 44.247v-2.394h13.794v2.394H43.603zm0 44.22c.139.045.286.071.44.071h12.902c.158 0 .31-.027.453-.075v2.297H43.603v-2.293zm-30.421-44.22v-2.394h13.794v2.394H13.182zm0 44.217c.141.047.29.073.446.073H26.53a1.4 1.4 0 0 0 .446-.073v2.295H13.182v-2.295zm82.516 5.161l-.004 3.014h-.003l-90.389-.006.007-3.015 90.389.007zm-8.33-5.088c.158 0 .309-.027.451-.074v2.296H74.024v-2.293c.139.046.288.071.442.071h12.902zM77.017 49.08H75.89v-1.974h10.061v1.974h-1.127c-.784 0-1.42.64-1.42 1.43v31.591c0 .79.636 1.43 1.42 1.43h1.127v2.146H75.89v-2.146h1.127c.785 0 1.421-.64 1.421-1.43V50.51c0-.789-.636-1.43-1.421-1.43zm10.801-4.833H74.024v-2.394h13.794v2.394zM51.101 21.419v-4.464c1.529.11 2.097.814 2.621.814.655 0 .961-.836.961-1.253 0-1.077-2.097-1.539-3.583-1.583v-.594c0-.264-.328-.506-.655-.506-.371 0-.633.242-.633.506v.638c-2.075.22-4.151 1.319-4.151 4.09 0 2.815 2.185 3.606 4.151 4.31v5.167c-2.228-.176-2.818-1.715-3.539-1.715-.546 0-1.005.726-1.005 1.253 0 1.078 1.835 2.551 4.544 2.595v.682c0 .264.262.506.633.506.328 0 .655-.242.655-.506v-.748c2.359-.33 3.976-1.825 3.976-4.53.001-2.991-2.075-3.958-3.975-4.662zm-1.158-.418c-1.158-.44-2.097-.902-2.097-2.155 0-1.143.874-1.693 2.097-1.847v4.002zM50.97 28.5v-4.64c1.07.462 1.922 1.078 1.922 2.463 0 1.253-.742 1.957-1.922 2.177z"/></symbol><symbol id="doors" viewBox="0 0 100 100"><path d="M95.459 96.668H85.357V1.667c0-1-.673-1.667-1.683-1.667H16.326c-1.01 0-1.684.667-1.684 1.667v95.001H4.541c-1.01 0-1.684.665-1.684 1.666 0 1 .673 1.666 1.684 1.666H95.46c1.01 0 1.684-.666 1.684-1.666-.001-1.001-.674-1.666-1.685-1.666zm-20.204 0h-50.51V10.001h50.51v86.667zm6.735 0h-3.367V8.333c0-.999-.673-1.666-1.684-1.666H23.061c-1.01 0-1.683.667-1.683 1.666v88.335H18.01V3.333h63.98v93.335zM58.418 55h3.367v1.667c0 .999.674 1.666 1.684 1.666h6.735c1.01 0 1.684-.667 1.684-1.666V50c0-.999-.673-1.667-1.684-1.667h-6.735c-1.01 0-1.684.667-1.684 1.667v1.667h-3.367c-1.01 0-1.683.666-1.683 1.666 0 1.001.673 1.667 1.683 1.667zm6.735-3.333h3.367v3.334h-3.367v-3.334z"/></symbol><symbol id="electric-meter " viewBox="0 0 511.998 511.998"><path d="M456.402 168.339c-4.705 0-8.532-3.828-8.532-8.532V39.564C447.871 17.749 430.122 0 408.306 0H103.692C81.876 0 64.129 17.749 64.129 39.564v120.242c0 4.705-3.828 8.532-8.532 8.532-12.976 0-23.532 10.557-23.532 23.532s10.557 23.532 23.532 23.532c4.705 0 8.532 3.828 8.532 8.532v120.242c0 19.251 13.824 35.327 32.064 38.842v105.448c0 12.976 10.557 23.532 23.532 23.532h272.549c12.976 0 23.532-10.557 23.532-23.532V383.02c18.24-3.516 32.064-19.591 32.064-38.842V223.936c0-4.705 3.828-8.532 8.532-8.532 12.976 0 23.532-10.557 23.532-23.532.002-12.977-10.555-23.533-23.532-23.533zM64.129 202.011a23.4 23.4 0 0 0-8.532-1.608c-4.705 0-8.532-3.828-8.532-8.532 0-4.705 3.828-8.532 8.532-8.532 3.009 0 5.885-.574 8.532-1.608v20.28zm336.677 286.457c0 4.704-3.828 8.532-8.533 8.532H119.725c-4.705 0-8.532-3.828-8.532-8.532V383.742h17.065v48.613c0 8.556 6.96 15.516 15.516 15.516h224.451c8.556 0 15.516-6.96 15.516-15.516v-48.613h17.065v104.726zm-216.952-72.662a7.5 7.5 0 0 0 7.5-7.5v-24.564h33.097v24.564a7.5 7.5 0 0 0 15 0v-24.564h33.097v24.564a7.5 7.5 0 0 0 15 0v-24.564h33.097v24.564a7.5 7.5 0 0 0 15 0v-24.564h33.097v48.613a.516.516 0 0 1-.516.516H143.773a.516.516 0 0 1-.516-.516v-48.613h33.097v24.564a7.5 7.5 0 0 0 7.5 7.5zm224.452-47.065H103.692c-13.545 0-24.564-11.02-24.564-24.564V39.564C79.129 26.02 90.147 15 103.692 15h304.613c13.545 0 24.564 11.02 24.564 24.564v304.613h.001c.001 13.545-11.02 24.564-24.564 24.564zm48.096-168.338c-3.009 0-5.885.574-8.532 1.608v-20.28a23.396 23.396 0 0 0 8.532 1.608c4.705 0 8.532 3.828 8.532 8.532.002 4.705-3.826 8.532-8.532 8.532z"/><path d="M352.194 40.081H111.708a7.5 7.5 0 0 0-7.5 7.5v288.581a7.5 7.5 0 0 0 7.5 7.5h16.03a7.5 7.5 0 0 0 0-15h-8.53V55.081h232.985a7.5 7.5 0 0 0 .001-15zM400.29 40.081h-16.03a7.5 7.5 0 0 0 0 15h8.53v273.581H159.806a7.5 7.5 0 0 0 0 15H400.29a7.5 7.5 0 0 0 7.5-7.5V47.581c0-4.143-3.357-7.5-7.5-7.5z"/><path d="M344.176 128.258H167.822c-8.556 0-15.516 6.96-15.516 15.516v32.064c0 8.556 6.96 15.516 15.516 15.516h176.354c8.556 0 15.516-6.96 15.516-15.516v-32.064c0-8.556-6.959-15.516-15.516-15.516zm-159.805 48.098h-16.548a.518.518 0 0 1-.516-.517v-32.064c0-.285.231-.516.516-.516h16.548v33.097zm32.065-.001h-17.064v-33.097h17.064v33.097zm32.063 0h-17.064v-33.097h17.064v33.097zm32.065 0H263.5v-33.097h17.064v33.097zm32.063 0h-17.064v-33.097h17.064v33.097zm32.065-.516a.516.516 0 0 1-.516.516h-16.548v-33.097h16.548c.285 0 .516.231.516.516v32.065zM175.838 216.436c-12.975 0-23.532 10.556-23.532 23.532s10.557 23.532 23.532 23.532 23.532-10.557 23.532-23.532c.001-12.975-10.556-23.532-23.532-23.532zm0 32.064c-4.704 0-8.532-3.828-8.532-8.532 0-4.704 3.828-8.532 8.532-8.532 4.704 0 8.532 3.827 8.532 8.532.001 4.705-3.827 8.532-8.532 8.532zM336.16 216.436c-12.976 0-23.532 10.557-23.532 23.532S323.185 263.5 336.16 263.5s23.532-10.557 23.532-23.532c.001-12.975-10.555-23.532-23.532-23.532zm0 32.064c-4.705 0-8.532-3.828-8.532-8.532 0-4.704 3.828-8.532 8.532-8.532 4.704 0 8.532 3.828 8.532 8.532.001 4.704-3.826 8.532-8.532 8.532zM255.999 216.436c-12.976 0-23.532 10.556-23.532 23.532s10.557 23.532 23.532 23.532 23.532-10.557 23.532-23.532c.001-12.975-10.556-23.532-23.532-23.532zm0 32.064c-4.704 0-8.532-3.828-8.532-8.532 0-4.704 3.828-8.532 8.532-8.532s8.532 3.827 8.532 8.532c.001 4.705-3.827 8.532-8.532 8.532z"/></symbol><symbol id="facade" viewBox="0 0 100 100"><path d="M91.583 51.307c-.831 0-1.662.832-1.662 1.663 0 .997.665 1.661 1.662 1.661.997 0 1.662-.664 1.662-1.661-.001-.998-.665-1.663-1.662-1.663zm-4.986-4.986c-.831 0-1.662.832-1.662 1.663 0 .997.665 1.661 1.662 1.661.997 0 1.662-.665 1.662-1.661 0-.997-.665-1.663-1.662-1.663zm-4.985 4.986c-.831 0-1.662.832-1.662 1.663 0 .997.665 1.661 1.662 1.661.997 0 1.662-.664 1.662-1.661-.001-.998-.665-1.663-1.662-1.663zm-9.971 0c-.831 0-1.662.832-1.662 1.663 0 .997.664 1.661 1.662 1.661.997 0 1.662-.664 1.662-1.661-.001-.998-.665-1.663-1.662-1.663zm4.985-4.986c-.831 0-1.662.832-1.662 1.663 0 .997.665 1.661 1.662 1.661.997 0 1.662-.665 1.662-1.661 0-.997-.665-1.663-1.662-1.663zm-9.971 0c-.831 0-1.662.832-1.662 1.663 0 .997.665 1.661 1.662 1.661.997 0 1.662-.665 1.662-1.661 0-.997-.665-1.663-1.662-1.663zm-4.986 4.986c-.831 0-1.662.832-1.662 1.663 0 .997.665 1.661 1.662 1.661.997 0 1.661-.664 1.661-1.661.001-.998-.664-1.663-1.661-1.663zm-4.985-4.986c-.831 0-1.662.832-1.662 1.663 0 .997.664 1.661 1.662 1.661.997 0 1.662-.665 1.662-1.661 0-.997-.665-1.663-1.662-1.663zm34.899-4.985c-.831 0-1.662.832-1.662 1.662 0 .998.665 1.662 1.662 1.662.997 0 1.662-.664 1.662-1.662-.001-.997-.665-1.662-1.662-1.662zm0-9.97c-.831 0-1.662.83-1.662 1.661 0 .998.665 1.661 1.662 1.661.997 0 1.662-.664 1.662-1.661s-.665-1.661-1.662-1.661zm-4.986 4.984c-.831 0-1.662.832-1.662 1.662 0 .998.665 1.661 1.662 1.661.997 0 1.662-.664 1.662-1.661s-.665-1.662-1.662-1.662zm-4.985 4.986c-.831 0-1.662.832-1.662 1.662 0 .998.665 1.662 1.662 1.662.997 0 1.662-.664 1.662-1.662-.001-.997-.665-1.662-1.662-1.662zm-9.971 0c-.831 0-1.662.832-1.662 1.662 0 .998.664 1.662 1.662 1.662.997 0 1.662-.664 1.662-1.662-.001-.997-.665-1.662-1.662-1.662zm9.971-9.97c-.831 0-1.662.83-1.662 1.661 0 .998.665 1.661 1.662 1.661.997 0 1.662-.664 1.662-1.661s-.665-1.661-1.662-1.661zm-9.971 0c-.831 0-1.662.83-1.662 1.661 0 .998.664 1.661 1.662 1.661.997 0 1.662-.664 1.662-1.661s-.665-1.661-1.662-1.661zm4.985 4.984c-.831 0-1.662.832-1.662 1.662 0 .998.665 1.661 1.662 1.661.997 0 1.662-.664 1.662-1.661s-.665-1.662-1.662-1.662zm-9.971 0c-.831 0-1.662.832-1.662 1.662 0 .998.665 1.661 1.662 1.661.997 0 1.662-.664 1.662-1.661s-.665-1.662-1.662-1.662zm-4.986 4.986c-.831 0-1.662.832-1.662 1.662 0 .998.665 1.662 1.662 1.662.997 0 1.661-.664 1.661-1.662.001-.997-.664-1.662-1.661-1.662zm0-9.97c-.831 0-1.662.83-1.662 1.661 0 .998.665 1.661 1.662 1.661.997 0 1.661-.664 1.661-1.661s-.664-1.661-1.661-1.661zm-4.985 4.984c-.831 0-1.662.832-1.662 1.662 0 .998.664 1.661 1.662 1.661.997 0 1.662-.664 1.662-1.661s-.665-1.662-1.662-1.662zm34.899-14.956c-.831 0-1.662.831-1.662 1.662 0 .997.665 1.661 1.662 1.661.997 0 1.662-.664 1.662-1.661-.001-.997-.665-1.662-1.662-1.662zm-4.986 4.987c-.831-.001-1.662.83-1.662 1.661 0 .997.665 1.661 1.662 1.661.997 0 1.662-.665 1.662-1.661 0-.998-.665-1.661-1.662-1.661zm0-9.972c-.831 0-1.662.831-1.662 1.661 0 .998.665 1.662 1.662 1.662.997 0 1.662-.664 1.662-1.662 0-.997-.665-1.661-1.662-1.661zm-4.985 4.985c-.831 0-1.662.831-1.662 1.662 0 .997.665 1.661 1.662 1.661.997 0 1.662-.664 1.662-1.661-.001-.997-.665-1.662-1.662-1.662zm-9.971 0c-.831 0-1.662.831-1.662 1.662 0 .997.664 1.661 1.662 1.661.997 0 1.662-.664 1.662-1.661-.001-.997-.665-1.662-1.662-1.662zm4.985 4.987c-.831-.001-1.662.83-1.662 1.661 0 .997.665 1.661 1.662 1.661.997 0 1.662-.665 1.662-1.661 0-.998-.665-1.661-1.662-1.661zm-9.971 0c-.831-.001-1.662.83-1.662 1.661 0 .997.665 1.661 1.662 1.661.997 0 1.662-.665 1.662-1.661 0-.998-.665-1.661-1.662-1.661zm9.971-9.972c-.831 0-1.662.831-1.662 1.661 0 .998.665 1.662 1.662 1.662.997 0 1.662-.664 1.662-1.662 0-.997-.665-1.661-1.662-1.661zm-9.971 0c-.831 0-1.662.831-1.662 1.661 0 .998.665 1.662 1.662 1.662.997 0 1.662-.664 1.662-1.662 0-.997-.665-1.661-1.662-1.661zm-4.986 4.985c-.831 0-1.662.831-1.662 1.662 0 .997.665 1.661 1.662 1.661.997 0 1.661-.664 1.661-1.661.001-.997-.664-1.662-1.661-1.662zm-4.985 4.987c-.831-.001-1.662.83-1.662 1.661 0 .997.664 1.661 1.662 1.661.997 0 1.662-.665 1.662-1.661 0-.998-.665-1.661-1.662-1.661zm0-9.972c-.831 0-1.662.831-1.662 1.661 0 .998.664 1.662 1.662 1.662.997 0 1.662-.664 1.662-1.662 0-.997-.665-1.661-1.662-1.661zm34.899-4.986c-.831 0-1.662.831-1.662 1.661 0 .998.665 1.662 1.662 1.662.997 0 1.662-.665 1.662-1.662-.001-.996-.665-1.661-1.662-1.661zm-4.986-4.985c-.831 0-1.662.83-1.662 1.661 0 .998.665 1.661 1.662 1.661.997 0 1.662-.663 1.662-1.661s-.665-1.661-1.662-1.661zm-4.985 4.985c-.831 0-1.662.831-1.662 1.661 0 .998.665 1.662 1.662 1.662.997 0 1.662-.665 1.662-1.662-.001-.996-.665-1.661-1.662-1.661zm-9.971 0c-.831 0-1.662.831-1.662 1.661 0 .998.664 1.662 1.662 1.662.997 0 1.662-.665 1.662-1.662-.001-.996-.665-1.661-1.662-1.661zm4.985-4.985c-.831 0-1.662.83-1.662 1.661 0 .998.665 1.661 1.662 1.661.997 0 1.662-.663 1.662-1.661s-.665-1.661-1.662-1.661zm-9.971 0c-.831 0-1.662.83-1.662 1.661 0 .998.665 1.661 1.662 1.661.997 0 1.662-.663 1.662-1.661s-.665-1.661-1.662-1.661zm-4.986 4.985c-.831 0-1.662.831-1.662 1.661 0 .998.665 1.662 1.662 1.662.997 0 1.661-.665 1.661-1.662.001-.996-.664-1.661-1.661-1.661zm-4.985-4.985c-.831 0-1.662.83-1.662 1.661 0 .998.664 1.661 1.662 1.661.997 0 1.662-.663 1.662-1.661s-.665-1.661-1.662-1.661zM98.23-.16H1.843C.846-.16.181.505.181 1.502v96.387c0 .997.665 1.661 1.662 1.661h48.193c.997 0 1.662-.665 1.662-1.661V77.947h39.885c4.653 0 8.309-5.152 8.309-11.633V1.502c0-.998-.665-1.662-1.662-1.662zM48.374 96.227H3.505V3.163h44.87v51.519h-4.986c-4.653 0-8.309 5.151-8.309 11.632s3.656 11.633 8.309 11.633h4.986v18.28zm37.355-21.605h-42.34c-1.579 0-3.04-1.348-3.967-3.382-.634-1.391-1.018-3.104-1.018-4.927 0-.982.111-1.932.313-2.816.721-3.161 2.595-5.494 4.672-5.494H85.73c-1.523 2.103-2.456 5.036-2.456 8.31-.001 3.274.933 6.208 2.455 8.309zm5.854 0c-1.579 0-3.04-1.348-3.967-3.382-.634-1.391-1.018-3.104-1.018-4.927 0-.982.111-1.932.313-2.816.72-3.159 2.592-5.49 4.668-5.494h.005c1.799 0 3.446 1.752 4.322 4.274.419 1.205.663 2.585.663 4.035-.001 4.488-2.327 8.31-4.986 8.31zm4.985-68.184c-.831 0-1.662.83-1.662 1.661 0 .998.665 1.661 1.662 1.661v6.648c-.831 0-1.662.831-1.662 1.661 0 .998.665 1.662 1.662 1.662v6.648c-.831-.001-1.662.83-1.662 1.661 0 .997.665 1.661 1.662 1.661v6.647c-.831 0-1.662.832-1.662 1.662 0 .998.665 1.661 1.662 1.661v6.647c-.831 0-1.662.832-1.662 1.663 0 .997.665 1.661 1.662 1.661v7.317a8.146 8.146 0 0 0-1.465-1.212c-.076-.049-.152-.099-.23-.144-.048-.029-.097-.055-.145-.081a5.341 5.341 0 0 0-.382-.2c-.049-.023-.098-.047-.148-.069a6.421 6.421 0 0 0-.226-.098l-.092-.036a6.316 6.316 0 0 0-1.542-.393c-.066-.008-.133-.014-.2-.02l-.168-.014a6.22 6.22 0 0 0-.386-.013H51.699v-.051c.997 0 1.661-.664 1.661-1.661s-.664-1.663-1.661-1.663V44.66c.997 0 1.661-.664 1.661-1.662 0-.996-.664-1.662-1.661-1.662v-6.648c.997 0 1.661-.664 1.661-1.661s-.664-1.661-1.661-1.661v-6.649c.997 0 1.661-.664 1.661-1.661s-.664-1.662-1.661-1.662v-6.647c.997 0 1.661-.665 1.661-1.662 0-.996-.664-1.661-1.661-1.661V4.775c.98 0 1.635-.644 1.657-1.612h6.656c.022.968.678 1.612 1.658 1.612.98 0 1.635-.644 1.657-1.612h6.657c.022.968.677 1.612 1.658 1.612.98 0 1.635-.644 1.658-1.612h6.656c.022.968.677 1.612 1.658 1.612.98 0 1.635-.644 1.658-1.612h6.656c.022.968.678 1.612 1.658 1.612.98 0 1.635-.644 1.658-1.612h3.328v3.275z"/></symbol><symbol id="foundation" viewBox="0 0 100 100"><path d="M98.508-.5H2.492C1.392-.5.5.391.5 1.492v96.016c0 1.099.892 1.992 1.992 1.992h96.016a1.992 1.992 0 0 0 1.992-1.992V1.492A1.99 1.99 0 0 0 98.508-.5zm-4.809 3.984L74.504 22.679 55.309 3.484h38.39zm-38.39 44.024l19.195-19.195 19.195 19.195h-38.39zm38.39 3.985L74.504 70.686 55.309 51.493h38.39zM52.492 6.302l19.195 19.194L52.492 44.69V6.302zM4.484 3.484h41.207L26.496 22.679l-9.648-9.648a1.993 1.993 0 0 0-2.818 2.817l9.648 9.648L4.484 44.691V3.484zm2.817 44.024l19.195-19.195 19.195 19.195H7.301zm38.39 3.985L26.496 70.686 7.301 51.493h38.39zM4.484 54.31l19.194 19.194L4.484 92.698V54.31zm2.817 41.207l19.194-19.195L45.69 95.517H7.301zm41.207-2.818L29.313 73.504 48.508 54.31v38.389zm0-48.008L29.313 25.496 48.508 6.302v38.389zm3.984 9.619l19.195 19.194-19.195 19.194V54.31zm2.817 41.207l19.195-19.195 19.194 19.195H55.309zm41.207-2.818L77.321 73.504 96.516 54.31v38.389zm0-48.008L77.321 25.496 96.516 6.302v38.389zM11.47 7.653a1.992 1.992 0 1 0-2.817 2.817l.797.797a1.986 1.986 0 0 0 2.817 0 1.994 1.994 0 0 0 0-2.817l-.797-.797z"/></symbol><symbol id="gas-pipe" viewBox="0 0 512 512"><path d="M336.64 110.933h68.267c5.12 0 8.533-3.413 8.533-8.533V42.667c0-5.12-3.413-8.533-8.533-8.533H336.64c-5.12 0-8.533 3.413-8.533 8.533V102.4c0 5.12 3.413 8.533 8.533 8.533zm8.533-59.733h51.2v42.667h-51.2V51.2zM63.573 110.933h68.267c5.12 0 8.533-3.413 8.533-8.533V42.667c0-5.12-3.413-8.533-8.533-8.533H63.573c-5.12 0-8.533 3.413-8.533 8.533V102.4c0 5.12 3.413 8.533 8.533 8.533zM72.107 51.2h51.2v42.667h-51.2V51.2z"/><path d="M480 207.36c-6.827-4.267-15.36-4.267-22.187-.853a161.406 161.406 0 0 1-10.24 4.465V8.533c0-5.12-3.413-8.533-8.533-8.533s-8.533 3.413-8.533 8.533V153.6H311.04V8.533c0-5.12-3.413-8.533-8.533-8.533s-8.533 3.413-8.533 8.533v203.064a135.01 135.01 0 0 1-9.387-4.237c-6.827-3.413-15.36-3.413-22.187.853s-11.093 11.947-11.093 19.627v56.32c0 8.533 4.267 15.36 11.093 19.627 3.413 2.56 7.68 3.413 11.947 3.413 3.413 0 6.827-.853 9.387-2.56a134.978 134.978 0 0 1 10.24-4.588v203.415c0 5.12 3.413 8.533 8.533 8.533s8.533-3.413 8.533-8.533V341.333h119.467v162.133c0 5.12 3.413 8.533 8.533 8.533s8.533-3.413 8.533-8.533V299.27a118.812 118.812 0 0 1 10.24 4.516c3.413 1.707 6.827 2.56 10.24 2.56 3.413 0 7.68-.853 11.947-3.413 6.827-4.267 11.093-11.947 11.093-19.627v-56.32c0-8.533-4.266-15.359-11.093-19.626zm-168.96-36.693h119.467v45.907a138.721 138.721 0 0 1-9.077 2.048c-6.646 1.211-13.374 2.04-20.365 2.299-.106.004-.211.011-.317.014-1.167.04-2.347.054-3.529.062l-1.699-3.398c-1.707-3.413-4.267-5.12-7.68-5.12h-34.133c-3.413 0-5.973 2.56-7.68 5.12l-2.117 4.235a135.262 135.262 0 0 1-9.716-.492l-.246-.021a137.669 137.669 0 0 1-3.904-.406 139.107 139.107 0 0 1-19.004-3.618v-46.63zm46.666 108.692a5.519 5.519 0 0 0-.586-1.173L346.027 256l11.947-21.333a7.694 7.694 0 0 0 1.28-4.267h23.467l1.12 2.241c.148.405.337.799.586 1.173L395.52 256l-11.093 21.333a7.642 7.642 0 0 0-1.209 3.271l-.498.996h-23.893l-1.121-2.241zm-81.653 9.921c-2.56 1.707-4.267.853-5.12 0-.853-.853-2.56-2.56-2.56-5.12v-56.32c0-3.413 1.707-4.267 2.56-5.12.853 0 1.707-.853 3.413-.853.853 0 1.707 0 2.56.853 7.466 3.911 15.379 7.07 23.548 9.562 11.64 4.087 23.28 5.77 34.921 6.621l-6.416 12.831a12.098 12.098 0 0 0-.6 2.88c-.133 1.6.067 3.2.6 4.8l6.827 13.653c-2.066.148-4.132.363-6.199.609-18.955 2.148-36.594 7.134-53.534 15.604zm34.987 34.987v-29.781a142.97 142.97 0 0 1 4.402-1.052c8.198-1.712 16.458-2.897 25.122-3.214l.215-.01c1.173-.041 2.36-.055 3.549-.063l1.699 3.398c1.707 3.413 4.267 5.12 7.68 5.12h34.133c3.413 0 5.973-1.707 7.68-5.12l1.699-3.398c10.855.083 22.474 1.755 33.288 4.251v29.867H311.04zm161.28-40.107c0 3.413-2.56 5.12-2.56 5.12s-2.56.853-5.12 0c-7.465-3.91-15.379-7.07-23.548-9.561-11.778-4.135-23.555-5.811-35.332-6.652l.001-.001 6.826-12.799c.474-1.422.675-2.844.622-4.266a11.981 11.981 0 0 0-.622-4.267l-6.418-12.836c7.226-.54 14.452-1.697 21.678-3.29a159.319 159.319 0 0 0 8.129-1.969c1.875-.49 3.75-.996 5.625-1.532.167-.083.33-.174.492-.266a153.384 153.384 0 0 0 22.548-9.121c2.56-1.707 4.267-.853 5.12 0s2.56 2.56 2.56 5.12v56.32zM165.973 0c-5.12 0-8.533 3.413-8.533 8.533v153.6h-8.533c.748-4.487-.471-8.974-2.506-12.886a31.737 31.737 0 0 0-.907-1.621c-4.267-6.827-11.947-11.093-19.627-11.093h-56.32c-7.68 0-15.36 4.267-19.627 11.093-2.56 4.267-4.267 9.387-3.413 14.507h-8.533V8.533C37.973 3.413 34.56 0 29.44 0s-8.533 3.413-8.533 8.533v494.933c0 5.12 3.413 8.533 8.533 8.533s8.533-3.413 8.533-8.533v-153.6h9.387c-.434 2.605-.204 5.21.35 7.814a23.8 23.8 0 0 0 1.09 4.095c.354 1.15.736 2.3 1.12 3.451 4.267 6.827 11.947 11.093 19.627 11.093h56.32c6.902 0 12.687-2.793 16.904-7.473a36.073 36.073 0 0 0 3.576-3.62c2.928-4.684 3.845-10.172 3.031-15.36h8.062v153.6c0 5.12 3.413 8.533 8.533 8.533 5.12 0 8.533-3.413 8.533-8.533V8.533c.001-5.12-3.413-8.533-8.533-8.533zM69.547 358.4c-2.56 0-5.12-3.413-5.12-3.413s-.238-.723-.337-1.781a7.368 7.368 0 0 1 .337-1.632c.853-2.56 1.707-4.267 2.56-5.973.142-.568.25-1.105.341-1.629.095-.213.187-.426.281-.639.248-.548.485-1.102.727-1.654l.085-.197c.904-2.079 1.76-4.183 2.562-6.313 5.436-14.161 8.963-28.888 9.658-44.181l12.8 6.827c.425.142.85.251 1.275.346.733.501 1.563.508 2.991.508 1.707 0 2.56 0 3.413-.853l13.653-6.827c1.53 19.127 5.815 36.879 13.448 53.877.064.25.127.5.206.736l2.56 5.12c1.707 2.56.853 4.267 0 5.12s-2.56 2.56-5.12 2.56h-56.32zm50.346-88.747l-22.187 11.093L77.227 268.8c-1.525-1.016-3.351-1.413-5.12-1.219v-23.528l1.876-.938c.603-.096 1.073-.304 1.537-.769l22.187-11.093 21.333 11.093a7.642 7.642 0 0 0 3.271 1.209l.996.498v23.893l-2.241 1.12a5.57 5.57 0 0 0-1.173.587zM157.44 179.2v153.6h-14.705c-5.997-15.146-9.449-30.783-9.969-46.915-.004-.143-.011-.285-.015-.429a130.599 130.599 0 0 1-.051-3.432l2.554-1.277c3.413-1.707 5.12-4.267 5.12-7.68v-34.133c0-3.413-1.707-5.973-4.267-7.68l-4.248-2.124c.007-.769.014-1.538.035-2.305.015-.531.038-1.063.059-1.595.024-.617.051-1.234.083-1.85.038-.707.082-1.415.131-2.124.026-.384.056-.767.086-1.15.067-.855.137-1.71.221-2.566l.027-.255c.302-3.024.711-6.054 1.221-9.077.035-.207.067-.415.103-.621.123-.712.259-1.422.394-2.133.111-.579.222-1.157.34-1.734a135.333 135.333 0 0 1 .965-4.358l.072-.305a136.271 136.271 0 0 1 5.72-17.971c.209-.521.416-1.043.632-1.56.044-.108.09-.215.135-.323h15.357zm-93.013-23.04c.853-.853 2.56-2.56 5.12-2.56h56.32c3.413 0 5.12 4.267 5.12 4.267s.238.723.337 1.781a7.368 7.368 0 0 1-.337 1.632c-.576 1.153-.767 1.92-1.091 2.82-.897.805-1.673 1.854-2.323 3.153-7.567 16.815-12.639 34.46-13.604 52.931l-11.996-5.998a11.978 11.978 0 0 0-4.267-.622 11.984 11.984 0 0 0-4.267.622l-12.911 6.455c-1.613-18.659-5.868-36.019-13.337-52.653-.064-.25-.127-.5-.206-.736l-.235-.235c-.243-.532-.481-1.065-.731-1.595-.254-1.123-.921-1.943-1.594-3.29-.852-2.559-.852-5.119.002-5.972zM37.973 332.8V179.2h15.36a130.725 130.725 0 0 1 4.555 12.577c3.309 11.165 5.226 22.59 5.609 34.273.005.172.014.342.019.514.029.994.038 1.992.045 2.99l-3.401 1.7c-3.413 1.707-5.12 4.267-5.12 7.68v34.133c0 3.413 1.707 5.973 5.12 7.68l3.403 1.702c-.106 17.61-3.511 34.395-10.23 50.352h-15.36z"/></symbol><symbol id="gates" viewBox="0 0 100 100"><path d="M98.047 23.355h-.005A9.883 9.883 0 0 0 100 17.436c0-5.44-4.381-9.864-9.766-9.864s-9.766 4.424-9.766 9.864c0 2.218.73 4.268 1.959 5.919h-.005a1.962 1.962 0 0 0-1.953 1.972v7.012a56.384 56.384 0 0 0-6.901-3.796v-3.216c0-1.09-.874-1.972-1.953-1.972s-1.953.883-1.953 1.972v1.585a57.147 57.147 0 0 0-1.989-.703 56.259 56.259 0 0 0-4.911-1.382v-4.11c0-1.091-.875-1.973-1.953-1.973s-1.953.883-1.953 1.973v3.339a56.263 56.263 0 0 0-6.901-.667v-5.954a1.964 1.964 0 0 0-1.953-1.973 1.963 1.963 0 0 0-1.953 1.973v5.954c-2.316.081-4.62.303-6.901.667v-3.339c0-1.09-.875-1.973-1.953-1.973a1.963 1.963 0 0 0-1.953 1.973v4.11a56.259 56.259 0 0 0-6.901 2.085v-1.585c0-1.09-.875-1.972-1.953-1.972a1.962 1.962 0 0 0-1.953 1.972v3.216a56.31 56.31 0 0 0-6.901 3.796v-7.012c0-1.09-.875-1.972-1.953-1.972h-.005a9.884 9.884 0 0 0 1.959-5.919c0-5.44-4.381-9.864-9.766-9.864C4.381 7.572 0 11.996 0 17.436c0 2.218.729 4.268 1.959 5.919h-.006A1.962 1.962 0 0 0 0 25.327v63.129c0 1.09.874 1.972 1.953 1.972h21.686c1.078 0 1.953-.883 1.953-1.972s-.875-1.972-1.953-1.972h-4.108v-3.947h60.937v3.947H76.36c-1.079 0-1.953.883-1.953 1.972s.874 1.972 1.953 1.972h21.687A1.962 1.962 0 0 0 100 88.456V25.327c0-1.09-.875-1.972-1.953-1.972zM15.625 86.483H3.906V27.299h3.906v8.266c0 1.09.875 1.972 1.953 1.972s1.953-.883 1.953-1.972v-8.266h3.906v59.184zM9.766 23.355c-3.231 0-5.859-2.656-5.859-5.919 0-3.263 2.628-5.919 5.859-5.919s5.859 2.655 5.859 5.919c0 3.263-2.628 5.919-5.859 5.919zm16.667 55.236h-6.901V37.09a52.996 52.996 0 0 1 6.901-4.186v45.687zm10.807.002h-6.901V31.124a51.368 51.368 0 0 1 6.901-2.256v49.725zm10.807 0h-6.901V28.046a52.54 52.54 0 0 1 6.901-.709v51.256zm10.807-.002h-6.901V27.337c2.329.084 4.632.324 6.901.709v50.545zm10.807.002H62.76V28.868a51.511 51.511 0 0 1 6.901 2.256v47.469zm10.808-.002h-6.901V32.904a53.083 53.083 0 0 1 6.901 4.186v41.501zm15.625 7.892H84.375V27.299h3.906v8.266c0 1.09.875 1.972 1.953 1.972a1.962 1.962 0 0 0 1.953-1.972v-8.266h3.906v59.184zm-5.86-63.128c-3.231 0-5.859-2.656-5.859-5.919 0-3.263 2.629-5.919 5.859-5.919 3.231 0 5.859 2.655 5.859 5.919.001 3.263-2.628 5.919-5.859 5.919zM29.297 86.483h-.046c-1.079 0-1.953.883-1.953 1.972s.875 1.972 1.953 1.972h.046c1.079 0 1.953-.883 1.953-1.972s-.874-1.972-1.953-1.972zm41.452 0h-.046c-1.079 0-1.953.883-1.953 1.972s.875 1.972 1.953 1.972h.046c1.079 0 1.953-.883 1.953-1.972s-.874-1.972-1.953-1.972zM9.766 39.26a1.963 1.963 0 0 0-1.953 1.973v.046c0 1.09.875 1.972 1.953 1.972s1.953-.883 1.953-1.972v-.046a1.964 1.964 0 0 0-1.953-1.973zm80.468 0a1.963 1.963 0 0 0-1.953 1.973v.046c0 1.09.875 1.972 1.953 1.972a1.962 1.962 0 0 0 1.953-1.972v-.046a1.963 1.963 0 0 0-1.953-1.973z"/></symbol><symbol id="grill" viewBox="0 0 512 512"><path d="M88.681 59.883c2.973-4.637 1.636-10.809-2.995-13.798-4.64-2.995-10.83-1.663-13.825 2.978-1.348 2.088-12.907 20.813-3.713 35.004 1.63 2.516-.074 10.986-2.616 16.567-2.318 5.013-.134 10.956 4.879 13.274a9.969 9.969 0 0 0 4.191.926c3.777 0 7.393-2.151 9.083-5.805 1.701-3.679 9.758-22.7 1.248-35.836-1.174-1.813.717-8.528 3.748-13.31zM156.468 59.883c2.973-4.637 1.636-10.809-2.995-13.798-4.64-2.995-10.83-1.663-13.825 2.978-1.348 2.088-12.907 20.813-3.713 35.004 1.63 2.516-.074 10.986-2.616 16.567-2.319 5.013-.134 10.956 4.878 13.274a9.954 9.954 0 0 0 4.191.926c3.777 0 7.393-2.151 9.083-5.805 1.702-3.68 9.759-22.7 1.249-35.836-1.174-1.813.717-8.528 3.748-13.31zM224.255 59.883c2.973-4.637 1.636-10.809-2.995-13.798-4.641-2.995-10.83-1.663-13.825 2.978-1.348 2.088-12.907 20.813-3.713 35.004 1.63 2.516-.074 10.986-2.616 16.567-2.318 5.013-.134 10.956 4.878 13.274a9.954 9.954 0 0 0 4.191.926c3.777 0 7.393-2.151 9.083-5.805 1.702-3.68 9.759-22.7 1.249-35.836-1.174-1.813.717-8.528 3.748-13.31zM502 447.513h-24.104c.221-.262.444-.522.656-.793 4.854-6.224 6.536-14.184 4.614-21.839l-18.383-73.232h3.156c5.522 0 10-4.477 10-10s-4.478-10-10-10h-8.177l-13.818-55.045h39.107c9.188 0 16.664-7.475 16.664-16.663v-18.88c0-9.188-7.476-16.663-16.664-16.663h-19.745a48.986 48.986 0 0 0 8.72-19.525l1.369-6.756a14.626 14.626 0 0 0-3.024-12.202 14.623 14.623 0 0 0-11.359-5.384h-71.444a14.64 14.64 0 0 0-11.246 5.248 14.636 14.636 0 0 0-3.203 11.986l1.049 5.924a49.24 49.24 0 0 0 8.893 20.709h-25.122l1.619-44.104a15.928 15.928 0 0 0-4.426-11.575 15.925 15.925 0 0 0-11.405-4.847h-35.079a15.92 15.92 0 0 0-11.404 4.847 15.923 15.923 0 0 0-4.427 11.575l1.619 44.103h-13.503c-9.188 0-16.663 7.475-16.663 16.663v18.88c0 9.188 7.475 16.663 16.663 16.663h39.108l-13.818 55.045h-9.416c-5.522 0-10 4.477-10 10s4.478 10 10 10h4.395l-18.384 73.233c-1.921 7.655-.239 15.616 4.616 21.839.212.271.434.531.655.793h-37.903a25.227 25.227 0 0 0 2.381-3.177c3.568-5.643 4.725-12.336 3.257-18.849l-18.279-81.14h23.397c5.522 0 10-4.477 10-10s-4.478-10-10-10H235.04l-15.072-66.905c20.39-19.631 33.098-47.189 33.098-77.662v-32.598h17.094c5.522 0 10-4.477 10-10s-4.478-10-10-10H20.285c-5.523 0-10 4.477-10 10s4.477 10 10 10h17.094v32.598c0 30.473 12.708 58.03 33.098 77.662l-15.072 66.906H27.503c-5.523 0-10 4.477-10 10s4.477 10 10 10H50.9l-18.279 81.14c-1.467 6.513-.311 13.207 3.257 18.849a25.324 25.324 0 0 0 2.381 3.177H10c-5.523 0-10 4.477-10 10s4.477 10 10 10h492c5.522 0 10-4.477 10-10s-4.478-10.001-10-10.001zM57.379 179.779v-32.598h175.687v32.598c0 48.437-39.406 87.843-87.843 87.843s-87.844-39.406-87.844-87.843zm126.423 144.567h-77.159l9.19-40.795a107.554 107.554 0 0 0 29.389 4.071c10.184 0 20.043-1.42 29.39-4.071l9.19 40.795zM59.67 435.199a4.981 4.981 0 0 1-3.766.651 4.972 4.972 0 0 1-3.122-2.202 4.972 4.972 0 0 1-.651-3.765l21.062-93.492.01-.042 14.691-65.214a107.023 107.023 0 0 0 9.084 5.112L84.35 332.302l-.01.042-22.467 99.732a4.976 4.976 0 0 1-2.203 3.123zm16.082 12.314a24.855 24.855 0 0 0 5.632-11.042l20.753-92.125h86.17l20.753 92.125a24.864 24.864 0 0 0 5.631 11.042H75.752zm161.91-13.866a4.969 4.969 0 0 1-3.123 2.202 4.97 4.97 0 0 1-3.765-.651 4.973 4.973 0 0 1-2.203-3.123l-22.468-99.737-.004-.02-12.631-56.071a107.28 107.28 0 0 0 9.083-5.112l14.692 65.218.007.029 21.063 93.5a4.967 4.967 0 0 1-.651 3.765zM454.5 200.529l-.075.372c-2.758 13.614-14.841 23.496-28.731 23.496h-.968a29.276 29.276 0 0 1-28.805-23.868H454.5zm-113.088-16.658l-1.487 40.525h-23.478l-1.487-40.525h26.452zm-55.145 72.732v-12.206H481.716v12.206H286.267zm121.039 75.045h-46.628l13.818-55.045h18.992l13.818 55.045zm-97.815 104.865c-2.311 0-3.679-1.312-4.288-2.094-.61-.782-1.55-2.429-.987-4.669l38.444-153.147h11.215l-39.109 155.795a5.431 5.431 0 0 1-5.275 4.115zm19.396 11a25.382 25.382 0 0 0 5.277-10.246l21.493-85.619h56.67l21.493 85.619a25.382 25.382 0 0 0 5.277 10.246h-110.21zm133.895-13.094c-.61.782-1.978 2.094-4.288 2.094a5.431 5.431 0 0 1-5.275-4.115L414.11 276.603h11.216l38.442 153.147c.563 2.241-.376 3.887-.986 4.669z"/><path d="M121.709 227.013c-26.476-13.37-32.224-39.265-32.474-40.456-1.097-5.393-6.348-8.894-11.75-7.813-5.417 1.077-8.934 6.342-7.856 11.759.293 1.48 7.619 36.463 43.064 54.362a10 10 0 0 0 13.434-4.418c2.49-4.93.511-10.945-4.418-13.434zM159.03 244.101c-.13-.64-.32-1.27-.57-1.87a9.87 9.87 0 0 0-2.17-3.25 9.57 9.57 0 0 0-1.52-1.24c-.54-.36-1.12-.67-1.72-.92a9.81 9.81 0 0 0-1.87-.57 9.898 9.898 0 0 0-3.91 0c-.64.12-1.27.32-1.87.57-.61.25-1.19.56-1.73.92-.55.36-1.06.78-1.52 1.24s-.88.97-1.24 1.52a9.87 9.87 0 0 0-.92 1.73 10.098 10.098 0 0 0-.77 3.82 10.098 10.098 0 0 0 .77 3.82c.25.61.56 1.19.92 1.73.36.55.78 1.06 1.24 1.52.46.46.97.88 1.52 1.24.54.36 1.12.67 1.73.92.6.25 1.23.44 1.87.57s1.3.2 1.95.2c.65 0 1.31-.07 1.96-.2.63-.13 1.26-.32 1.87-.57.6-.25 1.18-.56 1.72-.92a9.57 9.57 0 0 0 1.52-1.24 9.87 9.87 0 0 0 2.17-3.25 9.84 9.84 0 0 0 .76-3.82c0-.65-.06-1.31-.19-1.95z"/></symbol><symbol id="heater-radiator" viewBox="0 0 512 512"><path d="M512 206.477V166.77h-27.314V91.559h-65.933v75.212h-12.434V91.548h-65.933v75.221H328.1V91.538h-65.935v75.232h-12.577V91.526h-65.935v75.244h-12.038V91.517h-65.933v75.254H93.257V91.506H27.324v75.263H0v39.706h27.324v75.233H0v39.706h27.324v75.202h43.391c2.535 13.569 14.459 23.876 28.752 23.876 14.29 0 26.212-10.301 28.75-23.865h43.396v-75.212h12.038v75.221h65.935v-75.221h12.577v75.234h65.934v-75.234h12.286v75.244h43.408c2.551 13.549 14.466 23.834 28.745 23.834 14.275 0 26.188-10.28 28.743-23.824h43.405v-75.255H512v-39.706h-27.314v-75.233H512zm-27.314-24.033h11.64v8.359h-11.64v-8.359zM27.324 305.741H15.673v-8.359h11.651v8.359zm0-114.938H15.673v-8.359h11.651v8.359zm50.26 181.044a29.282 29.282 0 0 0-5.498 9.097H42.998V107.18h34.586v264.667zm15.673-189.403h12.424v8.359H93.257v-8.359zm0 24.032h12.424v75.233H93.257v-75.233zm0 90.906h12.424v8.359H93.257v-8.359zm12.424 24.032v41.234c-2.003-.436-4.08-.671-6.212-.671s-4.208.235-6.211.67v-41.233h12.423zm-6.213 83.405c-7.49 0-13.584-6.094-13.584-13.584s6.094-13.584 13.584-13.584 13.584 6.094 13.584 13.584-6.094 13.584-13.584 13.584zm56.474-23.865H126.856a29.317 29.317 0 0 0-5.501-9.105V107.19h34.587v273.764zm27.71-75.213h-12.038v-8.359h12.038v8.359zm.001-24.032h-12.039v-75.233h12.039v75.233zm0-90.906h-12.039v-8.359h12.039v8.359zm50.261 190.16h-34.588V107.2h34.588v273.763zm28.251-75.222h-12.577v-8.359h12.577v8.359zm0-24.032h-12.577v-75.233h12.577v75.233zm0-90.906h-12.577v-8.359h12.577v8.359zm50.262 190.172h-34.588V107.211h34.588v273.764zm27.959-75.234H328.1v-8.359h12.286v8.359zm0-24.032H328.1v-75.233h12.286v75.233zm0-90.906H328.1v-8.359h12.286v8.359zm50.261 181.054a29.324 29.324 0 0 0-5.507 9.128h-29.079V107.222h34.586v264.635zm15.672-189.413h12.434v8.359h-12.434v-8.359zm0 24.032h12.433v75.233h-12.433v-75.233zm0 90.906h12.434v8.359h-12.434v-8.359zm12.434 24.032v41.234a29.19 29.19 0 0 0-6.214-.671 29.23 29.23 0 0 0-6.219.672v-41.235h12.433zm-6.214 83.405c-7.49 0-13.584-6.094-13.584-13.584s6.094-13.584 13.584-13.584c7.49 0 13.584 6.094 13.584 13.584s-6.095 13.584-13.584 13.584zm56.474-23.824h-29.071a29.308 29.308 0 0 0-5.516-9.145V107.232h34.587v273.763zm27.314-83.613v8.359h-11.64v-8.359h11.64z"/><path d="M52.454 123.893h15.673V364.22H52.454zM130.811 123.903h15.673V364.23h-15.673zM208.781 146.212h15.673v218.039h-15.673zM287.295 123.935h15.673v240.326h-15.673zM365.516 123.945h15.673v240.327h-15.673zM443.883 123.956h15.673v183.171h-15.673zM443.883 325.934h15.673v15.673h-15.673z"/></symbol><symbol id="heater" viewBox="0 0 511.998 511.998"><path d="M501.34 117.336c-5.906 0-10.688 4.773-10.688 10.664v85.335H469.34v-21.336c0-23.523-19.156-42.663-42.688-42.663-12.718 0-24.155 5.609-31.999 14.491-7.812-8.882-19.25-14.491-32-14.491-12.718 0-24.155 5.609-31.999 14.491-7.812-8.882-19.25-14.491-32-14.491-12.719 0-24.156 5.609-31.992 14.491-7.82-8.882-19.258-14.491-32-14.491-12.726 0-24.171 5.609-32 14.491-7.82-8.882-19.258-14.491-32-14.491-12.726 0-24.171 5.609-32 14.491-7.82-8.882-19.258-14.491-32-14.491-19.835 0-36.57 13.616-41.32 31.999H32c-5.891 0-10.664 4.773-10.664 10.664v21.336H10.664C4.773 213.335 0 218.108 0 223.999s4.773 10.664 10.664 10.664h10.672v21.336c0 5.891 4.773 10.664 10.664 10.664h32v202.678c0 23.516 19.141 42.656 42.664 42.656 12.742 0 24.18-5.625 32-14.5 7.828 8.875 19.273 14.5 32 14.5 12.742 0 24.18-5.625 32-14.5 7.828 8.875 19.273 14.5 32 14.5 12.742 0 24.18-5.625 32-14.5 7.836 8.875 19.273 14.5 31.992 14.5 12.75 0 24.188-5.625 32-14.5 7.844 8.875 19.281 14.5 31.999 14.5 12.75 0 24.188-5.625 32-14.5 7.844 8.875 19.281 14.5 31.999 14.5 23.531 0 42.688-19.141 42.688-42.656V234.663h32c5.875 0 10.656-4.773 10.656-10.664V128c-.002-5.891-4.783-10.664-10.658-10.664zM64 245.335H42.664v-42.672H64v42.672zm63.999 224.006c0 11.75-9.563 21.312-21.336 21.312-11.757 0-21.328-9.562-21.328-21.312V191.999c0-11.758 9.57-21.336 21.328-21.336 11.773 0 21.336 9.578 21.336 21.336v277.342zm64 0c-.001 11.75-9.563 21.312-21.336 21.312-11.757 0-21.328-9.562-21.328-21.312V191.999c0-11.758 9.57-21.336 21.328-21.336 11.773 0 21.336 9.578 21.336 21.336v277.342zm63.999 0c0 11.75-9.562 21.312-21.336 21.312-11.757 0-21.328-9.562-21.328-21.312V191.999c0-11.758 9.57-21.336 21.328-21.336 11.773 0 21.336 9.578 21.336 21.336v277.342zm64 0c0 11.75-9.562 21.312-21.344 21.312-11.75 0-21.312-9.562-21.312-21.312V191.999c0-11.758 9.562-21.336 21.312-21.336 11.781 0 21.344 9.578 21.344 21.336v277.342zm63.999 0c0 11.75-9.562 21.312-21.344 21.312-11.749 0-21.312-9.562-21.312-21.312V191.999c0-11.758 9.562-21.336 21.312-21.336 11.781 0 21.344 9.578 21.344 21.336v277.342zm63.999 0c0 11.75-9.562 21.312-21.344 21.312-11.749 0-21.312-9.562-21.312-21.312V191.999c0-11.758 9.562-21.336 21.312-21.336 11.781 0 21.344 9.578 21.344 21.336v277.342zM356.871 103.672c-1.312-4.539-.5-7.844 2.688-11.055 8.656-8.695 11.531-19.984 8.062-31.812-2.312-7.938-6.812-13.547-7.375-14.25-.031 0-.031-.008-.031-.008v-.015c-1.969-2.359-4.906-3.867-8.219-3.867-5.89 0-10.655 4.781-10.655 10.672 0 2.586.906 4.961 2.438 6.805.031.023 2.281 2.938 3.375 6.656 1.266 4.367.469 7.586-2.719 10.766-8.625 8.678-11.515 20.045-8.078 31.998 2.328 8.102 6.828 13.836 7.328 14.469v-.008c1.969 2.422 4.953 3.977 8.312 3.977 5.891 0 10.656-4.773 10.656-10.664 0-2.539-.875-4.867-2.344-6.695-.031-.031-2.344-3.086-3.438-6.969zM268.656 96.61c-2.461-9.836-.492-18.195 6-25.547 11.406-12.891 15.031-28.695 10.5-45.726-3.188-11.938-9.312-20.227-10-21.133v.016c-1.969-2.555-5.023-4.219-8.492-4.219-5.893 0-10.666 4.773-10.666 10.664 0 2.414.805 4.633 2.156 6.414h-.016c.047.062 4.492 6.109 6.547 14.32 2.453 9.827.484 18.187-6.016 25.538-11.39 12.891-15.015 28.696-10.483 45.727 3.172 11.938 9.305 20.227 9.984 21.133l.016-.016a10.597 10.597 0 0 0 8.477 4.219c5.898 0 10.68-4.773 10.68-10.664 0-2.414-.812-4.633-2.156-6.414-.047-.062-4.492-6.109-6.531-14.312zM189.64 110.641c-.023-.031-2.328-3.086-3.445-6.969-1.305-4.539-.5-7.844 2.695-11.055 8.664-8.695 11.523-19.984 8.062-31.812-2.32-7.938-6.789-13.531-7.391-14.25 0 0 0-.008-.008-.008l-.008-.023v.008c-1.961-2.359-4.906-3.867-8.211-3.867-5.891 0-10.672 4.781-10.672 10.672 0 2.586.922 4.961 2.453 6.805.023.023 2.273 2.938 3.359 6.656 1.281 4.367.469 7.586-2.703 10.766-8.64 8.678-11.515 20.045-8.077 31.998 2.328 8.102 6.828 13.836 7.336 14.469v-.008c1.961 2.422 4.945 3.977 8.305 3.977 5.891 0 10.664-4.773 10.664-10.664 0-2.539-.891-4.867-2.367-6.695h.008z"/></symbol><symbol id="paving" viewBox="0 0 512 512"><path d="M486.4 0H25.6C11.468.015.015 11.468 0 25.6v460.8c.015 14.132 11.468 25.585 25.6 25.6h460.8c14.132-.015 25.585-11.468 25.6-25.6V25.6C511.985 11.468 500.532.015 486.4 0zM298.667 110.933V179.2a8.539 8.539 0 0 1-8.533 8.533h-102.4a8.539 8.539 0 0 1-8.533-8.533v-68.267a8.538 8.538 0 0 1 8.533-8.533h102.4a8.539 8.539 0 0 1 8.533 8.533zM290.133 384h-68.267a8.538 8.538 0 0 1-8.533-8.533V332.8a8.539 8.539 0 0 1 8.533-8.533h68.267a8.539 8.539 0 0 1 8.533 8.533v42.667a8.538 8.538 0 0 1-8.533 8.533zm8.534 25.6v17.067a8.539 8.539 0 0 1-8.533 8.533h-68.267a8.538 8.538 0 0 1-8.533-8.533V409.6a8.539 8.539 0 0 1 8.533-8.533h68.267a8.539 8.539 0 0 1 8.533 8.533zm-8.534-102.4h-68.267a8.538 8.538 0 0 1-8.533-8.533v-85.333a8.538 8.538 0 0 1 8.533-8.533h68.267a8.539 8.539 0 0 1 8.533 8.533v85.333a8.538 8.538 0 0 1-8.533 8.533zM204.8 17.067h76.8V76.8a8.538 8.538 0 0 1-8.533 8.533h-59.733a8.538 8.538 0 0 1-8.533-8.533V17.067zm-93.867 0h76.8V76.8a8.538 8.538 0 0 1-8.533 8.533h-68.267V17.067zm0 85.333H153.6a8.539 8.539 0 0 1 8.533 8.533V179.2a8.539 8.539 0 0 1-8.533 8.533h-42.667V102.4zm0 102.4h76.8a8.539 8.539 0 0 1 8.533 8.533V256a8.538 8.538 0 0 1-8.533 8.533h-76.8V204.8zm0 76.8h76.8a8.539 8.539 0 0 1 8.533 8.533v59.733a8.539 8.539 0 0 1-8.533 8.533h-76.8V281.6zm0 93.867h76.8a8.539 8.539 0 0 1 8.533 8.533v42.667a8.539 8.539 0 0 1-8.533 8.533h-76.8v-59.733zM93.867 494.933H25.6a8.539 8.539 0 0 1-8.533-8.533V25.6a8.539 8.539 0 0 1 8.533-8.533h68.267v477.866zm76.8 0h-59.733v-42.667h51.2a8.539 8.539 0 0 1 8.533 8.533v34.134zm76.8 0h-59.733V460.8a8.539 8.539 0 0 1 8.533-8.533h42.667a8.539 8.539 0 0 1 8.533 8.533v34.133zm59.733 0h-42.667V460.8a8.539 8.539 0 0 1 8.533-8.533h25.6a8.539 8.539 0 0 1 8.533 8.533v34.133zm93.867 0h-76.8V460.8a8.539 8.539 0 0 1 8.533-8.533h68.267v42.666zm0-59.733h-76.8a8.539 8.539 0 0 1-8.533-8.533V409.6a8.539 8.539 0 0 1 8.533-8.533h76.8V435.2zm0-51.2h-76.8a8.539 8.539 0 0 1-8.533-8.533V358.4a8.539 8.539 0 0 1 8.533-8.533h76.8V384zm0-51.2h-76.8a8.539 8.539 0 0 1-8.533-8.533v-51.2a8.539 8.539 0 0 1 8.533-8.533h76.8V332.8zm0-85.333h-76.8a8.539 8.539 0 0 1-8.533-8.533v-25.6a8.538 8.538 0 0 1 8.533-8.533h76.8v42.666zm0-59.734h-76.8a8.539 8.539 0 0 1-8.533-8.533v-68.267a8.538 8.538 0 0 1 8.533-8.533h76.8v85.333zm0-102.4H307.2a8.539 8.539 0 0 1-8.533-8.533V17.067h102.4v68.266zM494.933 486.4a8.539 8.539 0 0 1-8.533 8.533h-68.267V17.067H486.4a8.539 8.539 0 0 1 8.533 8.533v460.8z"/><path d="M36.608 57.259a9.792 9.792 0 0 0 2.817 1.792 8.443 8.443 0 0 0 9.301-1.792 9.92 9.92 0 0 0 1.792-2.817 8.03 8.03 0 0 0 0-6.483 9.792 9.792 0 0 0-1.792-2.817 8.88 8.88 0 0 0-2.817-1.792 8.699 8.699 0 0 0-9.301 1.792 9.792 9.792 0 0 0-1.792 2.817 8.03 8.03 0 0 0 0 6.483 9.933 9.933 0 0 0 1.792 2.817zM68.267 85.333a8.546 8.546 0 0 0 3.242-.683 9.894 9.894 0 0 0 2.817-1.791 8.477 8.477 0 0 0 2.475-6.059 8.534 8.534 0 0 0-14.592-6.059 8.788 8.788 0 0 0-1.792 2.817 8.546 8.546 0 0 0-.683 3.242 8.451 8.451 0 0 0 8.533 8.533zM39.425 110.25a8.446 8.446 0 0 0 11.092-11.092 9.77 9.77 0 0 0-1.792-2.817 8.933 8.933 0 0 0-12.117 0 9.792 9.792 0 0 0-1.792 2.817 8.03 8.03 0 0 0 0 6.483 9.92 9.92 0 0 0 1.792 2.817 9.819 9.819 0 0 0 2.817 1.792zM68.267 136.533a8.546 8.546 0 0 0 3.242-.683 9.894 9.894 0 0 0 2.817-1.791A8.477 8.477 0 0 0 76.801 128a8.979 8.979 0 0 0-2.475-6.059 9.894 9.894 0 0 0-2.817-1.791 8.12 8.12 0 0 0-6.483 0 7.69 7.69 0 0 0-4.608 4.608 8.445 8.445 0 0 0 1.791 9.301 8.805 8.805 0 0 0 6.058 2.474zM36.608 159.659a9.792 9.792 0 0 0 2.817 1.792 8.449 8.449 0 0 0 11.776-7.851 8.979 8.979 0 0 0-2.475-6.059 8.93 8.93 0 0 0-12.117 0 8.943 8.943 0 0 0-2.475 6.059 8.44 8.44 0 0 0 2.474 6.059zM71.508 171.35a8.12 8.12 0 0 0-6.483 0 7.69 7.69 0 0 0-4.608 4.608 8.03 8.03 0 0 0 0 6.483 9.92 9.92 0 0 0 1.792 2.817A8.533 8.533 0 0 0 76.8 179.2a8.979 8.979 0 0 0-2.475-6.059 9.894 9.894 0 0 0-2.817-1.791zM42.667 213.333A8.533 8.533 0 0 0 51.2 204.8a8.546 8.546 0 0 0-.683-3.242 8.786 8.786 0 0 0-1.791-2.817 9.92 9.92 0 0 0-2.817-1.792 8.486 8.486 0 0 0-6.483 0 7.69 7.69 0 0 0-4.608 4.608 8.529 8.529 0 0 0-.684 3.243 8.532 8.532 0 0 0 8.533 8.533zM68.267 238.933A8.533 8.533 0 0 0 76.8 230.4a8.534 8.534 0 0 0-14.592-6.059 8.943 8.943 0 0 0-2.475 6.059 8.533 8.533 0 0 0 8.534 8.533zM36.608 262.059a12.281 12.281 0 0 0 2.817 1.875A8.525 8.525 0 0 0 51.2 256a8.807 8.807 0 0 0-2.475-6.059 8.93 8.93 0 0 0-12.117 0A8.57 8.57 0 0 0 34.133 256a8.445 8.445 0 0 0 2.475 6.059zM62.208 287.658a8.653 8.653 0 0 0 12.117 0 9.92 9.92 0 0 0 1.792-2.817 7.21 7.21 0 0 0 .683-3.241 8.979 8.979 0 0 0-2.475-6.059 13.762 13.762 0 0 0-1.284-1.025 6.34 6.34 0 0 0-1.533-.767 5.31 5.31 0 0 0-1.625-.517 8.517 8.517 0 0 0-7.675 2.308 8.788 8.788 0 0 0-1.792 2.817 8.03 8.03 0 0 0 0 6.483 9.91 9.91 0 0 0 1.792 2.818zM36.608 313.258a8.45 8.45 0 0 0 6.059 2.475 8.146 8.146 0 0 0 5.975-2.475 8.562 8.562 0 0 0 0-12.118 5.317 5.317 0 0 0-1.283-1.025 4.667 4.667 0 0 0-1.45-.767 5.31 5.31 0 0 0-1.625-.517 8.517 8.517 0 0 0-7.675 2.308 9.792 9.792 0 0 0-1.792 2.817 8.03 8.03 0 0 0 0 6.483 9.877 9.877 0 0 0 1.791 2.819zM71.539 324.869a8.533 8.533 0 0 0-9.331 1.872 8.943 8.943 0 0 0-2.475 6.059 8.445 8.445 0 0 0 2.475 6.059 9.792 9.792 0 0 0 2.817 1.792 8.03 8.03 0 0 0 6.483 0 9.92 9.92 0 0 0 2.817-1.792A8.477 8.477 0 0 0 76.8 332.8a8.534 8.534 0 0 0-5.261-7.931zM42.667 366.933a8.546 8.546 0 0 0 3.242-.683 9.894 9.894 0 0 0 2.817-1.791 8.477 8.477 0 0 0 2.475-6.059 8.979 8.979 0 0 0-2.475-6.059 8.93 8.93 0 0 0-12.117 0 8.943 8.943 0 0 0-2.475 6.059 8.451 8.451 0 0 0 8.533 8.533zM62.208 390.058a8.653 8.653 0 0 0 12.117 0 9.92 9.92 0 0 0 1.792-2.817A7.21 7.21 0 0 0 76.8 384a8.534 8.534 0 0 0-14.592-6.059 8.788 8.788 0 0 0-1.792 2.817 8.03 8.03 0 0 0 0 6.483 9.92 9.92 0 0 0 1.792 2.817zM48.725 403.541a8.933 8.933 0 0 0-12.117 0 8.788 8.788 0 0 0-1.792 2.817 8.03 8.03 0 0 0 0 6.483 9.92 9.92 0 0 0 1.792 2.817 8.653 8.653 0 0 0 12.117 0 9.92 9.92 0 0 0 1.792-2.817 8.03 8.03 0 0 0 0-6.483 8.771 8.771 0 0 0-1.792-2.817zM74.325 429.141a8.933 8.933 0 0 0-12.117 0 8.788 8.788 0 0 0-1.792 2.817 8.508 8.508 0 0 0-.683 3.242 7.106 7.106 0 0 0 .683 3.242 9.92 9.92 0 0 0 1.792 2.817 12.281 12.281 0 0 0 2.817 1.875 8.778 8.778 0 0 0 9.3-1.875 9.92 9.92 0 0 0 1.792-2.817 8.03 8.03 0 0 0 0-6.483 9.768 9.768 0 0 0-1.792-2.818zM47.358 453.717a4.667 4.667 0 0 0-1.45-.767 5.31 5.31 0 0 0-1.625-.517 8.747 8.747 0 0 0-7.675 2.308 8.943 8.943 0 0 0-2.475 6.059 8.531 8.531 0 0 0 12.8 7.39 8.533 8.533 0 0 0 4.267-7.39 8.979 8.979 0 0 0-2.475-6.059 8.333 8.333 0 0 0-1.367-1.024zM440.491 59.051a8.447 8.447 0 0 0 11.775-7.851 8.979 8.979 0 0 0-2.475-6.059 8.545 8.545 0 0 0-9.3-1.791 9.805 9.805 0 0 0-2.817 1.792 8.788 8.788 0 0 0-1.792 2.817 8.445 8.445 0 0 0 1.792 9.3 9.819 9.819 0 0 0 2.817 1.792zM474.025 69.717a4.667 4.667 0 0 0-1.45-.767 5.31 5.31 0 0 0-1.625-.517 8.517 8.517 0 0 0-7.675 2.308A8.943 8.943 0 0 0 460.8 76.8a8.451 8.451 0 0 0 8.533 8.533 8.546 8.546 0 0 0 3.242-.683 9.894 9.894 0 0 0 2.817-1.791 8.477 8.477 0 0 0 2.475-6.059 8.979 8.979 0 0 0-2.475-6.059 8.376 8.376 0 0 0-1.367-1.024zM437.675 108.458a9.792 9.792 0 0 0 2.817 1.792 8.44 8.44 0 0 0 9.3-1.792 9.92 9.92 0 0 0 1.792-2.817 7.214 7.214 0 0 0 .683-3.242 8.979 8.979 0 0 0-2.475-6.059 8.703 8.703 0 0 0-9.3-1.791 8.788 8.788 0 0 0-2.817 1.792 8.94 8.94 0 0 0-2.475 6.058 8.546 8.546 0 0 0 .683 3.242 9.905 9.905 0 0 0 1.792 2.817zM474.025 120.917a4.667 4.667 0 0 0-1.45-.767 5.31 5.31 0 0 0-1.625-.517 8.59 8.59 0 0 0-7.675 2.308A8.943 8.943 0 0 0 460.8 128a8.422 8.422 0 0 0 .592 3.242 12.786 12.786 0 0 0 1.883 2.817 9.792 9.792 0 0 0 2.817 1.792 8.443 8.443 0 0 0 9.301-1.792 9.92 9.92 0 0 0 1.792-2.817 8.546 8.546 0 0 0 .683-3.242 8.979 8.979 0 0 0-2.475-6.059c-.426-.341-.86-.682-1.368-1.024zM437.675 159.658a9.792 9.792 0 0 0 2.817 1.792 8.44 8.44 0 0 0 9.3-1.792 9.92 9.92 0 0 0 1.792-2.817 7.214 7.214 0 0 0 .683-3.242 8.979 8.979 0 0 0-2.475-6.059c-.425-.341-.859-.683-1.284-1.025a6.34 6.34 0 0 0-1.533-.767 5.66 5.66 0 0 0-1.533-.517 8.152 8.152 0 0 0-4.95.517 9.805 9.805 0 0 0-2.817 1.792 8.942 8.942 0 0 0-2.475 6.058 8.546 8.546 0 0 0 .683 3.242 9.897 9.897 0 0 0 1.792 2.818zM475.392 173.141a19.614 19.614 0 0 0-1.367-1.025 4.667 4.667 0 0 0-1.45-.767 5.31 5.31 0 0 0-1.625-.517 8.519 8.519 0 0 0-7.676 2.308 9.792 9.792 0 0 0-1.792 2.817 7.106 7.106 0 0 0-.683 3.242 8.425 8.425 0 0 0 .592 3.242 12.786 12.786 0 0 0 1.883 2.817 8.653 8.653 0 0 0 12.117 0 9.92 9.92 0 0 0 1.792-2.817 8.03 8.03 0 0 0 0-6.483 9.795 9.795 0 0 0-1.791-2.817zM440.491 212.734a8.525 8.525 0 0 0 11.775-7.934 7.214 7.214 0 0 0-.683-3.242 9.781 9.781 0 0 0-1.791-2.817 8.547 8.547 0 0 0-9.3-1.792 7.69 7.69 0 0 0-4.608 4.608 8.445 8.445 0 0 0 1.791 9.302 12.297 12.297 0 0 0 2.816 1.875zM464.601 237.463a8.617 8.617 0 0 0 7.974.87 12.456 12.456 0 0 0 2.817-1.875 8.44 8.44 0 0 0 1.792-9.3 8.778 8.778 0 0 0-1.792-2.817 8.34 8.34 0 0 0-1.367-1.025 4.667 4.667 0 0 0-1.45-.767 5.31 5.31 0 0 0-1.625-.517 8.519 8.519 0 0 0-7.676 2.308 8.788 8.788 0 0 0-1.792 2.817 7.106 7.106 0 0 0-.683 3.242 8.62 8.62 0 0 0 3.802 7.064zM440.491 263.851a7.214 7.214 0 0 0 3.242.683 8.48 8.48 0 0 0 6.059-2.475 9.92 9.92 0 0 0 1.792-2.817 7.214 7.214 0 0 0 .683-3.242 8.979 8.979 0 0 0-2.475-6.059 8.703 8.703 0 0 0-9.3-1.791 8.788 8.788 0 0 0-2.817 1.792A8.94 8.94 0 0 0 435.2 256a8.445 8.445 0 0 0 2.475 6.059 9.8 9.8 0 0 0 2.816 1.792zM463.275 287.659a8.44 8.44 0 0 0 9.3 1.792 7.69 7.69 0 0 0 4.608-4.608 8.03 8.03 0 0 0 0-6.483 8.773 8.773 0 0 0-1.791-2.818 8.283 8.283 0 0 0-1.367-1.025 4.667 4.667 0 0 0-1.45-.767 5.31 5.31 0 0 0-1.625-.517 8.595 8.595 0 0 0-7.676 2.308 8.788 8.788 0 0 0-1.792 2.817 7.106 7.106 0 0 0-.683 3.242 8.425 8.425 0 0 0 .592 3.242 12.849 12.849 0 0 0 1.884 2.817zM437.675 313.258a9.792 9.792 0 0 0 2.817 1.792 8.44 8.44 0 0 0 9.3-1.792 9.92 9.92 0 0 0 1.792-2.817 7.214 7.214 0 0 0 .683-3.242 8.979 8.979 0 0 0-2.475-6.059 8.545 8.545 0 0 0-9.3-1.791 8.788 8.788 0 0 0-2.817 1.792 8.94 8.94 0 0 0-2.475 6.058 8.546 8.546 0 0 0 .683 3.242 9.905 9.905 0 0 0 1.792 2.817zM475.392 326.741a19.614 19.614 0 0 0-1.367-1.025 4.667 4.667 0 0 0-1.45-.767 5.31 5.31 0 0 0-1.625-.517 8.75 8.75 0 0 0-7.676 2.308 9.792 9.792 0 0 0-1.792 2.817 7.106 7.106 0 0 0-.683 3.242 8.422 8.422 0 0 0 .592 3.242 12.786 12.786 0 0 0 1.883 2.817 8.653 8.653 0 0 0 12.117 0 9.92 9.92 0 0 0 1.792-2.817 8.03 8.03 0 0 0 0-6.483 9.795 9.795 0 0 0-1.791-2.817zM440.491 366.251a8.03 8.03 0 0 0 6.483 0 9.92 9.92 0 0 0 2.817-1.792 8.477 8.477 0 0 0 2.475-6.059 7.214 7.214 0 0 0-.683-3.242 9.781 9.781 0 0 0-1.791-2.817 8.825 8.825 0 0 0-12.117 0 9.792 9.792 0 0 0-1.792 2.817 8.445 8.445 0 0 0 1.792 9.301 9.8 9.8 0 0 0 2.816 1.792zM469.333 392.533a8.546 8.546 0 0 0 3.242-.683 9.92 9.92 0 0 0 2.817-1.792 8.44 8.44 0 0 0 1.792-9.3 8.788 8.788 0 0 0-1.792-2.817 8.34 8.34 0 0 0-1.367-1.025 4.667 4.667 0 0 0-1.45-.767 5.31 5.31 0 0 0-1.625-.517 8.519 8.519 0 0 0-7.676 2.308 8.788 8.788 0 0 0-1.792 2.817 7.106 7.106 0 0 0-.683 3.242 8.445 8.445 0 0 0 2.475 6.059 8.807 8.807 0 0 0 6.059 2.475zM440.491 417.451a8.447 8.447 0 0 0 11.775-7.851 9.743 9.743 0 0 0-.175-1.625 5.057 5.057 0 0 0-.508-1.617 6.647 6.647 0 0 0-.767-1.542l-1.025-1.275a8.825 8.825 0 0 0-12.117 0l-1.025 1.275a6.31 6.31 0 0 0-.767 1.542 5.254 5.254 0 0 0-.517 1.617c-.097.537-.153 1.08-.167 1.625a8.445 8.445 0 0 0 2.475 6.059 9.838 9.838 0 0 0 2.818 1.792zM477.183 431.958a6.647 6.647 0 0 0-.767-1.542l-1.025-1.275a8.34 8.34 0 0 0-1.367-1.025 4.667 4.667 0 0 0-1.45-.767 5.31 5.31 0 0 0-1.625-.517 8.519 8.519 0 0 0-7.676 2.308c-.367.404-.709.83-1.025 1.275a6.31 6.31 0 0 0-.767 1.542c-.246.483-.42 1-.517 1.533a11.801 11.801 0 0 0-.166 1.709 8.422 8.422 0 0 0 .592 3.242 10.62 10.62 0 0 0 1.883 2.733 8.197 8.197 0 0 0 6.058 2.558 8.546 8.546 0 0 0 3.242-.683 8.632 8.632 0 0 0 2.817-1.875 8.886 8.886 0 0 0 2.475-5.975 10.763 10.763 0 0 0-.175-1.708 5.197 5.197 0 0 0-.507-1.533zM449.792 454.741a8.547 8.547 0 0 0-9.3-1.792 9.805 9.805 0 0 0-2.817 1.792 8.788 8.788 0 0 0-1.792 2.817 8.03 8.03 0 0 0 0 6.483 9.92 9.92 0 0 0 1.792 2.817 9.792 9.792 0 0 0 2.817 1.792 8.443 8.443 0 0 0 9.3-1.791 9.92 9.92 0 0 0 1.792-2.817 8.03 8.03 0 0 0 0-6.483 8.793 8.793 0 0 0-1.792-2.818z"/></symbol><symbol id="plug" viewBox="0 0 512.212 512.212"><path d="M401.173 324.373a8.533 8.533 0 0 0-8.533 8.533v145.408c-.014 9.231-7.494 16.711-16.725 16.725H136.298c-9.231-.014-16.711-7.494-16.725-16.725V332.906a8.533 8.533 0 0 0-17.066 0v145.408c.023 18.653 15.139 33.769 33.792 33.792h239.616c18.653-.023 33.768-15.139 33.792-33.792V332.906a8.534 8.534 0 0 0-8.534-8.533zM111.039 187.839a8.533 8.533 0 0 0 8.533-8.533V33.889c.014-9.23 7.495-16.707 16.725-16.717h239.616c9.23.009 16.711 7.487 16.725 16.717v145.417a8.533 8.533 0 0 0 17.066 0V33.889C409.681 15.237 394.564.124 375.912.106H136.298c-18.652.019-33.768 15.132-33.792 33.783v145.417a8.533 8.533 0 0 0 8.533 8.533z"/><path d="M256.106 68.373c-47.128 0-85.333 38.205-85.333 85.333s38.205 85.333 85.333 85.333 85.333-38.205 85.333-85.333c-.051-47.107-38.226-85.282-85.333-85.333zm0 153.6c-37.703 0-68.267-30.564-68.267-68.267 0-37.703 30.564-68.267 68.267-68.267s68.267 30.564 68.267 68.267c-.043 37.685-30.582 68.224-68.267 68.267zM256.106 290.239a8.533 8.533 0 0 0-8.533 8.533v34.133a8.533 8.533 0 0 0 17.066 0v-34.133a8.533 8.533 0 0 0-8.533-8.533zM230.506 384.106h-34.133a8.533 8.533 0 0 0 0 17.066h34.133a8.533 8.533 0 0 0 0-17.066zM315.839 384.106h-34.133a8.533 8.533 0 0 0 0 17.066h34.133a8.533 8.533 0 0 0 0-17.066z"/><path d="M290.239 153.706c0 18.851-15.282 34.133-34.133 34.133-18.851 0-34.133-15.282-34.133-34.133s15.282-34.133 34.133-34.133c4.713 0 8.533-3.82 8.533-8.533s-3.82-8.533-8.533-8.533c-28.277 0-51.2 22.923-51.2 51.2s22.923 51.2 51.2 51.2 51.2-22.923 51.2-51.2c0-4.713-3.82-8.533-8.533-8.533s-8.534 3.819-8.534 8.532z"/><path d="M486.506 341.439c-3.804.02-7.554.895-10.974 2.56l-51.26-51.268a8.533 8.533 0 0 0-6.033-2.492h-42.667v-25.6h86.903c4.156 11.755 16.176 18.806 28.465 16.698 12.289-2.108 21.271-12.763 21.271-25.231s-8.982-23.123-21.271-25.231-24.309 4.943-28.465 16.698h-86.903v-25.6h42.667c2.263 0 4.433-.9 6.033-2.5l51.268-51.26a25.303 25.303 0 0 0 10.965 2.56c14.138 0 25.6-11.462 25.6-25.6s-11.461-25.6-25.6-25.6-25.6 11.461-25.6 25.6c.016 3.801.891 7.55 2.56 10.965l-48.76 48.768h-39.134V57.45c-.014-12.813-10.398-23.197-23.211-23.211H159.85c-12.813.014-23.197 10.398-23.211 23.211v147.456H97.506l-48.759-48.768a25.215 25.215 0 0 0 2.56-10.965c0-14.138-11.462-25.6-25.6-25.6s-25.6 11.461-25.6 25.6 11.461 25.6 25.6 25.6a25.303 25.303 0 0 0 10.965-2.56l51.268 51.268a8.533 8.533 0 0 0 6.033 2.492h42.667v25.6H49.736c-4.156-11.755-16.176-18.806-28.465-16.698C8.982 232.983 0 243.638 0 256.106s8.982 23.123 21.271 25.231c12.289 2.108 24.309-4.943 28.465-16.698h86.903v25.6H93.973a8.529 8.529 0 0 0-6.033 2.492l-51.26 51.268a25.374 25.374 0 0 0-10.974-2.56c-14.138 0-25.6 11.461-25.6 25.6s11.461 25.6 25.6 25.6 25.6-11.461 25.6-25.6a25.346 25.346 0 0 0-2.56-10.974l48.759-48.759h39.134v147.456c.014 12.813 10.398 23.197 23.211 23.211h192.512c12.813-.014 23.197-10.398 23.211-23.211V307.306h39.134l48.76 48.759a25.374 25.374 0 0 0-2.56 10.974c0 14.138 11.461 25.6 25.6 25.6s25.6-11.461 25.6-25.6-11.462-25.6-25.601-25.6zm0-93.866c4.713 0 8.533 3.82 8.533 8.533s-3.82 8.533-8.533 8.533-8.533-3.82-8.533-8.533 3.82-8.533 8.533-8.533zm-7.774-105.707a8.534 8.534 0 0 1 7.774-5.227 8.532 8.532 0 0 1 4.316 15.895 8.534 8.534 0 0 1-10.29-1.269v-.119l-.094-.068a8.536 8.536 0 0 1-1.706-9.212zm-446.933 9.28h-.12l-.06.094a8.533 8.533 0 0 1-14.447-6.067 8.532 8.532 0 0 1 15.895-4.316 8.53 8.53 0 0 1-1.268 10.289zm-6.093 113.493c-4.713 0-8.533-3.82-8.533-8.533s3.82-8.533 8.533-8.533 8.533 3.82 8.533 8.533-3.82 8.533-8.533 8.533zm7.781 105.711a8.532 8.532 0 0 1-7.781 5.223 8.534 8.534 0 1 1 5.974-14.635v.128l.102.068a8.535 8.535 0 0 1 1.705 9.216zm325.019 84.412a6.153 6.153 0 0 1-6.144 6.144H159.85a6.153 6.153 0 0 1-6.144-6.144V57.45a6.153 6.153 0 0 1 6.144-6.144h192.512a6.153 6.153 0 0 1 6.144 6.144v397.312zm130.235-79.495a8.534 8.534 0 0 1-8.336-14.202h.128l.068-.102a8.534 8.534 0 0 1 14.438 6.075 8.532 8.532 0 0 1-6.298 8.229z"/></symbol><symbol id="roller" viewBox="0 0 512.003 512.003"><path d="M373.336.002h-320c-1.707.149-3.467.085-5.205.245C20.439 3.62-.289 27.275.003 55.17v328.832c0 23.564 19.103 42.667 42.667 42.667s42.667-19.102 42.667-42.667v-10.667h32v69.333c.029 26.497 21.503 47.971 48 48 26.497-.029 47.971-21.503 48-48v-16h32v-21.333H202.67c-5.891 0-10.667 4.776-10.667 10.667v26.667c0 14.728-11.939 26.667-26.667 26.667-14.728 0-26.667-11.939-26.667-26.667v-80c0-5.891-4.776-10.667-10.667-10.667H74.67c-5.891 0-10.667 4.776-10.667 10.667v21.333c0 11.782-9.551 21.333-21.333 21.333-11.782 0-21.333-9.551-21.333-21.333V55.17c-.369-16.921 12.027-31.42 28.8-33.685 1.067-.149 2.133-.149 3.2-.149h.48a31.704 31.704 0 0 1 21.035 8.309 32.061 32.061 0 0 1 10.485 23.691c0 5.891 4.776 10.667 10.667 10.667h320c5.891 0 10.667-4.776 10.667-10.667C426.634 23.894 402.777.037 373.336.002zM105.603 42.668a53.522 53.522 0 0 0-9.6-21.333h277.333a32.065 32.065 0 0 1 30.176 21.333H105.603z"/><path d="M416.003 106.668H202.67c-17.673 0-32 14.327-32 32v64c0 17.673 14.327 32 32 32h213.333c17.673 0 32-14.327 32-32v-64c0-17.673-14.327-32-32-32zm10.667 96c0 5.891-4.776 10.667-10.667 10.667H202.67c-5.891 0-10.667-4.776-10.667-10.667v-64c0-5.891 4.776-10.667 10.667-10.667h213.333c5.891 0 10.667 4.776 10.667 10.667v64z"/><path d="M181.336 160.002v-21.333h-21.333c-5.891 0-10.667 4.776-10.667 10.667v42.667c0 5.891 4.776 10.667 10.667 10.667h21.333v-21.333H170.67v-21.333h10.666zM458.67 138.668h-21.333v21.333h10.667v21.333h-10.667v21.333h21.333c5.891 0 10.667-4.776 10.667-10.667v-42.667c-.001-5.889-4.776-10.665-10.667-10.665z"/><path d="M480.003 160.002h-42.667v21.333h42.667c5.891 0 10.667 4.776 10.667 10.667v53.333c0 5.891-4.776 10.667-10.667 10.667h-128c-29.441.035-53.298 23.893-53.333 53.333v42.667h21.333v-42.667c0-17.673 14.327-32 32-32h128c17.673 0 32-14.327 32-32v-53.333c0-17.674-14.327-32-32-32z"/><path d="M341.336 341.335h-64c-5.891 0-10.667 4.776-10.667 10.667v117.333c0 23.564 19.102 42.667 42.667 42.667s42.667-19.102 42.667-42.667V352.002c0-5.891-4.776-10.667-10.667-10.667zm-10.666 128c0 11.782-9.551 21.333-21.333 21.333-11.782 0-21.333-9.551-21.333-21.333V362.668h42.667v106.667zM362.67 53.335h21.333v32H362.67zM192.003 256.002h21.333v74.667h-21.333zM192.003 352.002h21.333v21.333h-21.333zM74.67 128.002h21.333v138.667H74.67zM74.67 288.002h21.333v21.333H74.67zM384.003 170.668h21.333v21.333h-21.333zM341.336 170.668h21.333v21.333h-21.333z"/><path d="M277.336 448.002h64v21.333h-64z"/></symbol><symbol id="roof" viewBox="0 0 100 100"><path d="M25.185 69.463c-1.227 0-2.222.979-2.222 2.187 0 2.611-2.16 4.735-4.815 4.735-1.227 0-2.222.979-2.222 2.186 0 1.207.995 2.187 2.222 2.187 5.105 0 9.259-4.086 9.259-9.108 0-1.208-.994-2.187-2.222-2.187zm31.852 0c-1.227 0-2.222.979-2.222 2.187 0 2.611-2.16 4.735-4.815 4.735-1.227 0-2.222.979-2.222 2.186 0 1.207.995 2.187 2.222 2.187 5.105 0 9.259-4.086 9.259-9.108 0-1.208-.994-2.187-2.222-2.187zm31.852 0c-1.227 0-2.222.979-2.222 2.187 0 2.611-2.16 4.735-4.815 4.735-1.227 0-2.222.979-2.222 2.186 0 1.207.995 2.187 2.222 2.187 5.106 0 9.259-4.086 9.259-9.108 0-1.208-.995-2.187-2.222-2.187zM25.185 46.44c-1.227 0-2.222.978-2.222 2.186 0 2.612-2.16 4.736-4.815 4.736-1.227 0-2.222.978-2.222 2.186 0 1.207.995 2.185 2.222 2.185 5.105 0 9.259-4.085 9.259-9.107 0-1.208-.994-2.186-2.222-2.186zm31.852 0c-1.227 0-2.222.978-2.222 2.186 0 2.612-2.16 4.736-4.815 4.736-1.227 0-2.222.978-2.222 2.186 0 1.207.995 2.185 2.222 2.185 5.105 0 9.259-4.085 9.259-9.107 0-1.208-.995-2.186-2.222-2.186zm31.852 0c-1.227 0-2.222.978-2.222 2.186 0 2.612-2.16 4.736-4.815 4.736-1.227 0-2.222.978-2.222 2.186 0 1.207.995 2.185 2.222 2.185 5.106 0 9.259-4.085 9.259-9.107 0-1.208-.995-2.186-2.222-2.186zM18.148 35.803c5.105 0 9.259-4.086 9.259-9.109 0-1.207-.995-2.186-2.222-2.186s-2.222.979-2.222 2.186c0 2.612-2.16 4.736-4.815 4.736-1.227 0-2.222.978-2.222 2.186s.995 2.187 2.222 2.187zm38.889-11.295c-1.227 0-2.222.979-2.222 2.186 0 2.612-2.16 4.736-4.815 4.736-1.227 0-2.222.978-2.222 2.186s.995 2.187 2.222 2.187c5.105 0 9.259-4.086 9.259-9.109 0-1.207-.994-2.186-2.222-2.186zM97.778 9.5H2.222C.995 9.5 0 10.478 0 11.685V71.65C0 81.492 8.141 89.5 18.148 89.5c6.859 0 12.841-3.763 15.926-9.301C37.159 85.737 43.141 89.5 50 89.5s12.841-3.763 15.926-9.301c3.085 5.537 9.067 9.301 15.926 9.301C91.859 89.5 100 81.492 100 71.65V11.685c0-1.207-.995-2.185-2.222-2.185zM31.852 71.65c0 7.431-6.148 13.479-13.704 13.479-7.556 0-13.704-6.048-13.704-13.479V60.309a18.235 18.235 0 0 0 13.704 6.167 18.238 18.238 0 0 0 13.704-6.167V71.65zm0-23.024c0 7.433-6.148 13.479-13.704 13.479-7.556 0-13.704-6.047-13.704-13.479V38.378a18.235 18.235 0 0 0 13.704 6.167 18.238 18.238 0 0 0 13.704-6.167v10.248zm0-21.932c0 7.433-6.148 13.479-13.704 13.479-7.556 0-13.703-6.047-13.703-13.479V13.871h27.407v12.823zM63.704 71.65c0 7.431-6.147 13.479-13.704 13.479S36.296 79.081 36.296 71.65V60.309A18.235 18.235 0 0 0 50 66.476a18.238 18.238 0 0 0 13.704-6.167V71.65zm0-23.024c0 7.433-6.147 13.479-13.704 13.479s-13.704-6.047-13.704-13.479V38.378A18.235 18.235 0 0 0 50 44.545a18.238 18.238 0 0 0 13.704-6.167v10.248zM50 40.173c-7.556 0-13.704-6.047-13.704-13.479V13.871h27.407v12.823c.001 7.432-6.147 13.479-13.703 13.479zM95.555 71.65c0 7.431-6.147 13.479-13.704 13.479S68.148 79.081 68.148 71.65V60.309a18.235 18.235 0 0 0 13.704 6.167 18.238 18.238 0 0 0 13.704-6.167V71.65zm0-23.024c0 7.433-6.147 13.479-13.704 13.479s-13.704-6.047-13.704-13.479V38.378a18.235 18.235 0 0 0 13.704 6.167 18.238 18.238 0 0 0 13.704-6.167v10.248zm.001-21.932c0 7.433-6.148 13.479-13.704 13.479s-13.704-6.047-13.704-13.479V13.871h27.408v12.823zm-13.704 9.109c5.105 0 9.259-4.086 9.259-9.109 0-1.207-.995-2.186-2.222-2.186s-2.222.979-2.222 2.186c0 2.612-2.16 4.736-4.815 4.736-1.227 0-2.222.978-2.222 2.186s.994 2.187 2.222 2.187z"/></symbol><symbol id="stairs" viewBox="0 0 60 60"><path d="M50 8.5h-2a1 1 0 1 0 0 2h1v6H39a1 1 0 1 0 0 2h1v6H30a1 1 0 1 0 0 2h1v6H21a1 1 0 1 0 0 2h1v6H12a1 1 0 1 0 0 2h1v6H3a1 1 0 1 0 0 2h1v6H1a1 1 0 1 0 0 2h59v-50H50zm3 48a1 1 0 0 0-2 0h-4a1 1 0 0 0-2 0h-4a1 1 0 0 0-2 0h-4a1 1 0 0 0-2 0h-4a1 1 0 0 0-2 0h-4a1 1 0 0 0-2 0H6v-6h9v-8h9v-8h9v-8h9v-8h9v-8h7v9a1 1 0 0 0 0 2v4a1 1 0 0 0 0 2v4a1 1 0 0 0 0 2v4a1 1 0 0 0 0 2v4a1 1 0 0 0 0 2v4a1 1 0 0 0 0 2v4a1 1 0 0 0-1 1h-4z"/><circle cx="34" cy="44.5" r="1"/><circle cx="37" cy="41.5" r="1"/><circle cx="31" cy="47.5" r="1"/><circle cx="37" cy="47.5" r="1"/><circle cx="40" cy="38.5" r="1"/><circle cx="46" cy="38.5" r="1"/><circle cx="40" cy="44.5" r="1"/><circle cx="46" cy="44.5" r="1"/><circle cx="43" cy="41.5" r="1"/><circle cx="49" cy="41.5" r="1"/><circle cx="43" cy="47.5" r="1"/><circle cx="49" cy="47.5" r="1"/><circle cx="52" cy="38.5" r="1"/><circle cx="52" cy="44.5" r="1"/><circle cx="55" cy="41.5" r="1"/><circle cx="55" cy="47.5" r="1"/><circle cx="25" cy="53.5" r="1"/><circle cx="28" cy="50.5" r="1"/><circle cx="34" cy="50.5" r="1"/><circle cx="31" cy="53.5" r="1"/><circle cx="37" cy="53.5" r="1"/><circle cx="40" cy="50.5" r="1"/><circle cx="46" cy="50.5" r="1"/><circle cx="43" cy="53.5" r="1"/><circle cx="49" cy="53.5" r="1"/><circle cx="52" cy="50.5" r="1"/><circle cx="55" cy="53.5" r="1"/><circle cx="49" cy="29.5" r="1"/><circle cx="52" cy="26.5" r="1"/><circle cx="55" cy="23.5" r="1"/><circle cx="55" cy="29.5" r="1"/><circle cx="46" cy="32.5" r="1"/><circle cx="43" cy="35.5" r="1"/><circle cx="49" cy="35.5" r="1"/><circle cx="52" cy="32.5" r="1"/><circle cx="55" cy="35.5" r="1"/><path d="M20 1.5H4v18h16v-18zm-2 16H6v-14h12v14z"/><path d="M17 4.5H7v12h10v-12zm-2 10H9v-8h6v8z"/></symbol><symbol id="terrace" viewBox="0 0 100 100"><path d="M91.429 33.333V31.25c0-7.419-4.437-14.322-12.493-19.439-7.267-4.617-16.74-7.29-26.864-7.611V0h-4.143v4.2c-10.125.321-19.597 2.995-26.864 7.611C13.008 16.928 8.571 23.832 8.571 31.25v2.083h39.357v20.834H8.571V68.75h6.214V100h4.143V82.113L32.215 68.75h15.713V100h4.143V68.75h15.713l13.287 13.363V100h4.143V68.75h6.214V54.167H52.071V33.333h39.358zM18.928 76.221V68.75h7.428l-7.428 7.471zm62.143 0l-7.428-7.471h7.428v7.471zm6.215-11.637H12.714v-6.251h74.572v6.251zM50 8.334c2.66 0 5.373 2.264 7.445 6.21 2.067 3.94 3.305 9.071 3.554 14.623H39.001c.249-5.552 1.487-10.683 3.554-14.623 2.072-3.947 4.785-6.21 7.445-6.21zm37.131 20.833H65.148c-.345-8.451-2.775-15.709-6.403-20.195 6.769 1.006 12.967 3.179 17.978 6.362 6.01 3.817 9.637 8.667 10.408 13.833zM23.276 15.334c5.011-3.183 11.209-5.356 17.978-6.362-3.628 4.486-6.058 11.744-6.403 20.195H12.869c.771-5.166 4.398-10.016 10.407-13.833z"/></symbol><symbol id="windows" viewBox="0 0 100 100"><path d="M92.715 88.101h-5.13V37.057C87.585 16.624 70.725 0 50 0c-7.893 0-15.447 2.385-21.846 6.899a1.563 1.563 0 0 0-.375 2.183 1.574 1.574 0 0 0 2.189.373C35.834 5.318 42.76 3.133 50 3.133c18.993 0 34.444 15.218 34.444 33.924V88.1H15.555V37.057c0-8.623 3.288-16.842 9.258-23.142a1.561 1.561 0 0 0-.063-2.213 1.573 1.573 0 0 0-2.22.063c-6.523 6.884-10.116 15.866-10.116 25.292v51.044h-5.13c-.867 0-1.57.701-1.57 1.565v8.769c0 .864.703 1.565 1.57 1.565h65.33c.867 0 1.57-.701 1.57-1.565 0-.865-.703-1.566-1.57-1.566H8.855v-5.638h82.29v5.638H80.99c-.867 0-1.57.701-1.57 1.566 0 .864.703 1.565 1.57 1.565h11.726c.867 0 1.571-.701 1.571-1.565v-8.769a1.57 1.57 0 0 0-1.572-1.565zM50 6.263c-17.261 0-31.304 13.813-31.304 30.794 0 .865.703 1.566 1.571 1.566h59.467c.867 0 1.57-.701 1.57-1.566 0-16.98-14.043-30.794-31.304-30.794zM21.882 35.49C22.71 20.963 35.006 9.395 50 9.395S77.289 20.963 78.118 35.49H21.882zm57.851 6.682H54.188c-.867 0-1.571.701-1.571 1.566v39.666c0 .864.703 1.565 1.571 1.565h25.545c.867 0 1.57-.701 1.57-1.565V43.738a1.567 1.567 0 0 0-1.57-1.566zm-1.57 39.665H55.758V45.303h22.405v36.534zM20.267 42.172c-.867 0-1.571.701-1.571 1.566v39.666c0 .864.703 1.565 1.571 1.565h25.546c.867 0 1.571-.701 1.571-1.565V43.738c0-.865-.703-1.566-1.571-1.566H20.267zm23.975 39.665H21.837V45.303h22.405v36.534zm15.745-64.259L48.68 28.851a1.563 1.563 0 0 0 0 2.214 1.573 1.573 0 0 0 2.22 0l11.307-11.273a1.564 1.564 0 0 0 0-2.215 1.573 1.573 0 0 0-2.22.001zm-8.667 0a1.573 1.573 0 0 0-2.221 0L37.792 28.851a1.563 1.563 0 0 0 0 2.214 1.573 1.573 0 0 0 2.22 0l11.307-11.273a1.562 1.562 0 0 0 .001-2.214zm14.739 48.144a1.591 1.591 0 0 0 2.221 0l6.701-6.682a1.564 1.564 0 0 0 0-2.215 1.575 1.575 0 0 0-2.221 0l-6.701 6.682a1.564 1.564 0 0 0 0 2.215zm-6.428.458c.402 0 .804-.152 1.111-.457l6.701-6.682a1.564 1.564 0 0 0 0-2.215 1.575 1.575 0 0 0-2.221 0l-6.7 6.682c-.968.963-.264 2.672 1.109 2.672zm-27.911-.458a1.591 1.591 0 0 0 2.221 0l6.701-6.682a1.564 1.564 0 0 0 0-2.215 1.575 1.575 0 0 0-2.221 0l-6.701 6.682a1.562 1.562 0 0 0 0 2.215zm-6.428.458c.402 0 .804-.152 1.11-.457l6.701-6.682a1.564 1.564 0 0 0 0-2.215 1.575 1.575 0 0 0-2.221 0l-6.701 6.682c-.967.963-.263 2.672 1.111 2.672z"/></symbol></svg>